<svg width="270" height="337" viewBox="0 0 270 337" fill="none" xmlns="http://www.w3.org/2000/svg">
<g filter="url(#filter0_d_19_6)">
<path d="M6 132.497C6 132.497 65.7121 134.113 88.3461 132.497C110.98 130.88 123.67 129.974 146.304 128.358C146.304 128.358 176.631 119.214 192.785 128.358C199.647 132.243 206.173 133.684 208.279 141.877C210.062 148.817 204.262 159.81 204.262 159.81C204.262 159.81 198.499 172.377 192.785 178.57C174.111 198.814 150.492 173.563 125.933 183.536C104.059 192.419 98.9204 212.727 76.8693 221.058C50.6828 230.951 6 221.058 6 221.058V132.497ZM6 132.497V82.8362M6 254.716H105.561L135.688 229.61H113.595L130.81 214.712L179.013 208.643C179.013 208.643 190.716 207.65 196.228 211.677C202.424 216.205 204.262 229.61 204.262 229.61V274.581L192.785 292.514L142.287 295.548L105.561 264.924H76.8693L101.557 286.996M225.494 141.877V150.43L218.895 183.536V221.058L214.017 286.996L194.507 323.138L146.304 327L101.557 286.996M225.494 141.877L214.017 119.806C214.017 119.806 219.591 108.888 225.494 104.907C235.344 98.2648 246.447 113.408 255.047 104.907C259.492 100.513 267.598 94.9655 262.22 90.0093C256.841 85.0532 248.448 77.3183 248.448 77.3183L231.232 72.0764H225.494H218.895L214.017 77.3183C211.837 81.6505 214.017 90.0093 214.017 90.0093L208.279 104.907L194.507 94.6995L179.013 40.6248C179.013 40.6248 166.454 16.3463 160.937 12.208C155.419 8.06961 105.561 6.13837 105.561 6.13837L67.9748 2H6C6 2 6 8.22152 6 12.208M225.494 141.877V171.673V274.581L234.388 224.92L236.11 159.81L225.494 141.877ZM6 82.8362L130.81 90.0093H179.013L160.937 21.0365L105.561 16.3463L67.9748 12.208M6 82.8362C6 82.8362 6 39.79 6 12.208M6 82.8362V12.208M67.9748 12.208C67.9748 12.208 30.2026 12.208 6 12.208M67.9748 12.208H6M183.382 141.877C183.382 141.877 201.373 156.671 185.793 162.443C170.213 168.215 77.0501 169.34 77.0501 169.34C77.0501 169.34 77.0898 163.671 88.3461 154.994C96.5451 148.673 109.732 146.441 118.889 146.441C130.532 146.441 135.168 146.441 149.23 146.441M183.382 141.877C183.382 141.877 163.292 146.441 149.23 146.441M183.382 141.877L149.23 146.441M101.557 286.996H97.2406M97.2406 286.996L101.557 292.514H53.7786H6V286.996H51.6203H97.2406Z" stroke="#180B36" stroke-width="3" stroke-linecap="round" stroke-linejoin="round" shape-rendering="crispEdges"/>
</g>
<defs>
<filter id="filter0_d_19_6" x="0.5" y="0.5" width="269" height="336" filterUnits="userSpaceOnUse" color-interpolation-filters="sRGB">
<feFlood flood-opacity="0" result="BackgroundImageFix"/>
<feColorMatrix in="SourceAlpha" type="matrix" values="0 0 0 0 0 0 0 0 0 0 0 0 0 0 0 0 0 0 127 0" result="hardAlpha"/>
<feOffset dy="4"/>
<feGaussianBlur stdDeviation="2"/>
<feComposite in2="hardAlpha" operator="out"/>
<feColorMatrix type="matrix" values="0 0 0 0 0 0 0 0 0 0 0 0 0 0 0 0 0 0 0.25 0"/>
<feBlend mode="normal" in2="BackgroundImageFix" result="effect1_dropShadow_19_6"/>
<feBlend mode="normal" in="SourceGraphic" in2="effect1_dropShadow_19_6" result="shape"/>
</filter>
</defs>
</svg>
