<svg width="481" height="147" viewBox="0 0 481 147" fill="none" xmlns="http://www.w3.org/2000/svg">
<g filter="url(#filter0_d_182_474)">
<mask id="path-1-outside-1_182_474" maskUnits="userSpaceOnUse" x="74.5532" y="19" width="342" height="78" fill="black">
<rect fill="white" x="74.5532" y="19" width="342" height="78"/>
<path d="M111.197 63.16C112.221 64.44 113.501 66.136 115.037 68.248C116.637 70.296 118.269 72.6 119.933 75.16C121.597 77.656 123.229 80.28 124.829 83.032C126.493 85.784 127.901 88.44 129.053 91L118.877 91C117.597 88.568 116.189 86.104 114.653 83.608C113.181 81.112 111.677 78.744 110.141 76.504C108.605 74.2 107.069 72.056 105.533 70.072C104.061 68.088 102.717 66.36 101.501 64.888C100.669 64.952 99.8052 64.984 98.9092 64.984C98.0772 64.984 97.2132 64.984 96.3172 64.984H87.9652V91H78.6532V25.432C81.2772 24.792 84.1892 24.376 87.3892 24.184C90.6532 23.928 93.6292 23.8 96.3172 23.8C105.661 23.8 112.765 25.56 117.629 29.08C122.557 32.6 125.021 37.848 125.021 44.824C125.021 49.24 123.837 53.016 121.469 56.152C119.165 59.288 115.741 61.624 111.197 63.16ZM97.0852 31.96C93.1172 31.96 90.0772 32.056 87.9652 32.248V57.304H94.5892C97.7892 57.304 100.669 57.144 103.229 56.824C105.789 56.504 107.933 55.896 109.661 55C111.453 54.104 112.829 52.856 113.789 51.256C114.749 49.592 115.229 47.416 115.229 44.728C115.229 42.232 114.749 40.152 113.789 38.488C112.829 36.824 111.517 35.512 109.853 34.552C108.253 33.592 106.333 32.92 104.093 32.536C101.917 32.152 99.5812 31.96 97.0852 31.96ZM230.452 92.44C226.1 92.44 222.324 91.768 219.124 90.424C215.924 89.08 213.3 87.256 211.252 84.952C209.204 82.584 207.668 79.8 206.644 76.6C205.684 73.4 205.204 69.944 205.204 66.232V24.472H214.516V65.176C214.516 71.832 215.988 76.664 218.932 79.672C221.876 82.68 225.716 84.184 230.452 84.184C232.82 84.184 234.964 83.832 236.884 83.128C238.868 82.36 240.564 81.208 241.972 79.672C243.38 78.136 244.468 76.184 245.236 73.816C246.004 71.384 246.388 68.504 246.388 65.176V24.472H255.7V66.232C255.7 69.944 255.188 73.4 254.164 76.6C253.204 79.8 251.668 82.584 249.556 84.952C247.508 87.256 244.884 89.08 241.684 90.424C238.548 91.768 234.804 92.44 230.452 92.44ZM301.634 81.784C300.994 80.248 300.13 78.296 299.042 75.928C298.018 73.56 296.898 71 295.682 68.248C294.466 65.496 293.154 62.68 291.746 59.8C290.402 56.856 289.122 54.104 287.906 51.544C286.69 48.92 285.538 46.584 284.45 44.536C283.426 42.488 282.594 40.92 281.954 39.832C281.25 47.384 280.674 55.576 280.226 64.408C279.778 73.176 279.394 82.04 279.074 91H269.954C270.21 85.24 270.498 79.448 270.818 73.624C271.138 67.736 271.49 61.976 271.874 56.344C272.322 50.648 272.77 45.112 273.218 39.736C273.73 34.36 274.274 29.272 274.85 24.472L283.01 24.472C284.738 27.288 286.594 30.616 288.578 34.456C290.562 38.296 292.546 42.328 294.53 46.552C296.514 50.712 298.434 54.904 300.29 59.128C302.146 63.288 303.842 67.096 305.378 70.552C306.914 67.096 308.61 63.288 310.466 59.128C312.322 54.904 314.242 50.712 316.226 46.552C318.21 42.328 320.194 38.296 322.178 34.456C324.162 30.616 326.018 27.288 327.746 24.472H335.906C338.082 45.912 339.714 68.088 340.802 91H331.682C331.362 82.04 330.978 73.176 330.53 64.408C330.082 55.576 329.506 47.384 328.802 39.832C328.162 40.92 327.298 42.488 326.21 44.536C325.186 46.584 324.066 48.92 322.85 51.544C321.634 54.104 320.322 56.856 318.914 59.8C317.57 62.68 316.29 65.496 315.074 68.248C313.858 71 312.706 73.56 311.618 75.928C310.594 78.296 309.762 80.248 309.122 81.784H301.634ZM399.851 91C398.763 88.12 397.739 85.304 396.779 82.552C395.819 79.736 394.827 76.888 393.803 74.008L363.659 74.008L357.611 91H347.915C350.475 83.96 352.875 77.464 355.115 71.512C357.355 65.496 359.531 59.8 361.643 54.424C363.819 49.048 365.963 43.928 368.075 39.064C370.187 34.136 372.395 29.272 374.699 24.472H383.243C385.547 29.272 387.755 34.136 389.867 39.064C391.979 43.928 394.091 49.048 396.203 54.424C398.379 59.8 400.587 65.496 402.827 71.512C405.067 77.464 407.467 83.96 410.027 91H399.851ZM391.115 66.328C389.067 60.76 387.019 55.384 384.971 50.2C382.987 44.952 380.907 39.928 378.731 35.128C376.491 39.928 374.347 44.952 372.299 50.2C370.315 55.384 368.331 60.76 366.347 66.328L391.115 66.328Z"/>
</mask>
<path d="M111.197 63.16C112.221 64.44 113.501 66.136 115.037 68.248C116.637 70.296 118.269 72.6 119.933 75.16C121.597 77.656 123.229 80.28 124.829 83.032C126.493 85.784 127.901 88.44 129.053 91L118.877 91C117.597 88.568 116.189 86.104 114.653 83.608C113.181 81.112 111.677 78.744 110.141 76.504C108.605 74.2 107.069 72.056 105.533 70.072C104.061 68.088 102.717 66.36 101.501 64.888C100.669 64.952 99.8052 64.984 98.9092 64.984C98.0772 64.984 97.2132 64.984 96.3172 64.984H87.9652V91H78.6532V25.432C81.2772 24.792 84.1892 24.376 87.3892 24.184C90.6532 23.928 93.6292 23.8 96.3172 23.8C105.661 23.8 112.765 25.56 117.629 29.08C122.557 32.6 125.021 37.848 125.021 44.824C125.021 49.24 123.837 53.016 121.469 56.152C119.165 59.288 115.741 61.624 111.197 63.16ZM97.0852 31.96C93.1172 31.96 90.0772 32.056 87.9652 32.248V57.304H94.5892C97.7892 57.304 100.669 57.144 103.229 56.824C105.789 56.504 107.933 55.896 109.661 55C111.453 54.104 112.829 52.856 113.789 51.256C114.749 49.592 115.229 47.416 115.229 44.728C115.229 42.232 114.749 40.152 113.789 38.488C112.829 36.824 111.517 35.512 109.853 34.552C108.253 33.592 106.333 32.92 104.093 32.536C101.917 32.152 99.5812 31.96 97.0852 31.96ZM230.452 92.44C226.1 92.44 222.324 91.768 219.124 90.424C215.924 89.08 213.3 87.256 211.252 84.952C209.204 82.584 207.668 79.8 206.644 76.6C205.684 73.4 205.204 69.944 205.204 66.232V24.472H214.516V65.176C214.516 71.832 215.988 76.664 218.932 79.672C221.876 82.68 225.716 84.184 230.452 84.184C232.82 84.184 234.964 83.832 236.884 83.128C238.868 82.36 240.564 81.208 241.972 79.672C243.38 78.136 244.468 76.184 245.236 73.816C246.004 71.384 246.388 68.504 246.388 65.176V24.472H255.7V66.232C255.7 69.944 255.188 73.4 254.164 76.6C253.204 79.8 251.668 82.584 249.556 84.952C247.508 87.256 244.884 89.08 241.684 90.424C238.548 91.768 234.804 92.44 230.452 92.44ZM301.634 81.784C300.994 80.248 300.13 78.296 299.042 75.928C298.018 73.56 296.898 71 295.682 68.248C294.466 65.496 293.154 62.68 291.746 59.8C290.402 56.856 289.122 54.104 287.906 51.544C286.69 48.92 285.538 46.584 284.45 44.536C283.426 42.488 282.594 40.92 281.954 39.832C281.25 47.384 280.674 55.576 280.226 64.408C279.778 73.176 279.394 82.04 279.074 91H269.954C270.21 85.24 270.498 79.448 270.818 73.624C271.138 67.736 271.49 61.976 271.874 56.344C272.322 50.648 272.77 45.112 273.218 39.736C273.73 34.36 274.274 29.272 274.85 24.472L283.01 24.472C284.738 27.288 286.594 30.616 288.578 34.456C290.562 38.296 292.546 42.328 294.53 46.552C296.514 50.712 298.434 54.904 300.29 59.128C302.146 63.288 303.842 67.096 305.378 70.552C306.914 67.096 308.61 63.288 310.466 59.128C312.322 54.904 314.242 50.712 316.226 46.552C318.21 42.328 320.194 38.296 322.178 34.456C324.162 30.616 326.018 27.288 327.746 24.472H335.906C338.082 45.912 339.714 68.088 340.802 91H331.682C331.362 82.04 330.978 73.176 330.53 64.408C330.082 55.576 329.506 47.384 328.802 39.832C328.162 40.92 327.298 42.488 326.21 44.536C325.186 46.584 324.066 48.92 322.85 51.544C321.634 54.104 320.322 56.856 318.914 59.8C317.57 62.68 316.29 65.496 315.074 68.248C313.858 71 312.706 73.56 311.618 75.928C310.594 78.296 309.762 80.248 309.122 81.784H301.634ZM399.851 91C398.763 88.12 397.739 85.304 396.779 82.552C395.819 79.736 394.827 76.888 393.803 74.008L363.659 74.008L357.611 91H347.915C350.475 83.96 352.875 77.464 355.115 71.512C357.355 65.496 359.531 59.8 361.643 54.424C363.819 49.048 365.963 43.928 368.075 39.064C370.187 34.136 372.395 29.272 374.699 24.472H383.243C385.547 29.272 387.755 34.136 389.867 39.064C391.979 43.928 394.091 49.048 396.203 54.424C398.379 59.8 400.587 65.496 402.827 71.512C405.067 77.464 407.467 83.96 410.027 91H399.851ZM391.115 66.328C389.067 60.76 387.019 55.384 384.971 50.2C382.987 44.952 380.907 39.928 378.731 35.128C376.491 39.928 374.347 44.952 372.299 50.2C370.315 55.384 368.331 60.76 366.347 66.328L391.115 66.328Z" fill="#211245"/>
<path d="M111.197 63.16L109.916 59.3706L104.506 61.1994L108.074 65.6588L111.197 63.16ZM115.037 68.248L111.802 70.6007L111.843 70.6563L111.885 70.7106L115.037 68.248ZM119.933 75.16L116.579 77.34L116.592 77.3595L116.605 77.3788L119.933 75.16ZM124.829 83.032L121.371 85.0425L121.389 85.0722L121.406 85.1017L124.829 83.032ZM129.053 91V95H135.24L132.701 89.3585L129.053 91ZM118.877 91L115.338 92.863L116.462 95H118.877V91ZM114.653 83.608L111.208 85.6399L111.227 85.6723L111.247 85.7044L114.653 83.608ZM110.141 76.504L106.813 78.7228L106.828 78.7446L106.842 78.7661L110.141 76.504ZM105.533 70.072L102.321 72.4554L102.345 72.4883L102.37 72.5207L105.533 70.072ZM101.501 64.888L104.585 62.3405L103.263 60.7406L101.194 60.8998L101.501 64.888ZM87.9652 64.984V60.984H83.9652V64.984H87.9652ZM87.9652 91V95H91.9652V91H87.9652ZM78.6532 91H74.6532V95H78.6532V91ZM78.6532 25.432L77.7054 21.5459L74.6532 22.2903V25.432H78.6532ZM87.3892 24.184L87.6288 28.1768L87.6654 28.1746L87.702 28.1717L87.3892 24.184ZM117.629 29.08L115.284 32.3205L115.294 32.3277L115.304 32.3349L117.629 29.08ZM121.469 56.152L118.277 53.7416L118.261 53.7625L118.246 53.7837L121.469 56.152ZM87.9652 32.248L87.6031 28.2644L83.9652 28.5951V32.248H87.9652ZM87.9652 57.304H83.9652V61.304H87.9652V57.304ZM103.229 56.824L103.725 60.7931L103.725 60.7931L103.229 56.824ZM109.661 55L107.872 51.4223L107.846 51.4354L107.82 51.449L109.661 55ZM113.789 51.256L117.219 53.314L117.237 53.2846L117.254 53.2549L113.789 51.256ZM113.789 38.488L117.254 36.4891L117.254 36.4891L113.789 38.488ZM109.853 34.552L107.795 37.982L107.825 37.9996L107.854 38.0167L109.853 34.552ZM104.093 32.536L103.398 36.4751L103.408 36.4768L103.417 36.4785L104.093 32.536ZM108.074 65.6588C109.044 66.8716 110.284 68.513 111.802 70.6007L118.272 65.8953C116.719 63.759 115.398 62.0084 114.321 60.6612L108.074 65.6588ZM111.885 70.7106C113.403 72.6532 114.968 74.8608 116.579 77.34L123.287 72.98C121.57 70.3392 119.872 67.9388 118.189 65.7854L111.885 70.7106ZM116.605 77.3788C118.221 79.8027 119.81 82.357 121.371 85.0425L128.287 81.0215C126.649 78.203 124.973 75.5093 123.261 72.9412L116.605 77.3788ZM121.406 85.1017C122.999 87.735 124.328 90.2479 125.406 92.6415L132.701 89.3585C131.474 86.6321 129.988 83.833 128.252 80.9623L121.406 85.1017ZM129.053 87L118.877 87V95L129.053 95V87ZM122.417 89.137C121.093 86.6207 119.64 84.0789 118.06 81.5116L111.247 85.7044C112.739 88.1291 114.102 90.5153 115.338 92.863L122.417 89.137ZM118.099 81.5761C116.584 79.0068 115.031 76.5617 113.44 74.2419L106.842 78.7661C108.324 80.9263 109.779 83.2171 111.208 85.6399L118.099 81.5761ZM113.469 74.2852C111.886 71.9106 110.295 69.6891 108.696 67.6233L102.37 72.5207C103.843 74.4229 105.324 76.4894 106.813 78.7228L113.469 74.2852ZM108.746 67.6886C107.244 65.664 105.856 63.8789 104.585 62.3405L98.4174 67.4355C99.5785 68.8411 100.879 70.512 102.321 72.4554L108.746 67.6886ZM101.194 60.8998C100.472 60.9554 99.7103 60.984 98.9092 60.984V68.984C99.9002 68.984 100.867 68.9486 101.808 68.8762L101.194 60.8998ZM98.9092 60.984C98.9076 60.984 98.906 60.984 98.9044 60.984C98.9027 60.984 98.9011 60.984 98.8995 60.984C98.8979 60.984 98.8962 60.984 98.8946 60.984C98.893 60.984 98.8914 60.984 98.8897 60.984C98.8881 60.984 98.8865 60.984 98.8848 60.984C98.8832 60.984 98.8816 60.984 98.88 60.984C98.8783 60.984 98.8767 60.984 98.8751 60.984C98.8735 60.984 98.8718 60.984 98.8702 60.984C98.8686 60.984 98.867 60.984 98.8653 60.984C98.8637 60.984 98.8621 60.984 98.8604 60.984C98.8588 60.984 98.8572 60.984 98.8556 60.984C98.8539 60.984 98.8523 60.984 98.8507 60.984C98.8491 60.984 98.8474 60.984 98.8458 60.984C98.8442 60.984 98.8425 60.984 98.8409 60.984C98.8393 60.984 98.8377 60.984 98.836 60.984C98.8344 60.984 98.8328 60.984 98.8311 60.984C98.8295 60.984 98.8279 60.984 98.8263 60.984C98.8246 60.984 98.823 60.984 98.8214 60.984C98.8197 60.984 98.8181 60.984 98.8165 60.984C98.8148 60.984 98.8132 60.984 98.8116 60.984C98.81 60.984 98.8083 60.984 98.8067 60.984C98.8051 60.984 98.8034 60.984 98.8018 60.984C98.8002 60.984 98.7985 60.984 98.7969 60.984C98.7953 60.984 98.7937 60.984 98.792 60.984C98.7904 60.984 98.7888 60.984 98.7871 60.984C98.7855 60.984 98.7839 60.984 98.7822 60.984C98.7806 60.984 98.779 60.984 98.7773 60.984C98.7757 60.984 98.7741 60.984 98.7724 60.984C98.7708 60.984 98.7692 60.984 98.7676 60.984C98.7659 60.984 98.7643 60.984 98.7627 60.984C98.761 60.984 98.7594 60.984 98.7578 60.984C98.7561 60.984 98.7545 60.984 98.7529 60.984C98.7512 60.984 98.7496 60.984 98.748 60.984C98.7463 60.984 98.7447 60.984 98.7431 60.984C98.7414 60.984 98.7398 60.984 98.7382 60.984C98.7365 60.984 98.7349 60.984 98.7333 60.984C98.7316 60.984 98.73 60.984 98.7284 60.984C98.7267 60.984 98.7251 60.984 98.7235 60.984C98.7218 60.984 98.7202 60.984 98.7186 60.984C98.7169 60.984 98.7153 60.984 98.7136 60.984C98.712 60.984 98.7104 60.984 98.7087 60.984C98.7071 60.984 98.7055 60.984 98.7038 60.984C98.7022 60.984 98.7006 60.984 98.6989 60.984C98.6973 60.984 98.6957 60.984 98.694 60.984C98.6924 60.984 98.6908 60.984 98.6891 60.984C98.6875 60.984 98.6858 60.984 98.6842 60.984C98.6826 60.984 98.6809 60.984 98.6793 60.984C98.6777 60.984 98.676 60.984 98.6744 60.984C98.6728 60.984 98.6711 60.984 98.6695 60.984C98.6678 60.984 98.6662 60.984 98.6646 60.984C98.6629 60.984 98.6613 60.984 98.6597 60.984C98.658 60.984 98.6564 60.984 98.6547 60.984C98.6531 60.984 98.6515 60.984 98.6498 60.984C98.6482 60.984 98.6466 60.984 98.6449 60.984C98.6433 60.984 98.6416 60.984 98.64 60.984C98.6384 60.984 98.6367 60.984 98.6351 60.984C98.6334 60.984 98.6318 60.984 98.6302 60.984C98.6285 60.984 98.6269 60.984 98.6253 60.984C98.6236 60.984 98.622 60.984 98.6203 60.984C98.6187 60.984 98.6171 60.984 98.6154 60.984C98.6138 60.984 98.6121 60.984 98.6105 60.984C98.6089 60.984 98.6072 60.984 98.6056 60.984C98.6039 60.984 98.6023 60.984 98.6007 60.984C98.599 60.984 98.5974 60.984 98.5957 60.984C98.5941 60.984 98.5925 60.984 98.5908 60.984C98.5892 60.984 98.5875 60.984 98.5859 60.984C98.5842 60.984 98.5826 60.984 98.581 60.984C98.5793 60.984 98.5777 60.984 98.576 60.984C98.5744 60.984 98.5728 60.984 98.5711 60.984C98.5695 60.984 98.5678 60.984 98.5662 60.984C98.5645 60.984 98.5629 60.984 98.5613 60.984C98.5596 60.984 98.558 60.984 98.5563 60.984C98.5547 60.984 98.5531 60.984 98.5514 60.984C98.5498 60.984 98.5481 60.984 98.5465 60.984C98.5448 60.984 98.5432 60.984 98.5415 60.984C98.5399 60.984 98.5383 60.984 98.5366 60.984C98.535 60.984 98.5333 60.984 98.5317 60.984C98.53 60.984 98.5284 60.984 98.5268 60.984C98.5251 60.984 98.5235 60.984 98.5218 60.984C98.5202 60.984 98.5185 60.984 98.5169 60.984C98.5152 60.984 98.5136 60.984 98.512 60.984C98.5103 60.984 98.5087 60.984 98.507 60.984C98.5054 60.984 98.5037 60.984 98.5021 60.984C98.5004 60.984 98.4988 60.984 98.4971 60.984C98.4955 60.984 98.4939 60.984 98.4922 60.984C98.4906 60.984 98.4889 60.984 98.4873 60.984C98.4856 60.984 98.484 60.984 98.4823 60.984C98.4807 60.984 98.479 60.984 98.4774 60.984C98.4758 60.984 98.4741 60.984 98.4725 60.984C98.4708 60.984 98.4692 60.984 98.4675 60.984C98.4659 60.984 98.4642 60.984 98.4626 60.984C98.4609 60.984 98.4593 60.984 98.4576 60.984C98.456 60.984 98.4543 60.984 98.4527 60.984C98.451 60.984 98.4494 60.984 98.4477 60.984C98.4461 60.984 98.4445 60.984 98.4428 60.984C98.4412 60.984 98.4395 60.984 98.4379 60.984C98.4362 60.984 98.4346 60.984 98.4329 60.984C98.4313 60.984 98.4296 60.984 98.428 60.984C98.4263 60.984 98.4247 60.984 98.423 60.984C98.4214 60.984 98.4197 60.984 98.4181 60.984C98.4164 60.984 98.4148 60.984 98.4131 60.984C98.4115 60.984 98.4098 60.984 98.4082 60.984C98.4065 60.984 98.4049 60.984 98.4032 60.984C98.4016 60.984 98.3999 60.984 98.3983 60.984C98.3966 60.984 98.395 60.984 98.3933 60.984C98.3917 60.984 98.39 60.984 98.3884 60.984C98.3867 60.984 98.3851 60.984 98.3834 60.984C98.3818 60.984 98.3801 60.984 98.3785 60.984C98.3768 60.984 98.3752 60.984 98.3735 60.984C98.3719 60.984 98.3702 60.984 98.3686 60.984C98.3669 60.984 98.3652 60.984 98.3636 60.984C98.3619 60.984 98.3603 60.984 98.3586 60.984C98.357 60.984 98.3553 60.984 98.3537 60.984C98.352 60.984 98.3504 60.984 98.3487 60.984C98.3471 60.984 98.3454 60.984 98.3438 60.984C98.3421 60.984 98.3405 60.984 98.3388 60.984C98.3372 60.984 98.3355 60.984 98.3338 60.984C98.3322 60.984 98.3305 60.984 98.3289 60.984C98.3272 60.984 98.3256 60.984 98.3239 60.984C98.3223 60.984 98.3206 60.984 98.319 60.984C98.3173 60.984 98.3157 60.984 98.314 60.984C98.3123 60.984 98.3107 60.984 98.309 60.984C98.3074 60.984 98.3057 60.984 98.3041 60.984C98.3024 60.984 98.3008 60.984 98.2991 60.984C98.2974 60.984 98.2958 60.984 98.2941 60.984C98.2925 60.984 98.2908 60.984 98.2892 60.984C98.2875 60.984 98.2859 60.984 98.2842 60.984C98.2825 60.984 98.2809 60.984 98.2792 60.984C98.2776 60.984 98.2759 60.984 98.2743 60.984C98.2726 60.984 98.271 60.984 98.2693 60.984C98.2676 60.984 98.266 60.984 98.2643 60.984C98.2627 60.984 98.261 60.984 98.2594 60.984C98.2577 60.984 98.256 60.984 98.2544 60.984C98.2527 60.984 98.2511 60.984 98.2494 60.984C98.2478 60.984 98.2461 60.984 98.2444 60.984C98.2428 60.984 98.2411 60.984 98.2395 60.984C98.2378 60.984 98.2361 60.984 98.2345 60.984C98.2328 60.984 98.2312 60.984 98.2295 60.984C98.2279 60.984 98.2262 60.984 98.2245 60.984C98.2229 60.984 98.2212 60.984 98.2196 60.984C98.2179 60.984 98.2162 60.984 98.2146 60.984C98.2129 60.984 98.2113 60.984 98.2096 60.984C98.2079 60.984 98.2063 60.984 98.2046 60.984C98.203 60.984 98.2013 60.984 98.1996 60.984C98.198 60.984 98.1963 60.984 98.1947 60.984C98.193 60.984 98.1913 60.984 98.1897 60.984C98.188 60.984 98.1864 60.984 98.1847 60.984C98.183 60.984 98.1814 60.984 98.1797 60.984C98.1781 60.984 98.1764 60.984 98.1747 60.984C98.1731 60.984 98.1714 60.984 98.1697 60.984C98.1681 60.984 98.1664 60.984 98.1648 60.984C98.1631 60.984 98.1614 60.984 98.1598 60.984C98.1581 60.984 98.1564 60.984 98.1548 60.984C98.1531 60.984 98.1515 60.984 98.1498 60.984C98.1481 60.984 98.1465 60.984 98.1448 60.984C98.1431 60.984 98.1415 60.984 98.1398 60.984C98.1382 60.984 98.1365 60.984 98.1348 60.984C98.1332 60.984 98.1315 60.984 98.1298 60.984C98.1282 60.984 98.1265 60.984 98.1249 60.984C98.1232 60.984 98.1215 60.984 98.1199 60.984C98.1182 60.984 98.1165 60.984 98.1149 60.984C98.1132 60.984 98.1115 60.984 98.1099 60.984C98.1082 60.984 98.1065 60.984 98.1049 60.984C98.1032 60.984 98.1015 60.984 98.0999 60.984C98.0982 60.984 98.0966 60.984 98.0949 60.984C98.0932 60.984 98.0916 60.984 98.0899 60.984C98.0882 60.984 98.0866 60.984 98.0849 60.984C98.0832 60.984 98.0816 60.984 98.0799 60.984C98.0782 60.984 98.0766 60.984 98.0749 60.984C98.0732 60.984 98.0716 60.984 98.0699 60.984C98.0682 60.984 98.0666 60.984 98.0649 60.984C98.0632 60.984 98.0616 60.984 98.0599 60.984C98.0582 60.984 98.0566 60.984 98.0549 60.984C98.0532 60.984 98.0516 60.984 98.0499 60.984C98.0482 60.984 98.0466 60.984 98.0449 60.984C98.0432 60.984 98.0416 60.984 98.0399 60.984C98.0382 60.984 98.0366 60.984 98.0349 60.984C98.0332 60.984 98.0315 60.984 98.0299 60.984C98.0282 60.984 98.0265 60.984 98.0249 60.984C98.0232 60.984 98.0215 60.984 98.0199 60.984C98.0182 60.984 98.0165 60.984 98.0149 60.984C98.0132 60.984 98.0115 60.984 98.0099 60.984C98.0082 60.984 98.0065 60.984 98.0048 60.984C98.0032 60.984 98.0015 60.984 97.9998 60.984C97.9982 60.984 97.9965 60.984 97.9948 60.984C97.9932 60.984 97.9915 60.984 97.9898 60.984C97.9881 60.984 97.9865 60.984 97.9848 60.984C97.9831 60.984 97.9815 60.984 97.9798 60.984C97.9781 60.984 97.9764 60.984 97.9748 60.984C97.9731 60.984 97.9714 60.984 97.9698 60.984C97.9681 60.984 97.9664 60.984 97.9647 60.984C97.9631 60.984 97.9614 60.984 97.9597 60.984C97.9581 60.984 97.9564 60.984 97.9547 60.984C97.953 60.984 97.9514 60.984 97.9497 60.984C97.948 60.984 97.9464 60.984 97.9447 60.984C97.943 60.984 97.9413 60.984 97.9397 60.984C97.938 60.984 97.9363 60.984 97.9346 60.984C97.933 60.984 97.9313 60.984 97.9296 60.984C97.928 60.984 97.9263 60.984 97.9246 60.984C97.9229 60.984 97.9213 60.984 97.9196 60.984C97.9179 60.984 97.9162 60.984 97.9146 60.984C97.9129 60.984 97.9112 60.984 97.9095 60.984C97.9079 60.984 97.9062 60.984 97.9045 60.984C97.9028 60.984 97.9012 60.984 97.8995 60.984C97.8978 60.984 97.8961 60.984 97.8945 60.984C97.8928 60.984 97.8911 60.984 97.8894 60.984C97.8878 60.984 97.8861 60.984 97.8844 60.984C97.8827 60.984 97.8811 60.984 97.8794 60.984C97.8777 60.984 97.876 60.984 97.8744 60.984C97.8727 60.984 97.871 60.984 97.8693 60.984C97.8677 60.984 97.866 60.984 97.8643 60.984C97.8626 60.984 97.861 60.984 97.8593 60.984C97.8576 60.984 97.8559 60.984 97.8542 60.984C97.8526 60.984 97.8509 60.984 97.8492 60.984C97.8475 60.984 97.8459 60.984 97.8442 60.984C97.8425 60.984 97.8408 60.984 97.8391 60.984C97.8375 60.984 97.8358 60.984 97.8341 60.984C97.8324 60.984 97.8308 60.984 97.8291 60.984C97.8274 60.984 97.8257 60.984 97.824 60.984C97.8224 60.984 97.8207 60.984 97.819 60.984C97.8173 60.984 97.8157 60.984 97.814 60.984C97.8123 60.984 97.8106 60.984 97.8089 60.984C97.8073 60.984 97.8056 60.984 97.8039 60.984C97.8022 60.984 97.8005 60.984 97.7989 60.984C97.7972 60.984 97.7955 60.984 97.7938 60.984C97.7921 60.984 97.7905 60.984 97.7888 60.984C97.7871 60.984 97.7854 60.984 97.7837 60.984C97.7821 60.984 97.7804 60.984 97.7787 60.984C97.777 60.984 97.7753 60.984 97.7737 60.984C97.772 60.984 97.7703 60.984 97.7686 60.984C97.7669 60.984 97.7652 60.984 97.7636 60.984C97.7619 60.984 97.7602 60.984 97.7585 60.984C97.7568 60.984 97.7552 60.984 97.7535 60.984C97.7518 60.984 97.7501 60.984 97.7484 60.984C97.7467 60.984 97.7451 60.984 97.7434 60.984C97.7417 60.984 97.74 60.984 97.7383 60.984C97.7367 60.984 97.735 60.984 97.7333 60.984C97.7316 60.984 97.7299 60.984 97.7282 60.984C97.7266 60.984 97.7249 60.984 97.7232 60.984C97.7215 60.984 97.7198 60.984 97.7181 60.984C97.7165 60.984 97.7148 60.984 97.7131 60.984C97.7114 60.984 97.7097 60.984 97.708 60.984C97.7064 60.984 97.7047 60.984 97.703 60.984C97.7013 60.984 97.6996 60.984 97.6979 60.984C97.6962 60.984 97.6946 60.984 97.6929 60.984C97.6912 60.984 97.6895 60.984 97.6878 60.984C97.6861 60.984 97.6845 60.984 97.6828 60.984C97.6811 60.984 97.6794 60.984 97.6777 60.984C97.676 60.984 97.6743 60.984 97.6727 60.984C97.671 60.984 97.6693 60.984 97.6676 60.984C97.6659 60.984 97.6642 60.984 97.6625 60.984C97.6609 60.984 97.6592 60.984 97.6575 60.984C97.6558 60.984 97.6541 60.984 97.6524 60.984C97.6507 60.984 97.649 60.984 97.6474 60.984C97.6457 60.984 97.644 60.984 97.6423 60.984C97.6406 60.984 97.6389 60.984 97.6372 60.984C97.6355 60.984 97.6339 60.984 97.6322 60.984C97.6305 60.984 97.6288 60.984 97.6271 60.984C97.6254 60.984 97.6237 60.984 97.622 60.984C97.6204 60.984 97.6187 60.984 97.617 60.984C97.6153 60.984 97.6136 60.984 97.6119 60.984C97.6102 60.984 97.6085 60.984 97.6068 60.984C97.6052 60.984 97.6035 60.984 97.6018 60.984C97.6001 60.984 97.5984 60.984 97.5967 60.984C97.595 60.984 97.5933 60.984 97.5916 60.984C97.59 60.984 97.5883 60.984 97.5866 60.984C97.5849 60.984 97.5832 60.984 97.5815 60.984C97.5798 60.984 97.5781 60.984 97.5764 60.984C97.5747 60.984 97.573 60.984 97.5714 60.984C97.5697 60.984 97.568 60.984 97.5663 60.984C97.5646 60.984 97.5629 60.984 97.5612 60.984C97.5595 60.984 97.5578 60.984 97.5561 60.984C97.5544 60.984 97.5528 60.984 97.5511 60.984C97.5494 60.984 97.5477 60.984 97.546 60.984C97.5443 60.984 97.5426 60.984 97.5409 60.984C97.5392 60.984 97.5375 60.984 97.5358 60.984C97.5341 60.984 97.5325 60.984 97.5308 60.984C97.5291 60.984 97.5274 60.984 97.5257 60.984C97.524 60.984 97.5223 60.984 97.5206 60.984C97.5189 60.984 97.5172 60.984 97.5155 60.984C97.5138 60.984 97.5121 60.984 97.5104 60.984C97.5087 60.984 97.5071 60.984 97.5054 60.984C97.5037 60.984 97.502 60.984 97.5003 60.984C97.4986 60.984 97.4969 60.984 97.4952 60.984C97.4935 60.984 97.4918 60.984 97.4901 60.984C97.4884 60.984 97.4867 60.984 97.485 60.984C97.4833 60.984 97.4816 60.984 97.4799 60.984C97.4782 60.984 97.4766 60.984 97.4749 60.984C97.4732 60.984 97.4715 60.984 97.4698 60.984C97.4681 60.984 97.4664 60.984 97.4647 60.984C97.463 60.984 97.4613 60.984 97.4596 60.984C97.4579 60.984 97.4562 60.984 97.4545 60.984C97.4528 60.984 97.4511 60.984 97.4494 60.984C97.4477 60.984 97.446 60.984 97.4443 60.984C97.4426 60.984 97.4409 60.984 97.4392 60.984C97.4375 60.984 97.4358 60.984 97.4341 60.984C97.4324 60.984 97.4308 60.984 97.4291 60.984C97.4274 60.984 97.4257 60.984 97.424 60.984C97.4223 60.984 97.4206 60.984 97.4189 60.984C97.4172 60.984 97.4155 60.984 97.4138 60.984C97.4121 60.984 97.4104 60.984 97.4087 60.984C97.407 60.984 97.4053 60.984 97.4036 60.984C97.4019 60.984 97.4002 60.984 97.3985 60.984C97.3968 60.984 97.3951 60.984 97.3934 60.984C97.3917 60.984 97.39 60.984 97.3883 60.984C97.3866 60.984 97.3849 60.984 97.3832 60.984C97.3815 60.984 97.3798 60.984 97.3781 60.984C97.3764 60.984 97.3747 60.984 97.373 60.984C97.3713 60.984 97.3696 60.984 97.3679 60.984C97.3662 60.984 97.3645 60.984 97.3628 60.984C97.3611 60.984 97.3594 60.984 97.3577 60.984C97.356 60.984 97.3543 60.984 97.3526 60.984C97.3509 60.984 97.3492 60.984 97.3475 60.984C97.3458 60.984 97.3441 60.984 97.3424 60.984C97.3407 60.984 97.339 60.984 97.3373 60.984C97.3356 60.984 97.3339 60.984 97.3322 60.984C97.3305 60.984 97.3288 60.984 97.3271 60.984C97.3254 60.984 97.3237 60.984 97.322 60.984C97.3202 60.984 97.3185 60.984 97.3168 60.984C97.3151 60.984 97.3134 60.984 97.3117 60.984C97.31 60.984 97.3083 60.984 97.3066 60.984C97.3049 60.984 97.3032 60.984 97.3015 60.984C97.2998 60.984 97.2981 60.984 97.2964 60.984C97.2947 60.984 97.293 60.984 97.2913 60.984C97.2896 60.984 97.2879 60.984 97.2862 60.984C97.2845 60.984 97.2828 60.984 97.2811 60.984C97.2794 60.984 97.2777 60.984 97.2759 60.984C97.2742 60.984 97.2725 60.984 97.2708 60.984C97.2691 60.984 97.2674 60.984 97.2657 60.984C97.264 60.984 97.2623 60.984 97.2606 60.984C97.2589 60.984 97.2572 60.984 97.2555 60.984C97.2538 60.984 97.2521 60.984 97.2504 60.984C97.2487 60.984 97.247 60.984 97.2452 60.984C97.2435 60.984 97.2418 60.984 97.2401 60.984C97.2384 60.984 97.2367 60.984 97.235 60.984C97.2333 60.984 97.2316 60.984 97.2299 60.984C97.2282 60.984 97.2265 60.984 97.2248 60.984C97.2231 60.984 97.2214 60.984 97.2196 60.984C97.2179 60.984 97.2162 60.984 97.2145 60.984C97.2128 60.984 97.2111 60.984 97.2094 60.984C97.2077 60.984 97.206 60.984 97.2043 60.984C97.2026 60.984 97.2009 60.984 97.1991 60.984C97.1974 60.984 97.1957 60.984 97.194 60.984C97.1923 60.984 97.1906 60.984 97.1889 60.984C97.1872 60.984 97.1855 60.984 97.1838 60.984C97.1821 60.984 97.1804 60.984 97.1786 60.984C97.1769 60.984 97.1752 60.984 97.1735 60.984C97.1718 60.984 97.1701 60.984 97.1684 60.984C97.1667 60.984 97.165 60.984 97.1633 60.984C97.1615 60.984 97.1598 60.984 97.1581 60.984C97.1564 60.984 97.1547 60.984 97.153 60.984C97.1513 60.984 97.1496 60.984 97.1479 60.984C97.1461 60.984 97.1444 60.984 97.1427 60.984C97.141 60.984 97.1393 60.984 97.1376 60.984C97.1359 60.984 97.1342 60.984 97.1325 60.984C97.1307 60.984 97.129 60.984 97.1273 60.984C97.1256 60.984 97.1239 60.984 97.1222 60.984C97.1205 60.984 97.1188 60.984 97.117 60.984C97.1153 60.984 97.1136 60.984 97.1119 60.984C97.1102 60.984 97.1085 60.984 97.1068 60.984C97.1051 60.984 97.1033 60.984 97.1016 60.984C97.0999 60.984 97.0982 60.984 97.0965 60.984C97.0948 60.984 97.0931 60.984 97.0914 60.984C97.0896 60.984 97.0879 60.984 97.0862 60.984C97.0845 60.984 97.0828 60.984 97.0811 60.984C97.0794 60.984 97.0776 60.984 97.0759 60.984C97.0742 60.984 97.0725 60.984 97.0708 60.984C97.0691 60.984 97.0674 60.984 97.0656 60.984C97.0639 60.984 97.0622 60.984 97.0605 60.984C97.0588 60.984 97.0571 60.984 97.0553 60.984C97.0536 60.984 97.0519 60.984 97.0502 60.984C97.0485 60.984 97.0468 60.984 97.0451 60.984C97.0433 60.984 97.0416 60.984 97.0399 60.984C97.0382 60.984 97.0365 60.984 97.0348 60.984C97.033 60.984 97.0313 60.984 97.0296 60.984C97.0279 60.984 97.0262 60.984 97.0245 60.984C97.0227 60.984 97.021 60.984 97.0193 60.984C97.0176 60.984 97.0159 60.984 97.0142 60.984C97.0124 60.984 97.0107 60.984 97.009 60.984C97.0073 60.984 97.0056 60.984 97.0039 60.984C97.0021 60.984 97.0004 60.984 96.9987 60.984C96.997 60.984 96.9953 60.984 96.9935 60.984C96.9918 60.984 96.9901 60.984 96.9884 60.984C96.9867 60.984 96.985 60.984 96.9832 60.984C96.9815 60.984 96.9798 60.984 96.9781 60.984C96.9764 60.984 96.9746 60.984 96.9729 60.984C96.9712 60.984 96.9695 60.984 96.9678 60.984C96.966 60.984 96.9643 60.984 96.9626 60.984C96.9609 60.984 96.9592 60.984 96.9574 60.984C96.9557 60.984 96.954 60.984 96.9523 60.984C96.9506 60.984 96.9488 60.984 96.9471 60.984C96.9454 60.984 96.9437 60.984 96.942 60.984C96.9402 60.984 96.9385 60.984 96.9368 60.984C96.9351 60.984 96.9334 60.984 96.9316 60.984C96.9299 60.984 96.9282 60.984 96.9265 60.984C96.9247 60.984 96.923 60.984 96.9213 60.984C96.9196 60.984 96.9179 60.984 96.9161 60.984C96.9144 60.984 96.9127 60.984 96.911 60.984C96.9093 60.984 96.9075 60.984 96.9058 60.984C96.9041 60.984 96.9024 60.984 96.9006 60.984C96.8989 60.984 96.8972 60.984 96.8955 60.984C96.8937 60.984 96.892 60.984 96.8903 60.984C96.8886 60.984 96.8869 60.984 96.8851 60.984C96.8834 60.984 96.8817 60.984 96.88 60.984C96.8782 60.984 96.8765 60.984 96.8748 60.984C96.8731 60.984 96.8713 60.984 96.8696 60.984C96.8679 60.984 96.8662 60.984 96.8644 60.984C96.8627 60.984 96.861 60.984 96.8593 60.984C96.8575 60.984 96.8558 60.984 96.8541 60.984C96.8524 60.984 96.8506 60.984 96.8489 60.984C96.8472 60.984 96.8455 60.984 96.8437 60.984C96.842 60.984 96.8403 60.984 96.8386 60.984C96.8368 60.984 96.8351 60.984 96.8334 60.984C96.8317 60.984 96.8299 60.984 96.8282 60.984C96.8265 60.984 96.8248 60.984 96.823 60.984C96.8213 60.984 96.8196 60.984 96.8179 60.984C96.8161 60.984 96.8144 60.984 96.8127 60.984C96.811 60.984 96.8092 60.984 96.8075 60.984C96.8058 60.984 96.804 60.984 96.8023 60.984C96.8006 60.984 96.7989 60.984 96.7971 60.984C96.7954 60.984 96.7937 60.984 96.792 60.984C96.7902 60.984 96.7885 60.984 96.7868 60.984C96.785 60.984 96.7833 60.984 96.7816 60.984C96.7799 60.984 96.7781 60.984 96.7764 60.984C96.7747 60.984 96.7729 60.984 96.7712 60.984C96.7695 60.984 96.7678 60.984 96.766 60.984C96.7643 60.984 96.7626 60.984 96.7608 60.984C96.7591 60.984 96.7574 60.984 96.7556 60.984C96.7539 60.984 96.7522 60.984 96.7505 60.984C96.7487 60.984 96.747 60.984 96.7453 60.984C96.7435 60.984 96.7418 60.984 96.7401 60.984C96.7384 60.984 96.7366 60.984 96.7349 60.984C96.7332 60.984 96.7314 60.984 96.7297 60.984C96.728 60.984 96.7262 60.984 96.7245 60.984C96.7228 60.984 96.721 60.984 96.7193 60.984C96.7176 60.984 96.7158 60.984 96.7141 60.984C96.7124 60.984 96.7107 60.984 96.7089 60.984C96.7072 60.984 96.7055 60.984 96.7037 60.984C96.702 60.984 96.7003 60.984 96.6985 60.984C96.6968 60.984 96.6951 60.984 96.6933 60.984C96.6916 60.984 96.6899 60.984 96.6881 60.984C96.6864 60.984 96.6847 60.984 96.6829 60.984C96.6812 60.984 96.6795 60.984 96.6777 60.984C96.676 60.984 96.6743 60.984 96.6725 60.984C96.6708 60.984 96.6691 60.984 96.6673 60.984C96.6656 60.984 96.6639 60.984 96.6621 60.984C96.6604 60.984 96.6587 60.984 96.6569 60.984C96.6552 60.984 96.6535 60.984 96.6517 60.984C96.65 60.984 96.6483 60.984 96.6465 60.984C96.6448 60.984 96.6431 60.984 96.6413 60.984C96.6396 60.984 96.6379 60.984 96.6361 60.984C96.6344 60.984 96.6327 60.984 96.6309 60.984C96.6292 60.984 96.6274 60.984 96.6257 60.984C96.624 60.984 96.6222 60.984 96.6205 60.984C96.6188 60.984 96.617 60.984 96.6153 60.984C96.6136 60.984 96.6118 60.984 96.6101 60.984C96.6083 60.984 96.6066 60.984 96.6049 60.984C96.6031 60.984 96.6014 60.984 96.5997 60.984C96.5979 60.984 96.5962 60.984 96.5945 60.984C96.5927 60.984 96.591 60.984 96.5892 60.984C96.5875 60.984 96.5858 60.984 96.584 60.984C96.5823 60.984 96.5806 60.984 96.5788 60.984C96.5771 60.984 96.5753 60.984 96.5736 60.984C96.5719 60.984 96.5701 60.984 96.5684 60.984C96.5667 60.984 96.5649 60.984 96.5632 60.984C96.5614 60.984 96.5597 60.984 96.558 60.984C96.5562 60.984 96.5545 60.984 96.5527 60.984C96.551 60.984 96.5493 60.984 96.5475 60.984C96.5458 60.984 96.544 60.984 96.5423 60.984C96.5406 60.984 96.5388 60.984 96.5371 60.984C96.5353 60.984 96.5336 60.984 96.5319 60.984C96.5301 60.984 96.5284 60.984 96.5266 60.984C96.5249 60.984 96.5232 60.984 96.5214 60.984C96.5197 60.984 96.5179 60.984 96.5162 60.984C96.5145 60.984 96.5127 60.984 96.511 60.984C96.5092 60.984 96.5075 60.984 96.5058 60.984C96.504 60.984 96.5023 60.984 96.5005 60.984C96.4988 60.984 96.4971 60.984 96.4953 60.984C96.4936 60.984 96.4918 60.984 96.4901 60.984C96.4883 60.984 96.4866 60.984 96.4849 60.984C96.4831 60.984 96.4814 60.984 96.4796 60.984C96.4779 60.984 96.4761 60.984 96.4744 60.984C96.4727 60.984 96.4709 60.984 96.4692 60.984C96.4674 60.984 96.4657 60.984 96.4639 60.984C96.4622 60.984 96.4605 60.984 96.4587 60.984C96.457 60.984 96.4552 60.984 96.4535 60.984C96.4517 60.984 96.45 60.984 96.4483 60.984C96.4465 60.984 96.4448 60.984 96.443 60.984C96.4413 60.984 96.4395 60.984 96.4378 60.984C96.436 60.984 96.4343 60.984 96.4326 60.984C96.4308 60.984 96.4291 60.984 96.4273 60.984C96.4256 60.984 96.4238 60.984 96.4221 60.984C96.4203 60.984 96.4186 60.984 96.4169 60.984C96.4151 60.984 96.4134 60.984 96.4116 60.984C96.4099 60.984 96.4081 60.984 96.4064 60.984C96.4046 60.984 96.4029 60.984 96.4011 60.984C96.3994 60.984 96.3976 60.984 96.3959 60.984C96.3942 60.984 96.3924 60.984 96.3907 60.984C96.3889 60.984 96.3872 60.984 96.3854 60.984C96.3837 60.984 96.3819 60.984 96.3802 60.984C96.3784 60.984 96.3767 60.984 96.3749 60.984C96.3732 60.984 96.3714 60.984 96.3697 60.984C96.3679 60.984 96.3662 60.984 96.3645 60.984C96.3627 60.984 96.361 60.984 96.3592 60.984C96.3575 60.984 96.3557 60.984 96.354 60.984C96.3522 60.984 96.3505 60.984 96.3487 60.984C96.347 60.984 96.3452 60.984 96.3435 60.984C96.3417 60.984 96.34 60.984 96.3382 60.984C96.3365 60.984 96.3347 60.984 96.333 60.984C96.3312 60.984 96.3295 60.984 96.3277 60.984C96.326 60.984 96.3242 60.984 96.3225 60.984C96.3207 60.984 96.319 60.984 96.3172 60.984V68.984C96.319 68.984 96.3207 68.984 96.3225 68.984C96.3242 68.984 96.326 68.984 96.3277 68.984C96.3295 68.984 96.3312 68.984 96.333 68.984C96.3347 68.984 96.3365 68.984 96.3382 68.984C96.34 68.984 96.3417 68.984 96.3435 68.984C96.3452 68.984 96.347 68.984 96.3487 68.984C96.3505 68.984 96.3522 68.984 96.354 68.984C96.3557 68.984 96.3575 68.984 96.3592 68.984C96.361 68.984 96.3627 68.984 96.3645 68.984C96.3662 68.984 96.3679 68.984 96.3697 68.984C96.3714 68.984 96.3732 68.984 96.3749 68.984C96.3767 68.984 96.3784 68.984 96.3802 68.984C96.3819 68.984 96.3837 68.984 96.3854 68.984C96.3872 68.984 96.3889 68.984 96.3907 68.984C96.3924 68.984 96.3942 68.984 96.3959 68.984C96.3976 68.984 96.3994 68.984 96.4011 68.984C96.4029 68.984 96.4046 68.984 96.4064 68.984C96.4081 68.984 96.4099 68.984 96.4116 68.984C96.4134 68.984 96.4151 68.984 96.4169 68.984C96.4186 68.984 96.4203 68.984 96.4221 68.984C96.4238 68.984 96.4256 68.984 96.4273 68.984C96.4291 68.984 96.4308 68.984 96.4326 68.984C96.4343 68.984 96.436 68.984 96.4378 68.984C96.4395 68.984 96.4413 68.984 96.443 68.984C96.4448 68.984 96.4465 68.984 96.4483 68.984C96.45 68.984 96.4517 68.984 96.4535 68.984C96.4552 68.984 96.457 68.984 96.4587 68.984C96.4605 68.984 96.4622 68.984 96.4639 68.984C96.4657 68.984 96.4674 68.984 96.4692 68.984C96.4709 68.984 96.4727 68.984 96.4744 68.984C96.4761 68.984 96.4779 68.984 96.4796 68.984C96.4814 68.984 96.4831 68.984 96.4849 68.984C96.4866 68.984 96.4883 68.984 96.4901 68.984C96.4918 68.984 96.4936 68.984 96.4953 68.984C96.4971 68.984 96.4988 68.984 96.5005 68.984C96.5023 68.984 96.504 68.984 96.5058 68.984C96.5075 68.984 96.5092 68.984 96.511 68.984C96.5127 68.984 96.5145 68.984 96.5162 68.984C96.5179 68.984 96.5197 68.984 96.5214 68.984C96.5232 68.984 96.5249 68.984 96.5266 68.984C96.5284 68.984 96.5301 68.984 96.5319 68.984C96.5336 68.984 96.5353 68.984 96.5371 68.984C96.5388 68.984 96.5406 68.984 96.5423 68.984C96.544 68.984 96.5458 68.984 96.5475 68.984C96.5493 68.984 96.551 68.984 96.5527 68.984C96.5545 68.984 96.5562 68.984 96.558 68.984C96.5597 68.984 96.5614 68.984 96.5632 68.984C96.5649 68.984 96.5667 68.984 96.5684 68.984C96.5701 68.984 96.5719 68.984 96.5736 68.984C96.5753 68.984 96.5771 68.984 96.5788 68.984C96.5806 68.984 96.5823 68.984 96.584 68.984C96.5858 68.984 96.5875 68.984 96.5892 68.984C96.591 68.984 96.5927 68.984 96.5945 68.984C96.5962 68.984 96.5979 68.984 96.5997 68.984C96.6014 68.984 96.6031 68.984 96.6049 68.984C96.6066 68.984 96.6083 68.984 96.6101 68.984C96.6118 68.984 96.6136 68.984 96.6153 68.984C96.617 68.984 96.6188 68.984 96.6205 68.984C96.6222 68.984 96.624 68.984 96.6257 68.984C96.6274 68.984 96.6292 68.984 96.6309 68.984C96.6327 68.984 96.6344 68.984 96.6361 68.984C96.6379 68.984 96.6396 68.984 96.6413 68.984C96.6431 68.984 96.6448 68.984 96.6465 68.984C96.6483 68.984 96.65 68.984 96.6517 68.984C96.6535 68.984 96.6552 68.984 96.6569 68.984C96.6587 68.984 96.6604 68.984 96.6621 68.984C96.6639 68.984 96.6656 68.984 96.6673 68.984C96.6691 68.984 96.6708 68.984 96.6725 68.984C96.6743 68.984 96.676 68.984 96.6777 68.984C96.6795 68.984 96.6812 68.984 96.6829 68.984C96.6847 68.984 96.6864 68.984 96.6881 68.984C96.6899 68.984 96.6916 68.984 96.6933 68.984C96.6951 68.984 96.6968 68.984 96.6985 68.984C96.7003 68.984 96.702 68.984 96.7037 68.984C96.7055 68.984 96.7072 68.984 96.7089 68.984C96.7107 68.984 96.7124 68.984 96.7141 68.984C96.7158 68.984 96.7176 68.984 96.7193 68.984C96.721 68.984 96.7228 68.984 96.7245 68.984C96.7262 68.984 96.728 68.984 96.7297 68.984C96.7314 68.984 96.7332 68.984 96.7349 68.984C96.7366 68.984 96.7384 68.984 96.7401 68.984C96.7418 68.984 96.7435 68.984 96.7453 68.984C96.747 68.984 96.7487 68.984 96.7505 68.984C96.7522 68.984 96.7539 68.984 96.7556 68.984C96.7574 68.984 96.7591 68.984 96.7608 68.984C96.7626 68.984 96.7643 68.984 96.766 68.984C96.7678 68.984 96.7695 68.984 96.7712 68.984C96.7729 68.984 96.7747 68.984 96.7764 68.984C96.7781 68.984 96.7799 68.984 96.7816 68.984C96.7833 68.984 96.785 68.984 96.7868 68.984C96.7885 68.984 96.7902 68.984 96.792 68.984C96.7937 68.984 96.7954 68.984 96.7971 68.984C96.7989 68.984 96.8006 68.984 96.8023 68.984C96.804 68.984 96.8058 68.984 96.8075 68.984C96.8092 68.984 96.811 68.984 96.8127 68.984C96.8144 68.984 96.8161 68.984 96.8179 68.984C96.8196 68.984 96.8213 68.984 96.823 68.984C96.8248 68.984 96.8265 68.984 96.8282 68.984C96.8299 68.984 96.8317 68.984 96.8334 68.984C96.8351 68.984 96.8368 68.984 96.8386 68.984C96.8403 68.984 96.842 68.984 96.8437 68.984C96.8455 68.984 96.8472 68.984 96.8489 68.984C96.8506 68.984 96.8524 68.984 96.8541 68.984C96.8558 68.984 96.8575 68.984 96.8593 68.984C96.861 68.984 96.8627 68.984 96.8644 68.984C96.8662 68.984 96.8679 68.984 96.8696 68.984C96.8713 68.984 96.8731 68.984 96.8748 68.984C96.8765 68.984 96.8782 68.984 96.88 68.984C96.8817 68.984 96.8834 68.984 96.8851 68.984C96.8869 68.984 96.8886 68.984 96.8903 68.984C96.892 68.984 96.8937 68.984 96.8955 68.984C96.8972 68.984 96.8989 68.984 96.9006 68.984C96.9024 68.984 96.9041 68.984 96.9058 68.984C96.9075 68.984 96.9093 68.984 96.911 68.984C96.9127 68.984 96.9144 68.984 96.9161 68.984C96.9179 68.984 96.9196 68.984 96.9213 68.984C96.923 68.984 96.9247 68.984 96.9265 68.984C96.9282 68.984 96.9299 68.984 96.9316 68.984C96.9334 68.984 96.9351 68.984 96.9368 68.984C96.9385 68.984 96.9402 68.984 96.942 68.984C96.9437 68.984 96.9454 68.984 96.9471 68.984C96.9488 68.984 96.9506 68.984 96.9523 68.984C96.954 68.984 96.9557 68.984 96.9574 68.984C96.9592 68.984 96.9609 68.984 96.9626 68.984C96.9643 68.984 96.966 68.984 96.9678 68.984C96.9695 68.984 96.9712 68.984 96.9729 68.984C96.9746 68.984 96.9764 68.984 96.9781 68.984C96.9798 68.984 96.9815 68.984 96.9832 68.984C96.985 68.984 96.9867 68.984 96.9884 68.984C96.9901 68.984 96.9918 68.984 96.9935 68.984C96.9953 68.984 96.997 68.984 96.9987 68.984C97.0004 68.984 97.0021 68.984 97.0039 68.984C97.0056 68.984 97.0073 68.984 97.009 68.984C97.0107 68.984 97.0124 68.984 97.0142 68.984C97.0159 68.984 97.0176 68.984 97.0193 68.984C97.021 68.984 97.0227 68.984 97.0245 68.984C97.0262 68.984 97.0279 68.984 97.0296 68.984C97.0313 68.984 97.033 68.984 97.0348 68.984C97.0365 68.984 97.0382 68.984 97.0399 68.984C97.0416 68.984 97.0433 68.984 97.0451 68.984C97.0468 68.984 97.0485 68.984 97.0502 68.984C97.0519 68.984 97.0536 68.984 97.0553 68.984C97.0571 68.984 97.0588 68.984 97.0605 68.984C97.0622 68.984 97.0639 68.984 97.0656 68.984C97.0674 68.984 97.0691 68.984 97.0708 68.984C97.0725 68.984 97.0742 68.984 97.0759 68.984C97.0776 68.984 97.0794 68.984 97.0811 68.984C97.0828 68.984 97.0845 68.984 97.0862 68.984C97.0879 68.984 97.0896 68.984 97.0914 68.984C97.0931 68.984 97.0948 68.984 97.0965 68.984C97.0982 68.984 97.0999 68.984 97.1016 68.984C97.1033 68.984 97.1051 68.984 97.1068 68.984C97.1085 68.984 97.1102 68.984 97.1119 68.984C97.1136 68.984 97.1153 68.984 97.117 68.984C97.1188 68.984 97.1205 68.984 97.1222 68.984C97.1239 68.984 97.1256 68.984 97.1273 68.984C97.129 68.984 97.1307 68.984 97.1325 68.984C97.1342 68.984 97.1359 68.984 97.1376 68.984C97.1393 68.984 97.141 68.984 97.1427 68.984C97.1444 68.984 97.1461 68.984 97.1479 68.984C97.1496 68.984 97.1513 68.984 97.153 68.984C97.1547 68.984 97.1564 68.984 97.1581 68.984C97.1598 68.984 97.1615 68.984 97.1633 68.984C97.165 68.984 97.1667 68.984 97.1684 68.984C97.1701 68.984 97.1718 68.984 97.1735 68.984C97.1752 68.984 97.1769 68.984 97.1786 68.984C97.1804 68.984 97.1821 68.984 97.1838 68.984C97.1855 68.984 97.1872 68.984 97.1889 68.984C97.1906 68.984 97.1923 68.984 97.194 68.984C97.1957 68.984 97.1974 68.984 97.1991 68.984C97.2009 68.984 97.2026 68.984 97.2043 68.984C97.206 68.984 97.2077 68.984 97.2094 68.984C97.2111 68.984 97.2128 68.984 97.2145 68.984C97.2162 68.984 97.2179 68.984 97.2196 68.984C97.2214 68.984 97.2231 68.984 97.2248 68.984C97.2265 68.984 97.2282 68.984 97.2299 68.984C97.2316 68.984 97.2333 68.984 97.235 68.984C97.2367 68.984 97.2384 68.984 97.2401 68.984C97.2418 68.984 97.2435 68.984 97.2452 68.984C97.247 68.984 97.2487 68.984 97.2504 68.984C97.2521 68.984 97.2538 68.984 97.2555 68.984C97.2572 68.984 97.2589 68.984 97.2606 68.984C97.2623 68.984 97.264 68.984 97.2657 68.984C97.2674 68.984 97.2691 68.984 97.2708 68.984C97.2725 68.984 97.2742 68.984 97.2759 68.984C97.2777 68.984 97.2794 68.984 97.2811 68.984C97.2828 68.984 97.2845 68.984 97.2862 68.984C97.2879 68.984 97.2896 68.984 97.2913 68.984C97.293 68.984 97.2947 68.984 97.2964 68.984C97.2981 68.984 97.2998 68.984 97.3015 68.984C97.3032 68.984 97.3049 68.984 97.3066 68.984C97.3083 68.984 97.31 68.984 97.3117 68.984C97.3134 68.984 97.3151 68.984 97.3168 68.984C97.3185 68.984 97.3202 68.984 97.322 68.984C97.3237 68.984 97.3254 68.984 97.3271 68.984C97.3288 68.984 97.3305 68.984 97.3322 68.984C97.3339 68.984 97.3356 68.984 97.3373 68.984C97.339 68.984 97.3407 68.984 97.3424 68.984C97.3441 68.984 97.3458 68.984 97.3475 68.984C97.3492 68.984 97.3509 68.984 97.3526 68.984C97.3543 68.984 97.356 68.984 97.3577 68.984C97.3594 68.984 97.3611 68.984 97.3628 68.984C97.3645 68.984 97.3662 68.984 97.3679 68.984C97.3696 68.984 97.3713 68.984 97.373 68.984C97.3747 68.984 97.3764 68.984 97.3781 68.984C97.3798 68.984 97.3815 68.984 97.3832 68.984C97.3849 68.984 97.3866 68.984 97.3883 68.984C97.39 68.984 97.3917 68.984 97.3934 68.984C97.3951 68.984 97.3968 68.984 97.3985 68.984C97.4002 68.984 97.4019 68.984 97.4036 68.984C97.4053 68.984 97.407 68.984 97.4087 68.984C97.4104 68.984 97.4121 68.984 97.4138 68.984C97.4155 68.984 97.4172 68.984 97.4189 68.984C97.4206 68.984 97.4223 68.984 97.424 68.984C97.4257 68.984 97.4274 68.984 97.4291 68.984C97.4308 68.984 97.4324 68.984 97.4341 68.984C97.4358 68.984 97.4375 68.984 97.4392 68.984C97.4409 68.984 97.4426 68.984 97.4443 68.984C97.446 68.984 97.4477 68.984 97.4494 68.984C97.4511 68.984 97.4528 68.984 97.4545 68.984C97.4562 68.984 97.4579 68.984 97.4596 68.984C97.4613 68.984 97.463 68.984 97.4647 68.984C97.4664 68.984 97.4681 68.984 97.4698 68.984C97.4715 68.984 97.4732 68.984 97.4749 68.984C97.4766 68.984 97.4782 68.984 97.4799 68.984C97.4816 68.984 97.4833 68.984 97.485 68.984C97.4867 68.984 97.4884 68.984 97.4901 68.984C97.4918 68.984 97.4935 68.984 97.4952 68.984C97.4969 68.984 97.4986 68.984 97.5003 68.984C97.502 68.984 97.5037 68.984 97.5054 68.984C97.5071 68.984 97.5087 68.984 97.5104 68.984C97.5121 68.984 97.5138 68.984 97.5155 68.984C97.5172 68.984 97.5189 68.984 97.5206 68.984C97.5223 68.984 97.524 68.984 97.5257 68.984C97.5274 68.984 97.5291 68.984 97.5308 68.984C97.5325 68.984 97.5341 68.984 97.5358 68.984C97.5375 68.984 97.5392 68.984 97.5409 68.984C97.5426 68.984 97.5443 68.984 97.546 68.984C97.5477 68.984 97.5494 68.984 97.5511 68.984C97.5528 68.984 97.5544 68.984 97.5561 68.984C97.5578 68.984 97.5595 68.984 97.5612 68.984C97.5629 68.984 97.5646 68.984 97.5663 68.984C97.568 68.984 97.5697 68.984 97.5714 68.984C97.573 68.984 97.5747 68.984 97.5764 68.984C97.5781 68.984 97.5798 68.984 97.5815 68.984C97.5832 68.984 97.5849 68.984 97.5866 68.984C97.5883 68.984 97.59 68.984 97.5916 68.984C97.5933 68.984 97.595 68.984 97.5967 68.984C97.5984 68.984 97.6001 68.984 97.6018 68.984C97.6035 68.984 97.6052 68.984 97.6068 68.984C97.6085 68.984 97.6102 68.984 97.6119 68.984C97.6136 68.984 97.6153 68.984 97.617 68.984C97.6187 68.984 97.6204 68.984 97.622 68.984C97.6237 68.984 97.6254 68.984 97.6271 68.984C97.6288 68.984 97.6305 68.984 97.6322 68.984C97.6339 68.984 97.6355 68.984 97.6372 68.984C97.6389 68.984 97.6406 68.984 97.6423 68.984C97.644 68.984 97.6457 68.984 97.6474 68.984C97.649 68.984 97.6507 68.984 97.6524 68.984C97.6541 68.984 97.6558 68.984 97.6575 68.984C97.6592 68.984 97.6609 68.984 97.6625 68.984C97.6642 68.984 97.6659 68.984 97.6676 68.984C97.6693 68.984 97.671 68.984 97.6727 68.984C97.6743 68.984 97.676 68.984 97.6777 68.984C97.6794 68.984 97.6811 68.984 97.6828 68.984C97.6845 68.984 97.6861 68.984 97.6878 68.984C97.6895 68.984 97.6912 68.984 97.6929 68.984C97.6946 68.984 97.6962 68.984 97.6979 68.984C97.6996 68.984 97.7013 68.984 97.703 68.984C97.7047 68.984 97.7064 68.984 97.708 68.984C97.7097 68.984 97.7114 68.984 97.7131 68.984C97.7148 68.984 97.7165 68.984 97.7181 68.984C97.7198 68.984 97.7215 68.984 97.7232 68.984C97.7249 68.984 97.7266 68.984 97.7282 68.984C97.7299 68.984 97.7316 68.984 97.7333 68.984C97.735 68.984 97.7367 68.984 97.7383 68.984C97.74 68.984 97.7417 68.984 97.7434 68.984C97.7451 68.984 97.7467 68.984 97.7484 68.984C97.7501 68.984 97.7518 68.984 97.7535 68.984C97.7552 68.984 97.7568 68.984 97.7585 68.984C97.7602 68.984 97.7619 68.984 97.7636 68.984C97.7652 68.984 97.7669 68.984 97.7686 68.984C97.7703 68.984 97.772 68.984 97.7737 68.984C97.7753 68.984 97.777 68.984 97.7787 68.984C97.7804 68.984 97.7821 68.984 97.7837 68.984C97.7854 68.984 97.7871 68.984 97.7888 68.984C97.7905 68.984 97.7921 68.984 97.7938 68.984C97.7955 68.984 97.7972 68.984 97.7989 68.984C97.8005 68.984 97.8022 68.984 97.8039 68.984C97.8056 68.984 97.8073 68.984 97.8089 68.984C97.8106 68.984 97.8123 68.984 97.814 68.984C97.8157 68.984 97.8173 68.984 97.819 68.984C97.8207 68.984 97.8224 68.984 97.824 68.984C97.8257 68.984 97.8274 68.984 97.8291 68.984C97.8308 68.984 97.8324 68.984 97.8341 68.984C97.8358 68.984 97.8375 68.984 97.8391 68.984C97.8408 68.984 97.8425 68.984 97.8442 68.984C97.8459 68.984 97.8475 68.984 97.8492 68.984C97.8509 68.984 97.8526 68.984 97.8542 68.984C97.8559 68.984 97.8576 68.984 97.8593 68.984C97.861 68.984 97.8626 68.984 97.8643 68.984C97.866 68.984 97.8677 68.984 97.8693 68.984C97.871 68.984 97.8727 68.984 97.8744 68.984C97.876 68.984 97.8777 68.984 97.8794 68.984C97.8811 68.984 97.8827 68.984 97.8844 68.984C97.8861 68.984 97.8878 68.984 97.8894 68.984C97.8911 68.984 97.8928 68.984 97.8945 68.984C97.8961 68.984 97.8978 68.984 97.8995 68.984C97.9012 68.984 97.9028 68.984 97.9045 68.984C97.9062 68.984 97.9079 68.984 97.9095 68.984C97.9112 68.984 97.9129 68.984 97.9146 68.984C97.9162 68.984 97.9179 68.984 97.9196 68.984C97.9213 68.984 97.9229 68.984 97.9246 68.984C97.9263 68.984 97.928 68.984 97.9296 68.984C97.9313 68.984 97.933 68.984 97.9346 68.984C97.9363 68.984 97.938 68.984 97.9397 68.984C97.9413 68.984 97.943 68.984 97.9447 68.984C97.9464 68.984 97.948 68.984 97.9497 68.984C97.9514 68.984 97.953 68.984 97.9547 68.984C97.9564 68.984 97.9581 68.984 97.9597 68.984C97.9614 68.984 97.9631 68.984 97.9647 68.984C97.9664 68.984 97.9681 68.984 97.9698 68.984C97.9714 68.984 97.9731 68.984 97.9748 68.984C97.9764 68.984 97.9781 68.984 97.9798 68.984C97.9815 68.984 97.9831 68.984 97.9848 68.984C97.9865 68.984 97.9881 68.984 97.9898 68.984C97.9915 68.984 97.9932 68.984 97.9948 68.984C97.9965 68.984 97.9982 68.984 97.9998 68.984C98.0015 68.984 98.0032 68.984 98.0048 68.984C98.0065 68.984 98.0082 68.984 98.0099 68.984C98.0115 68.984 98.0132 68.984 98.0149 68.984C98.0165 68.984 98.0182 68.984 98.0199 68.984C98.0215 68.984 98.0232 68.984 98.0249 68.984C98.0265 68.984 98.0282 68.984 98.0299 68.984C98.0315 68.984 98.0332 68.984 98.0349 68.984C98.0366 68.984 98.0382 68.984 98.0399 68.984C98.0416 68.984 98.0432 68.984 98.0449 68.984C98.0466 68.984 98.0482 68.984 98.0499 68.984C98.0516 68.984 98.0532 68.984 98.0549 68.984C98.0566 68.984 98.0582 68.984 98.0599 68.984C98.0616 68.984 98.0632 68.984 98.0649 68.984C98.0666 68.984 98.0682 68.984 98.0699 68.984C98.0716 68.984 98.0732 68.984 98.0749 68.984C98.0766 68.984 98.0782 68.984 98.0799 68.984C98.0816 68.984 98.0832 68.984 98.0849 68.984C98.0866 68.984 98.0882 68.984 98.0899 68.984C98.0916 68.984 98.0932 68.984 98.0949 68.984C98.0966 68.984 98.0982 68.984 98.0999 68.984C98.1015 68.984 98.1032 68.984 98.1049 68.984C98.1065 68.984 98.1082 68.984 98.1099 68.984C98.1115 68.984 98.1132 68.984 98.1149 68.984C98.1165 68.984 98.1182 68.984 98.1199 68.984C98.1215 68.984 98.1232 68.984 98.1249 68.984C98.1265 68.984 98.1282 68.984 98.1298 68.984C98.1315 68.984 98.1332 68.984 98.1348 68.984C98.1365 68.984 98.1382 68.984 98.1398 68.984C98.1415 68.984 98.1431 68.984 98.1448 68.984C98.1465 68.984 98.1481 68.984 98.1498 68.984C98.1515 68.984 98.1531 68.984 98.1548 68.984C98.1564 68.984 98.1581 68.984 98.1598 68.984C98.1614 68.984 98.1631 68.984 98.1648 68.984C98.1664 68.984 98.1681 68.984 98.1697 68.984C98.1714 68.984 98.1731 68.984 98.1747 68.984C98.1764 68.984 98.1781 68.984 98.1797 68.984C98.1814 68.984 98.183 68.984 98.1847 68.984C98.1864 68.984 98.188 68.984 98.1897 68.984C98.1913 68.984 98.193 68.984 98.1947 68.984C98.1963 68.984 98.198 68.984 98.1996 68.984C98.2013 68.984 98.203 68.984 98.2046 68.984C98.2063 68.984 98.2079 68.984 98.2096 68.984C98.2113 68.984 98.2129 68.984 98.2146 68.984C98.2162 68.984 98.2179 68.984 98.2196 68.984C98.2212 68.984 98.2229 68.984 98.2245 68.984C98.2262 68.984 98.2279 68.984 98.2295 68.984C98.2312 68.984 98.2328 68.984 98.2345 68.984C98.2361 68.984 98.2378 68.984 98.2395 68.984C98.2411 68.984 98.2428 68.984 98.2444 68.984C98.2461 68.984 98.2478 68.984 98.2494 68.984C98.2511 68.984 98.2527 68.984 98.2544 68.984C98.256 68.984 98.2577 68.984 98.2594 68.984C98.261 68.984 98.2627 68.984 98.2643 68.984C98.266 68.984 98.2676 68.984 98.2693 68.984C98.271 68.984 98.2726 68.984 98.2743 68.984C98.2759 68.984 98.2776 68.984 98.2792 68.984C98.2809 68.984 98.2825 68.984 98.2842 68.984C98.2859 68.984 98.2875 68.984 98.2892 68.984C98.2908 68.984 98.2925 68.984 98.2941 68.984C98.2958 68.984 98.2974 68.984 98.2991 68.984C98.3008 68.984 98.3024 68.984 98.3041 68.984C98.3057 68.984 98.3074 68.984 98.309 68.984C98.3107 68.984 98.3123 68.984 98.314 68.984C98.3157 68.984 98.3173 68.984 98.319 68.984C98.3206 68.984 98.3223 68.984 98.3239 68.984C98.3256 68.984 98.3272 68.984 98.3289 68.984C98.3305 68.984 98.3322 68.984 98.3338 68.984C98.3355 68.984 98.3372 68.984 98.3388 68.984C98.3405 68.984 98.3421 68.984 98.3438 68.984C98.3454 68.984 98.3471 68.984 98.3487 68.984C98.3504 68.984 98.352 68.984 98.3537 68.984C98.3553 68.984 98.357 68.984 98.3586 68.984C98.3603 68.984 98.3619 68.984 98.3636 68.984C98.3652 68.984 98.3669 68.984 98.3686 68.984C98.3702 68.984 98.3719 68.984 98.3735 68.984C98.3752 68.984 98.3768 68.984 98.3785 68.984C98.3801 68.984 98.3818 68.984 98.3834 68.984C98.3851 68.984 98.3867 68.984 98.3884 68.984C98.39 68.984 98.3917 68.984 98.3933 68.984C98.395 68.984 98.3966 68.984 98.3983 68.984C98.3999 68.984 98.4016 68.984 98.4032 68.984C98.4049 68.984 98.4065 68.984 98.4082 68.984C98.4098 68.984 98.4115 68.984 98.4131 68.984C98.4148 68.984 98.4164 68.984 98.4181 68.984C98.4197 68.984 98.4214 68.984 98.423 68.984C98.4247 68.984 98.4263 68.984 98.428 68.984C98.4296 68.984 98.4313 68.984 98.4329 68.984C98.4346 68.984 98.4362 68.984 98.4379 68.984C98.4395 68.984 98.4412 68.984 98.4428 68.984C98.4445 68.984 98.4461 68.984 98.4477 68.984C98.4494 68.984 98.451 68.984 98.4527 68.984C98.4543 68.984 98.456 68.984 98.4576 68.984C98.4593 68.984 98.4609 68.984 98.4626 68.984C98.4642 68.984 98.4659 68.984 98.4675 68.984C98.4692 68.984 98.4708 68.984 98.4725 68.984C98.4741 68.984 98.4758 68.984 98.4774 68.984C98.479 68.984 98.4807 68.984 98.4823 68.984C98.484 68.984 98.4856 68.984 98.4873 68.984C98.4889 68.984 98.4906 68.984 98.4922 68.984C98.4939 68.984 98.4955 68.984 98.4971 68.984C98.4988 68.984 98.5004 68.984 98.5021 68.984C98.5037 68.984 98.5054 68.984 98.507 68.984C98.5087 68.984 98.5103 68.984 98.512 68.984C98.5136 68.984 98.5152 68.984 98.5169 68.984C98.5185 68.984 98.5202 68.984 98.5218 68.984C98.5235 68.984 98.5251 68.984 98.5268 68.984C98.5284 68.984 98.53 68.984 98.5317 68.984C98.5333 68.984 98.535 68.984 98.5366 68.984C98.5383 68.984 98.5399 68.984 98.5415 68.984C98.5432 68.984 98.5448 68.984 98.5465 68.984C98.5481 68.984 98.5498 68.984 98.5514 68.984C98.5531 68.984 98.5547 68.984 98.5563 68.984C98.558 68.984 98.5596 68.984 98.5613 68.984C98.5629 68.984 98.5645 68.984 98.5662 68.984C98.5678 68.984 98.5695 68.984 98.5711 68.984C98.5728 68.984 98.5744 68.984 98.576 68.984C98.5777 68.984 98.5793 68.984 98.581 68.984C98.5826 68.984 98.5842 68.984 98.5859 68.984C98.5875 68.984 98.5892 68.984 98.5908 68.984C98.5925 68.984 98.5941 68.984 98.5957 68.984C98.5974 68.984 98.599 68.984 98.6007 68.984C98.6023 68.984 98.6039 68.984 98.6056 68.984C98.6072 68.984 98.6089 68.984 98.6105 68.984C98.6121 68.984 98.6138 68.984 98.6154 68.984C98.6171 68.984 98.6187 68.984 98.6203 68.984C98.622 68.984 98.6236 68.984 98.6253 68.984C98.6269 68.984 98.6285 68.984 98.6302 68.984C98.6318 68.984 98.6334 68.984 98.6351 68.984C98.6367 68.984 98.6384 68.984 98.64 68.984C98.6416 68.984 98.6433 68.984 98.6449 68.984C98.6466 68.984 98.6482 68.984 98.6498 68.984C98.6515 68.984 98.6531 68.984 98.6547 68.984C98.6564 68.984 98.658 68.984 98.6597 68.984C98.6613 68.984 98.6629 68.984 98.6646 68.984C98.6662 68.984 98.6678 68.984 98.6695 68.984C98.6711 68.984 98.6728 68.984 98.6744 68.984C98.676 68.984 98.6777 68.984 98.6793 68.984C98.6809 68.984 98.6826 68.984 98.6842 68.984C98.6858 68.984 98.6875 68.984 98.6891 68.984C98.6908 68.984 98.6924 68.984 98.694 68.984C98.6957 68.984 98.6973 68.984 98.6989 68.984C98.7006 68.984 98.7022 68.984 98.7038 68.984C98.7055 68.984 98.7071 68.984 98.7087 68.984C98.7104 68.984 98.712 68.984 98.7136 68.984C98.7153 68.984 98.7169 68.984 98.7186 68.984C98.7202 68.984 98.7218 68.984 98.7235 68.984C98.7251 68.984 98.7267 68.984 98.7284 68.984C98.73 68.984 98.7316 68.984 98.7333 68.984C98.7349 68.984 98.7365 68.984 98.7382 68.984C98.7398 68.984 98.7414 68.984 98.7431 68.984C98.7447 68.984 98.7463 68.984 98.748 68.984C98.7496 68.984 98.7512 68.984 98.7529 68.984C98.7545 68.984 98.7561 68.984 98.7578 68.984C98.7594 68.984 98.761 68.984 98.7627 68.984C98.7643 68.984 98.7659 68.984 98.7676 68.984C98.7692 68.984 98.7708 68.984 98.7724 68.984C98.7741 68.984 98.7757 68.984 98.7773 68.984C98.779 68.984 98.7806 68.984 98.7822 68.984C98.7839 68.984 98.7855 68.984 98.7871 68.984C98.7888 68.984 98.7904 68.984 98.792 68.984C98.7937 68.984 98.7953 68.984 98.7969 68.984C98.7985 68.984 98.8002 68.984 98.8018 68.984C98.8034 68.984 98.8051 68.984 98.8067 68.984C98.8083 68.984 98.81 68.984 98.8116 68.984C98.8132 68.984 98.8148 68.984 98.8165 68.984C98.8181 68.984 98.8197 68.984 98.8214 68.984C98.823 68.984 98.8246 68.984 98.8263 68.984C98.8279 68.984 98.8295 68.984 98.8311 68.984C98.8328 68.984 98.8344 68.984 98.836 68.984C98.8377 68.984 98.8393 68.984 98.8409 68.984C98.8425 68.984 98.8442 68.984 98.8458 68.984C98.8474 68.984 98.8491 68.984 98.8507 68.984C98.8523 68.984 98.8539 68.984 98.8556 68.984C98.8572 68.984 98.8588 68.984 98.8604 68.984C98.8621 68.984 98.8637 68.984 98.8653 68.984C98.867 68.984 98.8686 68.984 98.8702 68.984C98.8718 68.984 98.8735 68.984 98.8751 68.984C98.8767 68.984 98.8783 68.984 98.88 68.984C98.8816 68.984 98.8832 68.984 98.8848 68.984C98.8865 68.984 98.8881 68.984 98.8897 68.984C98.8914 68.984 98.893 68.984 98.8946 68.984C98.8962 68.984 98.8979 68.984 98.8995 68.984C98.9011 68.984 98.9027 68.984 98.9044 68.984C98.906 68.984 98.9076 68.984 98.9092 68.984V60.984ZM96.3172 60.984H87.9652V68.984H96.3172V60.984ZM83.9652 64.984V91H91.9652V64.984H83.9652ZM87.9652 87H78.6532V95H87.9652V87ZM82.6532 91V25.432H74.6532V91H82.6532ZM79.6011 29.3181C81.9544 28.7441 84.6248 28.3571 87.6288 28.1768L87.1497 20.1912C83.7537 20.3949 80.6001 20.8399 77.7054 21.5459L79.6011 29.3181ZM87.702 28.1717C90.8834 27.9222 93.7531 27.8 96.3172 27.8V19.8C93.5053 19.8 90.423 19.9338 87.0765 20.1962L87.702 28.1717ZM96.3172 27.8C105.256 27.8 111.387 29.5002 115.284 32.3205L119.974 25.8395C114.143 21.6198 106.066 19.8 96.3172 19.8V27.8ZM115.304 32.3349C119.01 34.982 121.021 38.9144 121.021 44.824H129.021C129.021 36.7816 126.104 30.218 119.954 25.8251L115.304 32.3349ZM121.021 44.824C121.021 48.4831 120.057 51.3849 118.277 53.7416L124.661 58.5624C127.618 54.6471 129.021 49.9969 129.021 44.824H121.021ZM118.246 53.7837C116.531 56.1175 113.865 58.0358 109.916 59.3706L112.478 66.9494C117.617 65.2122 121.799 62.4585 124.693 58.5203L118.246 53.7837ZM97.0852 27.96C93.0809 27.96 89.8976 28.0558 87.6031 28.2644L88.3274 36.2316C90.2569 36.0562 93.1535 35.96 97.0852 35.96V27.96ZM83.9652 32.248V57.304H91.9652V32.248H83.9652ZM87.9652 61.304H94.5892V53.304H87.9652V61.304ZM94.5892 61.304C97.9175 61.304 100.967 61.1379 103.725 60.7931L102.733 52.8549C100.371 53.1501 97.661 53.304 94.5892 53.304V61.304ZM103.725 60.7931C106.611 60.4324 109.242 59.7229 111.503 58.551L107.82 51.449C106.624 52.0691 104.967 52.5756 102.733 52.8549L103.725 60.7931ZM111.45 58.5777C113.87 57.3677 115.839 55.6148 117.219 53.314L110.359 49.198C109.82 50.0972 109.036 50.8403 107.872 51.4223L111.45 58.5777ZM117.254 53.2549C118.677 50.7879 119.229 47.8515 119.229 44.728H111.229C111.229 46.9805 110.821 48.3961 110.324 49.2571L117.254 53.2549ZM119.229 44.728C119.229 41.7351 118.654 38.9167 117.254 36.4891L110.324 40.4869C110.844 41.3873 111.229 42.7289 111.229 44.728H119.229ZM117.254 36.4891C115.943 34.2162 114.125 32.3986 111.852 31.0873L107.854 38.0167C108.909 38.6254 109.716 39.4318 110.324 40.4869L117.254 36.4891ZM111.911 31.122C109.805 29.8581 107.394 29.0435 104.769 28.5935L103.417 36.4785C105.272 36.7965 106.702 37.3259 107.795 37.982L111.911 31.122ZM104.788 28.5969C102.356 28.1676 99.7849 27.96 97.0852 27.96V35.96C99.3776 35.96 101.479 36.1364 103.398 36.4751L104.788 28.5969ZM219.124 90.424L217.576 94.1119L217.576 94.1119L219.124 90.424ZM211.252 84.952L208.227 87.5686L208.245 87.5892L208.263 87.6095L211.252 84.952ZM206.644 76.6L202.813 77.7494L202.824 77.7843L202.835 77.8191L206.644 76.6ZM205.204 24.472V20.472H201.204V24.472H205.204ZM214.516 24.472L218.516 24.472V20.472L214.516 20.472V24.472ZM218.932 79.672L221.791 76.8741L221.791 76.8741L218.932 79.672ZM236.884 83.128L238.262 86.8835L238.295 86.8712L238.328 86.8583L236.884 83.128ZM241.972 79.672L239.024 76.9691L239.024 76.9691L241.972 79.672ZM245.236 73.816L249.041 75.05L249.046 75.0353L249.051 75.0205L245.236 73.816ZM246.388 24.472V20.472H242.388V24.472H246.388ZM255.7 24.472H259.7V20.472H255.7V24.472ZM254.164 76.6L250.355 75.3809L250.344 75.4157L250.333 75.4506L254.164 76.6ZM249.556 84.952L246.571 82.2895L246.567 82.2945L249.556 84.952ZM241.684 90.424L240.136 86.7361L240.122 86.7417L240.109 86.7474L241.684 90.424ZM230.452 88.44C226.502 88.44 223.276 87.829 220.673 86.7361L217.576 94.1119C221.373 95.707 225.699 96.44 230.452 96.44V88.44ZM220.673 86.7361C217.955 85.5943 215.846 84.0984 214.242 82.2945L208.263 87.6095C210.755 90.4136 213.894 92.5657 217.576 94.1119L220.673 86.7361ZM214.278 82.3354C212.608 80.4047 211.326 78.105 210.454 75.3809L202.835 77.8191C204.011 81.495 205.801 84.7633 208.227 87.5686L214.278 82.3354ZM210.476 75.4506C209.639 72.6623 209.204 69.5974 209.204 66.232H201.204C201.204 70.2906 201.73 74.1377 202.813 77.7494L210.476 75.4506ZM209.204 66.232V24.472H201.204V66.232H209.204ZM205.204 28.472H214.516V20.472H205.204V28.472ZM210.516 24.472V65.176H218.516V24.472L210.516 24.472ZM210.516 65.176C210.516 72.2918 212.071 78.38 216.074 82.4699L221.791 76.8741C219.906 74.948 218.516 71.3722 218.516 65.176H210.516ZM216.074 82.4699C219.868 86.3461 224.788 88.184 230.452 88.184V80.184C226.645 80.184 223.885 79.0139 221.791 76.8741L216.074 82.4699ZM230.452 88.184C233.217 88.184 235.837 87.7726 238.262 86.8835L235.507 79.3725C234.092 79.8914 232.424 80.184 230.452 80.184V88.184ZM238.328 86.8583C240.874 85.8729 243.088 84.3743 244.921 82.3749L239.024 76.9691C238.041 78.0417 236.863 78.8471 235.441 79.3977L238.328 86.8583ZM244.921 82.3749C246.784 80.3421 248.13 77.8587 249.041 75.05L241.432 72.582C240.807 74.5093 239.976 75.9299 239.024 76.9691L244.921 82.3749ZM249.051 75.0205C249.973 72.1009 250.388 68.7953 250.388 65.176H242.388C242.388 68.2127 242.036 70.6671 241.422 72.6115L249.051 75.0205ZM250.388 65.176V24.472H242.388V65.176H250.388ZM246.388 28.472H255.7V20.472H246.388V28.472ZM251.7 24.472V66.232H259.7V24.472H251.7ZM251.7 66.232C251.7 69.5732 251.24 72.6139 250.355 75.3809L257.974 77.8191C259.137 74.1861 259.7 70.3148 259.7 66.232H251.7ZM250.333 75.4506C249.532 78.1208 248.274 80.381 246.571 82.2895L252.542 87.6145C255.063 84.787 256.877 81.4792 257.996 77.7494L250.333 75.4506ZM246.567 82.2945C244.963 84.0984 242.854 85.5943 240.136 86.7361L243.233 94.1119C246.915 92.5657 250.054 90.4136 252.546 87.6095L246.567 82.2945ZM240.109 86.7474C237.588 87.828 234.406 88.44 230.452 88.44V96.44C235.203 96.44 239.509 95.708 243.26 94.1006L240.109 86.7474ZM301.634 81.784L297.942 83.3225L298.968 85.784H301.634V81.784ZM299.042 75.928L295.371 77.5156L295.389 77.557L295.408 77.598L299.042 75.928ZM295.682 68.248L299.341 66.6313L299.341 66.6313L295.682 68.248ZM291.746 59.8L288.107 61.4612L288.129 61.5093L288.153 61.5568L291.746 59.8ZM287.906 51.544L284.277 53.2258L284.285 53.2431L284.293 53.2602L287.906 51.544ZM284.45 44.536L280.873 46.3249L280.895 46.369L280.918 46.4126L284.45 44.536ZM281.954 39.832L285.402 37.8039L279.121 27.1267L277.971 39.4607L281.954 39.832ZM280.226 64.408L284.221 64.6121L284.221 64.6106L280.226 64.408ZM279.074 91V95H282.934L283.072 91.1428L279.074 91ZM269.954 91L265.958 90.8224L265.772 95H269.954V91ZM270.818 73.624L274.812 73.8434L274.812 73.8411L270.818 73.624ZM271.874 56.344L267.887 56.0304L267.885 56.0511L267.883 56.0719L271.874 56.344ZM273.218 39.736L269.236 39.3568L269.234 39.3803L269.232 39.4038L273.218 39.736ZM274.85 24.472V20.472H271.302L270.879 23.9954L274.85 24.472ZM283.01 24.472L286.42 22.3799L285.249 20.472H283.01V24.472ZM288.578 34.456L285.025 36.2921L285.025 36.2921L288.578 34.456ZM294.53 46.552L290.91 48.2525L290.915 48.2632L290.92 48.2739L294.53 46.552ZM300.29 59.128L296.628 60.7371L296.633 60.7474L296.637 60.7578L300.29 59.128ZM305.378 70.552L301.723 72.1766L305.378 80.4009L309.033 72.1766L305.378 70.552ZM310.466 59.128L314.119 60.7578L314.124 60.7474L314.128 60.7371L310.466 59.128ZM316.226 46.552L319.837 48.2739L319.842 48.2632L319.847 48.2525L316.226 46.552ZM322.178 34.456L318.625 32.6199L318.625 32.6199L322.178 34.456ZM327.746 24.472V20.472H325.508L324.337 22.3799L327.746 24.472ZM335.906 24.472L339.886 24.0681L339.521 20.472L335.906 20.472V24.472ZM340.802 91V95H344.997L344.798 90.8103L340.802 91ZM331.682 91L327.685 91.1428L327.823 95H331.682V91ZM330.53 64.408L326.535 64.6106L326.535 64.6121L330.53 64.408ZM328.802 39.832L332.785 39.4607L331.635 27.1267L325.354 37.8039L328.802 39.832ZM326.21 44.536L322.678 42.6594L322.655 42.703L322.633 42.7471L326.21 44.536ZM322.85 51.544L326.463 53.2602L326.471 53.2431L326.479 53.2258L322.85 51.544ZM318.914 59.8L315.306 58.0742L315.298 58.0913L315.289 58.1085L318.914 59.8ZM315.074 68.248L311.415 66.6313L311.415 66.6313L315.074 68.248ZM311.618 75.928L307.984 74.258L307.965 74.299L307.947 74.3404L311.618 75.928ZM309.122 81.784V85.784H311.789L312.815 83.3225L309.122 81.784ZM305.327 80.2455C304.661 78.648 303.775 76.6482 302.677 74.258L295.408 77.598C296.485 79.9438 297.328 81.848 297.942 83.3225L305.327 80.2455ZM302.714 74.3404C301.685 71.9612 300.561 69.3915 299.341 66.6313L292.023 69.8647C293.236 72.6085 294.352 75.1588 295.371 77.5156L302.714 74.3404ZM299.341 66.6313C298.103 63.8293 296.769 60.9665 295.34 58.0432L288.153 61.5568C289.54 64.3935 290.83 67.1627 292.023 69.8647L299.341 66.6313ZM295.385 58.1388C294.034 55.1789 292.745 52.4084 291.519 49.8278L284.293 53.2602C285.499 55.7996 286.771 58.5331 288.107 61.4612L295.385 58.1388ZM291.535 49.8622C290.296 47.1876 289.112 44.7847 287.983 42.6594L280.918 46.4126C281.965 48.3833 283.084 50.6524 284.277 53.2258L291.535 49.8622ZM288.028 42.7471C286.99 40.6718 286.111 39.0089 285.402 37.8039L278.506 41.8601C279.078 42.8311 279.862 44.3042 280.873 46.3249L288.028 42.7471ZM277.971 39.4607C277.261 47.0771 276.682 55.326 276.231 64.2054L284.221 64.6106C284.667 55.826 285.239 47.6909 285.937 40.2033L277.971 39.4607ZM276.231 64.2039C275.782 72.9928 275.397 81.8772 275.077 90.8572L283.072 91.1428C283.391 82.2028 283.774 73.3592 284.221 64.6121L276.231 64.2039ZM279.074 87H269.954V95H279.074V87ZM273.95 91.1776C274.206 85.4317 274.493 79.6537 274.812 73.8434L266.824 73.4045C266.503 79.2423 266.215 85.0483 265.958 90.8224L273.95 91.1776ZM274.812 73.8411C275.131 67.9706 275.482 62.229 275.865 56.6161L267.883 56.0719C267.498 61.723 267.145 67.5014 266.824 73.4069L274.812 73.8411ZM275.862 56.6576C276.309 50.9675 276.757 45.4376 277.204 40.0682L269.232 39.4038C268.783 44.7863 268.335 50.3285 267.887 56.0304L275.862 56.6576ZM277.2 40.1152C277.709 34.768 278.25 29.7127 278.822 24.9486L270.879 23.9954C270.298 28.8313 269.751 33.952 269.236 39.3568L277.2 40.1152ZM274.85 28.472L283.01 28.472V20.472L274.85 20.472V28.472ZM279.601 26.5641C281.265 29.2757 283.073 32.5143 285.025 36.2921L292.132 32.6199C290.116 28.7177 288.212 25.3003 286.42 22.3799L279.601 26.5641ZM285.025 36.2921C286.984 40.084 288.945 44.0706 290.91 48.2525L298.151 44.8515C296.147 40.5854 294.141 36.508 292.132 32.6199L285.025 36.2921ZM290.92 48.2739C292.886 52.3965 294.789 56.5509 296.628 60.7371L303.952 57.5189C302.08 53.2571 300.142 49.0275 298.141 44.8301L290.92 48.2739ZM296.637 60.7578C298.493 64.9164 300.188 68.7226 301.723 72.1766L309.033 68.9274C307.497 65.4694 305.8 61.6596 303.943 57.4982L296.637 60.7578ZM309.033 72.1766C310.569 68.7226 312.264 64.9164 314.119 60.7578L306.813 57.4982C304.957 61.6596 303.26 65.4694 301.723 68.9274L309.033 72.1766ZM314.128 60.7371C315.968 56.5509 317.87 52.3965 319.837 48.2739L312.616 44.8301C310.614 49.0275 308.677 53.2571 306.804 57.5189L314.128 60.7371ZM319.847 48.2525C321.811 44.0706 323.773 40.084 325.732 36.2921L318.625 32.6199C316.616 36.508 314.609 40.5854 312.606 44.8515L319.847 48.2525ZM325.732 36.2921C327.684 32.5143 329.492 29.2757 331.156 26.5641L324.337 22.3799C322.545 25.3003 320.641 28.7177 318.625 32.6199L325.732 36.2921ZM327.746 28.472H335.906V20.472H327.746V28.472ZM331.927 24.8759C334.095 46.2403 335.722 68.3447 336.807 91.1897L344.798 90.8103C343.707 67.8313 342.069 45.5837 339.886 24.0681L331.927 24.8759ZM340.802 87H331.682V95H340.802V87ZM335.68 90.8572C335.359 81.8772 334.974 72.9928 334.525 64.2039L326.535 64.6121C326.982 73.3592 327.365 82.2028 327.685 91.1428L335.68 90.8572ZM334.525 64.2054C334.075 55.326 333.495 47.0771 332.785 39.4607L324.819 40.2033C325.517 47.6909 326.09 55.826 326.535 64.6106L334.525 64.2054ZM325.354 37.8039C324.67 38.9669 323.775 40.5949 322.678 42.6594L329.743 46.4126C330.822 44.3811 331.654 42.8731 332.25 41.8601L325.354 37.8039ZM322.633 42.7471C321.587 44.8383 320.45 47.2111 319.221 49.8622L326.479 53.2258C327.683 50.6289 328.786 48.3297 329.788 46.3249L322.633 42.7471ZM319.237 49.8278C318.023 52.3841 316.712 55.1329 315.306 58.0742L322.523 61.5258C323.932 58.5791 325.246 55.8239 326.463 53.2602L319.237 49.8278ZM315.289 58.1085C313.935 61.0119 312.643 63.8529 311.415 66.6313L318.733 69.8647C319.937 67.1391 321.206 64.3481 322.539 61.4915L315.289 58.1085ZM311.415 66.6313C310.206 69.3682 309.062 71.9102 307.984 74.258L315.253 77.598C316.35 75.2098 317.51 72.6318 318.733 69.8647L311.415 66.6313ZM307.947 74.3404C306.919 76.7169 306.079 78.6868 305.43 80.2455L312.815 83.3225C313.445 81.8092 314.269 79.8751 315.29 77.5156L307.947 74.3404ZM309.122 77.784H301.634V85.784H309.122V77.784ZM399.851 91L396.109 92.4136L397.086 95H399.851V91ZM396.779 82.552L392.993 83.8427L392.998 83.8561L393.002 83.8695L396.779 82.552ZM393.803 74.008L397.572 72.668L396.626 70.008H393.803V74.008ZM363.659 74.008V70.008H360.837L359.891 72.6667L363.659 74.008ZM357.611 91V95H360.433L361.38 92.3413L357.611 91ZM347.915 91L344.156 89.633L342.204 95H347.915V91ZM355.115 71.512L358.859 72.9209L358.864 72.9077L355.115 71.512ZM361.643 54.424L357.935 52.9232L357.928 52.9423L357.92 52.9614L361.643 54.424ZM368.075 39.064L371.744 40.6571L371.748 40.6484L371.752 40.6397L368.075 39.064ZM374.699 24.472V20.472H372.182L371.093 22.7411L374.699 24.472ZM383.243 24.472L386.849 22.7411L385.76 20.472H383.243V24.472ZM389.867 39.064L386.191 40.6397L386.194 40.6484L386.198 40.6571L389.867 39.064ZM396.203 54.424L392.48 55.8866L392.488 55.9057L392.495 55.9248L396.203 54.424ZM402.827 71.512L399.079 72.9078L399.084 72.9209L402.827 71.512ZM410.027 91V95H415.738L413.786 89.633L410.027 91ZM391.115 66.328V70.328H396.848L394.869 64.9472L391.115 66.328ZM384.971 50.2L381.23 51.6145L381.24 51.6422L381.251 51.6697L384.971 50.2ZM378.731 35.128L382.374 33.4764L378.784 25.5563L375.106 33.4365L378.731 35.128ZM372.299 50.2L368.573 48.7458L368.568 48.758L368.563 48.7703L372.299 50.2ZM366.347 66.328L362.579 64.9854L360.676 70.328H366.347V66.328ZM403.593 89.5864C402.516 86.7365 401.504 83.9526 400.556 81.2345L393.002 83.8695C393.974 86.6554 395.01 89.5035 396.109 92.4136L403.593 89.5864ZM400.565 81.2613C399.599 78.4284 398.602 75.5639 397.572 72.668L390.034 75.348C391.053 78.2121 392.039 81.0436 392.993 83.8427L400.565 81.2613ZM393.803 70.008L363.659 70.008V78.008L393.803 78.008V70.008ZM359.891 72.6667L353.843 89.6587L361.38 92.3413L367.428 75.3493L359.891 72.6667ZM357.611 87H347.915V95H357.611V87ZM351.674 92.367C354.23 85.3386 356.625 78.8568 358.859 72.9209L351.372 70.1031C349.125 76.0712 346.72 82.5814 344.156 89.633L351.674 92.367ZM358.864 72.9077C361.096 66.9117 363.264 61.2381 365.366 55.8866L357.92 52.9614C355.799 58.3619 353.614 64.0803 351.367 70.1162L358.864 72.9077ZM365.351 55.9248C367.516 50.5769 369.647 45.4878 371.744 40.6571L364.406 37.4709C362.28 42.3682 360.123 47.5191 357.935 52.9232L365.351 55.9248ZM371.752 40.6397C373.842 35.7636 376.026 30.9513 378.305 26.2029L371.093 22.7411C368.764 27.5927 366.533 32.5084 364.399 37.4883L371.752 40.6397ZM374.699 28.472H383.243V20.472H374.699V28.472ZM379.637 26.2029C381.916 30.9513 384.101 35.7636 386.191 40.6397L393.544 37.4883C391.41 32.5084 389.178 27.5927 386.849 22.7411L379.637 26.2029ZM386.198 40.6571C388.29 45.4743 390.384 50.5506 392.48 55.8866L399.926 52.9614C397.799 47.5454 395.669 42.3817 393.536 37.4709L386.198 40.6571ZM392.495 55.9248C394.656 61.2625 396.85 66.9233 399.079 72.9077L406.576 70.1162C404.324 64.0687 402.102 58.3375 399.911 52.9232L392.495 55.9248ZM399.084 72.9209C401.317 78.8568 403.712 85.3386 406.268 92.367L413.786 89.633C411.222 82.5814 408.817 76.0712 406.571 70.1031L399.084 72.9209ZM410.027 87H399.851V95H410.027V87ZM394.869 64.9472C392.811 59.3513 390.752 53.9456 388.691 48.7303L381.251 51.6697C383.287 56.8224 385.323 62.1687 387.361 67.7088L394.869 64.9472ZM388.713 48.7855C386.7 43.4625 384.588 38.3592 382.374 33.4764L375.088 36.7795C377.227 41.4968 379.274 46.4415 381.23 51.6145L388.713 48.7855ZM375.106 33.4365C372.828 38.3192 370.65 43.4226 368.573 48.7458L376.026 51.6542C378.044 46.4813 380.155 41.5368 382.356 36.8195L375.106 33.4365ZM368.563 48.7703C366.568 53.985 364.573 59.3901 362.579 64.9854L370.115 67.6706C372.089 62.1299 374.063 56.783 376.035 51.6297L368.563 48.7703ZM366.347 70.328L391.115 70.328V62.328H366.347V70.328Z" fill="#211245" mask="url(#path-1-outside-1_182_474)"/>
</g>
<g filter="url(#filter1_d_182_474)">
<path d="M170.039 68.303C167.983 71.8761 165.842 75.7077 163.778 79.8341C161.665 75.3124 159.502 71.0969 157.452 67.1924C156.548 65.4713 155.683 63.8402 154.857 62.2841C152.073 57.0372 149.741 52.643 147.927 48.5243C145.551 43.128 144.956 40.0648 145.044 38.3151L145.06 38.0003V37.685C145.06 21.9242 155.921 12.5 164.679 12.5C173.136 12.5 183.644 21.5695 183.644 37.685C183.644 41.1058 182.585 45.0231 180.118 50.2377C178.173 54.348 175.77 58.4632 172.908 63.3644C171.998 64.9228 171.042 66.5606 170.039 68.303Z" stroke="#FDA901" stroke-width="25" shape-rendering="crispEdges"/>
</g>
<defs>
<filter id="filter0_d_182_474" x="74.6533" y="23.8" width="339.374" height="76.64" filterUnits="userSpaceOnUse" color-interpolation-filters="sRGB">
<feFlood flood-opacity="0" result="BackgroundImageFix"/>
<feColorMatrix in="SourceAlpha" type="matrix" values="0 0 0 0 0 0 0 0 0 0 0 0 0 0 0 0 0 0 127 0" result="hardAlpha"/>
<feOffset dy="4"/>
<feGaussianBlur stdDeviation="2"/>
<feComposite in2="hardAlpha" operator="out"/>
<feColorMatrix type="matrix" values="0 0 0 0 0 0 0 0 0 0 0 0 0 0 0 0 0 0 0.25 0"/>
<feBlend mode="normal" in2="BackgroundImageFix" result="effect1_dropShadow_182_474"/>
<feBlend mode="normal" in="SourceGraphic" in2="effect1_dropShadow_182_474" result="shape"/>
</filter>
<filter id="filter1_d_182_474" x="128.536" y="0" width="71.6079" height="132.386" filterUnits="userSpaceOnUse" color-interpolation-filters="sRGB">
<feFlood flood-opacity="0" result="BackgroundImageFix"/>
<feColorMatrix in="SourceAlpha" type="matrix" values="0 0 0 0 0 0 0 0 0 0 0 0 0 0 0 0 0 0 127 0" result="hardAlpha"/>
<feOffset dy="4"/>
<feGaussianBlur stdDeviation="2"/>
<feComposite in2="hardAlpha" operator="out"/>
<feColorMatrix type="matrix" values="0 0 0 0 0 0 0 0 0 0 0 0 0 0 0 0 0 0 0.25 0"/>
<feBlend mode="normal" in2="BackgroundImageFix" result="effect1_dropShadow_182_474"/>
<feBlend mode="normal" in="SourceGraphic" in2="effect1_dropShadow_182_474" result="shape"/>
</filter>
</defs>
</svg>
