<svg width="564" height="265" viewBox="0 0 564 265" fill="none" xmlns="http://www.w3.org/2000/svg">
<g filter="url(#filter0_d_12_63)">
<mask id="path-1-outside-1_12_63" maskUnits="userSpaceOnUse" x="118" y="19" width="342" height="78" fill="black">
<rect fill="white" x="118" y="19" width="342" height="78"/>
<path d="M155.225 63.16C156.249 64.44 157.529 66.136 159.065 68.248C160.665 70.296 162.297 72.6 163.961 75.16C165.625 77.656 167.257 80.28 168.857 83.032C170.521 85.784 171.929 88.44 173.081 91L162.905 91C161.625 88.568 160.217 86.104 158.681 83.608C157.209 81.112 155.705 78.744 154.169 76.504C152.633 74.2 151.097 72.056 149.561 70.072C148.089 68.088 146.745 66.36 145.529 64.888C144.697 64.952 143.833 64.984 142.937 64.984C142.105 64.984 141.241 64.984 140.345 64.984H131.993V91H122.681V25.432C125.305 24.792 128.217 24.376 131.417 24.184C134.681 23.928 137.657 23.8 140.345 23.8C149.689 23.8 156.793 25.56 161.657 29.08C166.585 32.6 169.049 37.848 169.049 44.824C169.049 49.24 167.865 53.016 165.497 56.152C163.193 59.288 159.769 61.624 155.225 63.16ZM141.113 31.96C137.145 31.96 134.105 32.056 131.993 32.248V57.304H138.617C141.817 57.304 144.697 57.144 147.257 56.824C149.817 56.504 151.961 55.896 153.689 55C155.481 54.104 156.857 52.856 157.817 51.256C158.777 49.592 159.257 47.416 159.257 44.728C159.257 42.232 158.777 40.152 157.817 38.488C156.857 36.824 155.545 35.512 153.881 34.552C152.281 33.592 150.361 32.92 148.121 32.536C145.945 32.152 143.609 31.96 141.113 31.96ZM274.48 92.44C270.128 92.44 266.352 91.768 263.152 90.424C259.952 89.08 257.328 87.256 255.28 84.952C253.232 82.584 251.696 79.8 250.672 76.6C249.712 73.4 249.232 69.944 249.232 66.232V24.472H258.544V65.176C258.544 71.832 260.016 76.664 262.96 79.672C265.904 82.68 269.744 84.184 274.48 84.184C276.848 84.184 278.992 83.832 280.912 83.128C282.896 82.36 284.592 81.208 286 79.672C287.408 78.136 288.496 76.184 289.264 73.816C290.032 71.384 290.416 68.504 290.416 65.176V24.472H299.728V66.232C299.728 69.944 299.216 73.4 298.192 76.6C297.232 79.8 295.696 82.584 293.584 84.952C291.536 87.256 288.912 89.08 285.712 90.424C282.576 91.768 278.832 92.44 274.48 92.44ZM345.662 81.784C345.022 80.248 344.158 78.296 343.07 75.928C342.046 73.56 340.926 71 339.71 68.248C338.494 65.496 337.182 62.68 335.774 59.8C334.43 56.856 333.15 54.104 331.934 51.544C330.718 48.92 329.566 46.584 328.478 44.536C327.454 42.488 326.622 40.92 325.982 39.832C325.278 47.384 324.702 55.576 324.254 64.408C323.806 73.176 323.422 82.04 323.102 91H313.982C314.238 85.24 314.526 79.448 314.846 73.624C315.166 67.736 315.518 61.976 315.902 56.344C316.35 50.648 316.798 45.112 317.246 39.736C317.758 34.36 318.302 29.272 318.878 24.472H327.038C328.766 27.288 330.622 30.616 332.606 34.456C334.59 38.296 336.574 42.328 338.558 46.552C340.542 50.712 342.462 54.904 344.318 59.128C346.174 63.288 347.87 67.096 349.406 70.552C350.942 67.096 352.638 63.288 354.494 59.128C356.35 54.904 358.27 50.712 360.254 46.552C362.238 42.328 364.222 38.296 366.206 34.456C368.19 30.616 370.046 27.288 371.774 24.472H379.934C382.11 45.912 383.742 68.088 384.83 91H375.71C375.39 82.04 375.006 73.176 374.558 64.408C374.11 55.576 373.534 47.384 372.83 39.832C372.19 40.92 371.326 42.488 370.238 44.536C369.214 46.584 368.094 48.92 366.878 51.544C365.662 54.104 364.35 56.856 362.942 59.8C361.598 62.68 360.318 65.496 359.102 68.248C357.886 71 356.734 73.56 355.646 75.928C354.622 78.296 353.79 80.248 353.15 81.784H345.662ZM443.879 91C442.791 88.12 441.767 85.304 440.807 82.552C439.847 79.736 438.855 76.888 437.831 74.008L407.687 74.008L401.639 91H391.943C394.503 83.96 396.903 77.464 399.143 71.512C401.383 65.496 403.559 59.8 405.671 54.424C407.847 49.048 409.991 43.928 412.103 39.064C414.215 34.136 416.423 29.272 418.727 24.472H427.271C429.575 29.272 431.783 34.136 433.895 39.064C436.007 43.928 438.119 49.048 440.231 54.424C442.407 59.8 444.615 65.496 446.855 71.512C449.095 77.464 451.495 83.96 454.055 91H443.879ZM435.143 66.328C433.095 60.76 431.047 55.384 428.999 50.2C427.015 44.952 424.935 39.928 422.759 35.128C420.519 39.928 418.375 44.952 416.327 50.2C414.343 55.384 412.359 60.76 410.375 66.328L435.143 66.328Z"/>
</mask>
<path d="M155.225 63.16C156.249 64.44 157.529 66.136 159.065 68.248C160.665 70.296 162.297 72.6 163.961 75.16C165.625 77.656 167.257 80.28 168.857 83.032C170.521 85.784 171.929 88.44 173.081 91L162.905 91C161.625 88.568 160.217 86.104 158.681 83.608C157.209 81.112 155.705 78.744 154.169 76.504C152.633 74.2 151.097 72.056 149.561 70.072C148.089 68.088 146.745 66.36 145.529 64.888C144.697 64.952 143.833 64.984 142.937 64.984C142.105 64.984 141.241 64.984 140.345 64.984H131.993V91H122.681V25.432C125.305 24.792 128.217 24.376 131.417 24.184C134.681 23.928 137.657 23.8 140.345 23.8C149.689 23.8 156.793 25.56 161.657 29.08C166.585 32.6 169.049 37.848 169.049 44.824C169.049 49.24 167.865 53.016 165.497 56.152C163.193 59.288 159.769 61.624 155.225 63.16ZM141.113 31.96C137.145 31.96 134.105 32.056 131.993 32.248V57.304H138.617C141.817 57.304 144.697 57.144 147.257 56.824C149.817 56.504 151.961 55.896 153.689 55C155.481 54.104 156.857 52.856 157.817 51.256C158.777 49.592 159.257 47.416 159.257 44.728C159.257 42.232 158.777 40.152 157.817 38.488C156.857 36.824 155.545 35.512 153.881 34.552C152.281 33.592 150.361 32.92 148.121 32.536C145.945 32.152 143.609 31.96 141.113 31.96ZM274.48 92.44C270.128 92.44 266.352 91.768 263.152 90.424C259.952 89.08 257.328 87.256 255.28 84.952C253.232 82.584 251.696 79.8 250.672 76.6C249.712 73.4 249.232 69.944 249.232 66.232V24.472H258.544V65.176C258.544 71.832 260.016 76.664 262.96 79.672C265.904 82.68 269.744 84.184 274.48 84.184C276.848 84.184 278.992 83.832 280.912 83.128C282.896 82.36 284.592 81.208 286 79.672C287.408 78.136 288.496 76.184 289.264 73.816C290.032 71.384 290.416 68.504 290.416 65.176V24.472H299.728V66.232C299.728 69.944 299.216 73.4 298.192 76.6C297.232 79.8 295.696 82.584 293.584 84.952C291.536 87.256 288.912 89.08 285.712 90.424C282.576 91.768 278.832 92.44 274.48 92.44ZM345.662 81.784C345.022 80.248 344.158 78.296 343.07 75.928C342.046 73.56 340.926 71 339.71 68.248C338.494 65.496 337.182 62.68 335.774 59.8C334.43 56.856 333.15 54.104 331.934 51.544C330.718 48.92 329.566 46.584 328.478 44.536C327.454 42.488 326.622 40.92 325.982 39.832C325.278 47.384 324.702 55.576 324.254 64.408C323.806 73.176 323.422 82.04 323.102 91H313.982C314.238 85.24 314.526 79.448 314.846 73.624C315.166 67.736 315.518 61.976 315.902 56.344C316.35 50.648 316.798 45.112 317.246 39.736C317.758 34.36 318.302 29.272 318.878 24.472H327.038C328.766 27.288 330.622 30.616 332.606 34.456C334.59 38.296 336.574 42.328 338.558 46.552C340.542 50.712 342.462 54.904 344.318 59.128C346.174 63.288 347.87 67.096 349.406 70.552C350.942 67.096 352.638 63.288 354.494 59.128C356.35 54.904 358.27 50.712 360.254 46.552C362.238 42.328 364.222 38.296 366.206 34.456C368.19 30.616 370.046 27.288 371.774 24.472H379.934C382.11 45.912 383.742 68.088 384.83 91H375.71C375.39 82.04 375.006 73.176 374.558 64.408C374.11 55.576 373.534 47.384 372.83 39.832C372.19 40.92 371.326 42.488 370.238 44.536C369.214 46.584 368.094 48.92 366.878 51.544C365.662 54.104 364.35 56.856 362.942 59.8C361.598 62.68 360.318 65.496 359.102 68.248C357.886 71 356.734 73.56 355.646 75.928C354.622 78.296 353.79 80.248 353.15 81.784H345.662ZM443.879 91C442.791 88.12 441.767 85.304 440.807 82.552C439.847 79.736 438.855 76.888 437.831 74.008L407.687 74.008L401.639 91H391.943C394.503 83.96 396.903 77.464 399.143 71.512C401.383 65.496 403.559 59.8 405.671 54.424C407.847 49.048 409.991 43.928 412.103 39.064C414.215 34.136 416.423 29.272 418.727 24.472H427.271C429.575 29.272 431.783 34.136 433.895 39.064C436.007 43.928 438.119 49.048 440.231 54.424C442.407 59.8 444.615 65.496 446.855 71.512C449.095 77.464 451.495 83.96 454.055 91H443.879ZM435.143 66.328C433.095 60.76 431.047 55.384 428.999 50.2C427.015 44.952 424.935 39.928 422.759 35.128C420.519 39.928 418.375 44.952 416.327 50.2C414.343 55.384 412.359 60.76 410.375 66.328L435.143 66.328Z" fill="white"/>
<path d="M155.225 63.16L153.944 59.3706L148.534 61.1994L152.102 65.6588L155.225 63.16ZM159.065 68.248L155.83 70.6007L155.871 70.6563L155.913 70.7106L159.065 68.248ZM163.961 75.16L160.607 77.34L160.62 77.3595L160.633 77.3788L163.961 75.16ZM168.857 83.032L165.399 85.0425L165.416 85.0722L165.434 85.1017L168.857 83.032ZM173.081 91V95H179.267L176.729 89.3585L173.081 91ZM162.905 91L159.365 92.863L160.49 95H162.905V91ZM158.681 83.608L155.236 85.6399L155.255 85.6723L155.275 85.7044L158.681 83.608ZM154.169 76.504L150.841 78.7228L150.855 78.7446L150.87 78.7661L154.169 76.504ZM149.561 70.072L146.349 72.4554L146.373 72.4883L146.398 72.5207L149.561 70.072ZM145.529 64.888L148.613 62.3405L147.291 60.7406L145.222 60.8998L145.529 64.888ZM131.993 64.984V60.984H127.993V64.984H131.993ZM131.993 91V95H135.993V91H131.993ZM122.681 91H118.681V95H122.681V91ZM122.681 25.432L121.733 21.5459L118.681 22.2903V25.432H122.681ZM131.417 24.184L131.657 28.1768L131.693 28.1746L131.73 28.1717L131.417 24.184ZM161.657 29.08L159.312 32.3205L159.322 32.3277L159.332 32.3349L161.657 29.08ZM165.497 56.152L162.305 53.7416L162.289 53.7625L162.274 53.7837L165.497 56.152ZM131.993 32.248L131.631 28.2644L127.993 28.5951V32.248H131.993ZM131.993 57.304H127.993V61.304H131.993V57.304ZM147.257 56.824L147.753 60.7931L147.257 56.824ZM153.689 55L151.9 51.4223L151.874 51.4354L151.848 51.449L153.689 55ZM157.817 51.256L161.247 53.314L161.265 53.2846L161.282 53.2549L157.817 51.256ZM157.817 38.488L161.282 36.4891V36.4891L157.817 38.488ZM153.881 34.552L151.823 37.982L151.853 37.9996L151.882 38.0167L153.881 34.552ZM148.121 32.536L147.426 36.4751L147.436 36.4768L147.445 36.4785L148.121 32.536ZM152.102 65.6588C153.072 66.8716 154.312 68.513 155.83 70.6007L162.3 65.8953C160.746 63.759 159.426 62.0084 158.349 60.6612L152.102 65.6588ZM155.913 70.7106C157.431 72.6532 158.996 74.8608 160.607 77.34L167.315 72.98C165.598 70.3392 163.9 67.9388 162.217 65.7854L155.913 70.7106ZM160.633 77.3788C162.249 79.8027 163.838 82.357 165.399 85.0425L172.315 81.0215C170.677 78.203 169.001 75.5093 167.289 72.9412L160.633 77.3788ZM165.434 85.1017C167.026 87.735 168.356 90.2479 169.433 92.6415L176.729 89.3585C175.502 86.6321 174.016 83.833 172.28 80.9623L165.434 85.1017ZM173.081 87L162.905 87V95L173.081 95V87ZM166.445 89.137C165.12 86.6207 163.668 84.0789 162.088 81.5116L155.275 85.7044C156.767 88.1291 158.13 90.5153 159.365 92.863L166.445 89.137ZM162.127 81.5761C160.611 79.0069 159.059 76.5617 157.468 74.2419L150.87 78.7661C152.352 80.9263 153.807 83.2171 155.236 85.6399L162.127 81.5761ZM157.497 74.2852C155.914 71.9106 154.323 69.6891 152.724 67.6233L146.398 72.5207C147.871 74.4229 149.352 76.4894 150.841 78.7228L157.497 74.2852ZM152.774 67.6886C151.271 65.664 149.884 63.8789 148.613 62.3405L142.445 67.4355C143.606 68.8411 144.907 70.512 146.349 72.4554L152.774 67.6886ZM145.222 60.8998C144.5 60.9554 143.738 60.984 142.937 60.984V68.984C143.928 68.984 144.895 68.9486 145.836 68.8762L145.222 60.8998ZM142.937 60.984C142.936 60.984 142.934 60.984 142.932 60.984C142.931 60.984 142.929 60.984 142.927 60.984C142.926 60.984 142.924 60.984 142.923 60.984C142.921 60.984 142.919 60.984 142.918 60.984C142.916 60.984 142.914 60.984 142.913 60.984C142.911 60.984 142.91 60.984 142.908 60.984C142.906 60.984 142.905 60.984 142.903 60.984C142.901 60.984 142.9 60.984 142.898 60.984C142.897 60.984 142.895 60.984 142.893 60.984C142.892 60.984 142.89 60.984 142.888 60.984C142.887 60.984 142.885 60.984 142.883 60.984C142.882 60.984 142.88 60.984 142.879 60.984C142.877 60.984 142.875 60.984 142.874 60.984C142.872 60.984 142.87 60.984 142.869 60.984C142.867 60.984 142.866 60.984 142.864 60.984C142.862 60.984 142.861 60.984 142.859 60.984C142.857 60.984 142.856 60.984 142.854 60.984C142.853 60.984 142.851 60.984 142.849 60.984C142.848 60.984 142.846 60.984 142.844 60.984C142.843 60.984 142.841 60.984 142.84 60.984C142.838 60.984 142.836 60.984 142.835 60.984C142.833 60.984 142.831 60.984 142.83 60.984C142.828 60.984 142.826 60.984 142.825 60.984C142.823 60.984 142.822 60.984 142.82 60.984C142.818 60.984 142.817 60.984 142.815 60.984C142.813 60.984 142.812 60.984 142.81 60.984C142.809 60.984 142.807 60.984 142.805 60.984C142.804 60.984 142.802 60.984 142.8 60.984C142.799 60.984 142.797 60.984 142.795 60.984C142.794 60.984 142.792 60.984 142.791 60.984C142.789 60.984 142.787 60.984 142.786 60.984C142.784 60.984 142.782 60.984 142.781 60.984C142.779 60.984 142.778 60.984 142.776 60.984C142.774 60.984 142.773 60.984 142.771 60.984C142.769 60.984 142.768 60.984 142.766 60.984C142.764 60.984 142.763 60.984 142.761 60.984C142.76 60.984 142.758 60.984 142.756 60.984C142.755 60.984 142.753 60.984 142.751 60.984C142.75 60.984 142.748 60.984 142.746 60.984C142.745 60.984 142.743 60.984 142.742 60.984C142.74 60.984 142.738 60.984 142.737 60.984C142.735 60.984 142.733 60.984 142.732 60.984C142.73 60.984 142.728 60.984 142.727 60.984C142.725 60.984 142.724 60.984 142.722 60.984C142.72 60.984 142.719 60.984 142.717 60.984C142.715 60.984 142.714 60.984 142.712 60.984C142.71 60.984 142.709 60.984 142.707 60.984C142.706 60.984 142.704 60.984 142.702 60.984C142.701 60.984 142.699 60.984 142.697 60.984C142.696 60.984 142.694 60.984 142.692 60.984C142.691 60.984 142.689 60.984 142.688 60.984C142.686 60.984 142.684 60.984 142.683 60.984C142.681 60.984 142.679 60.984 142.678 60.984C142.676 60.984 142.674 60.984 142.673 60.984C142.671 60.984 142.67 60.984 142.668 60.984C142.666 60.984 142.665 60.984 142.663 60.984C142.661 60.984 142.66 60.984 142.658 60.984C142.656 60.984 142.655 60.984 142.653 60.984C142.652 60.984 142.65 60.984 142.648 60.984C142.647 60.984 142.645 60.984 142.643 60.984C142.642 60.984 142.64 60.984 142.638 60.984C142.637 60.984 142.635 60.984 142.633 60.984C142.632 60.984 142.63 60.984 142.629 60.984C142.627 60.984 142.625 60.984 142.624 60.984C142.622 60.984 142.62 60.984 142.619 60.984C142.617 60.984 142.615 60.984 142.614 60.984C142.612 60.984 142.611 60.984 142.609 60.984C142.607 60.984 142.606 60.984 142.604 60.984C142.602 60.984 142.601 60.984 142.599 60.984C142.597 60.984 142.596 60.984 142.594 60.984C142.592 60.984 142.591 60.984 142.589 60.984C142.588 60.984 142.586 60.984 142.584 60.984C142.583 60.984 142.581 60.984 142.579 60.984C142.578 60.984 142.576 60.984 142.574 60.984C142.573 60.984 142.571 60.984 142.569 60.984C142.568 60.984 142.566 60.984 142.565 60.984C142.563 60.984 142.561 60.984 142.56 60.984C142.558 60.984 142.556 60.984 142.555 60.984C142.553 60.984 142.551 60.984 142.55 60.984C142.548 60.984 142.546 60.984 142.545 60.984C142.543 60.984 142.542 60.984 142.54 60.984C142.538 60.984 142.537 60.984 142.535 60.984C142.533 60.984 142.532 60.984 142.53 60.984C142.528 60.984 142.527 60.984 142.525 60.984C142.523 60.984 142.522 60.984 142.52 60.984C142.518 60.984 142.517 60.984 142.515 60.984C142.514 60.984 142.512 60.984 142.51 60.984C142.509 60.984 142.507 60.984 142.505 60.984C142.504 60.984 142.502 60.984 142.5 60.984C142.499 60.984 142.497 60.984 142.495 60.984C142.494 60.984 142.492 60.984 142.491 60.984C142.489 60.984 142.487 60.984 142.486 60.984C142.484 60.984 142.482 60.984 142.481 60.984C142.479 60.984 142.477 60.984 142.476 60.984C142.474 60.984 142.472 60.984 142.471 60.984C142.469 60.984 142.467 60.984 142.466 60.984C142.464 60.984 142.462 60.984 142.461 60.984C142.459 60.984 142.458 60.984 142.456 60.984C142.454 60.984 142.453 60.984 142.451 60.984C142.449 60.984 142.448 60.984 142.446 60.984C142.444 60.984 142.443 60.984 142.441 60.984C142.439 60.984 142.438 60.984 142.436 60.984C142.434 60.984 142.433 60.984 142.431 60.984C142.429 60.984 142.428 60.984 142.426 60.984C142.425 60.984 142.423 60.984 142.421 60.984C142.42 60.984 142.418 60.984 142.416 60.984C142.415 60.984 142.413 60.984 142.411 60.984C142.41 60.984 142.408 60.984 142.406 60.984C142.405 60.984 142.403 60.984 142.401 60.984C142.4 60.984 142.398 60.984 142.396 60.984C142.395 60.984 142.393 60.984 142.392 60.984C142.39 60.984 142.388 60.984 142.387 60.984C142.385 60.984 142.383 60.984 142.382 60.984C142.38 60.984 142.378 60.984 142.377 60.984C142.375 60.984 142.373 60.984 142.372 60.984C142.37 60.984 142.368 60.984 142.367 60.984C142.365 60.984 142.363 60.984 142.362 60.984C142.36 60.984 142.358 60.984 142.357 60.984C142.355 60.984 142.354 60.984 142.352 60.984C142.35 60.984 142.349 60.984 142.347 60.984C142.345 60.984 142.344 60.984 142.342 60.984C142.34 60.984 142.339 60.984 142.337 60.984C142.335 60.984 142.334 60.984 142.332 60.984C142.33 60.984 142.329 60.984 142.327 60.984C142.325 60.984 142.324 60.984 142.322 60.984C142.32 60.984 142.319 60.984 142.317 60.984C142.315 60.984 142.314 60.984 142.312 60.984C142.31 60.984 142.309 60.984 142.307 60.984C142.306 60.984 142.304 60.984 142.302 60.984C142.301 60.984 142.299 60.984 142.297 60.984C142.296 60.984 142.294 60.984 142.292 60.984C142.291 60.984 142.289 60.984 142.287 60.984C142.286 60.984 142.284 60.984 142.282 60.984C142.281 60.984 142.279 60.984 142.277 60.984C142.276 60.984 142.274 60.984 142.272 60.984C142.271 60.984 142.269 60.984 142.267 60.984C142.266 60.984 142.264 60.984 142.262 60.984C142.261 60.984 142.259 60.984 142.257 60.984C142.256 60.984 142.254 60.984 142.252 60.984C142.251 60.984 142.249 60.984 142.247 60.984C142.246 60.984 142.244 60.984 142.243 60.984C142.241 60.984 142.239 60.984 142.238 60.984C142.236 60.984 142.234 60.984 142.233 60.984C142.231 60.984 142.229 60.984 142.228 60.984C142.226 60.984 142.224 60.984 142.223 60.984C142.221 60.984 142.219 60.984 142.218 60.984C142.216 60.984 142.214 60.984 142.213 60.984C142.211 60.984 142.209 60.984 142.208 60.984C142.206 60.984 142.204 60.984 142.203 60.984C142.201 60.984 142.199 60.984 142.198 60.984C142.196 60.984 142.194 60.984 142.193 60.984C142.191 60.984 142.189 60.984 142.188 60.984C142.186 60.984 142.184 60.984 142.183 60.984C142.181 60.984 142.179 60.984 142.178 60.984C142.176 60.984 142.174 60.984 142.173 60.984C142.171 60.984 142.169 60.984 142.168 60.984C142.166 60.984 142.164 60.984 142.163 60.984C142.161 60.984 142.159 60.984 142.158 60.984C142.156 60.984 142.154 60.984 142.153 60.984C142.151 60.984 142.149 60.984 142.148 60.984C142.146 60.984 142.144 60.984 142.143 60.984C142.141 60.984 142.139 60.984 142.138 60.984C142.136 60.984 142.134 60.984 142.133 60.984C142.131 60.984 142.129 60.984 142.128 60.984C142.126 60.984 142.124 60.984 142.123 60.984C142.121 60.984 142.119 60.984 142.118 60.984C142.116 60.984 142.114 60.984 142.113 60.984C142.111 60.984 142.109 60.984 142.108 60.984C142.106 60.984 142.104 60.984 142.103 60.984C142.101 60.984 142.099 60.984 142.098 60.984C142.096 60.984 142.094 60.984 142.093 60.984C142.091 60.984 142.089 60.984 142.088 60.984C142.086 60.984 142.084 60.984 142.083 60.984C142.081 60.984 142.079 60.984 142.078 60.984C142.076 60.984 142.074 60.984 142.073 60.984C142.071 60.984 142.069 60.984 142.068 60.984C142.066 60.984 142.064 60.984 142.063 60.984C142.061 60.984 142.059 60.984 142.058 60.984C142.056 60.984 142.054 60.984 142.053 60.984C142.051 60.984 142.049 60.984 142.048 60.984C142.046 60.984 142.044 60.984 142.043 60.984C142.041 60.984 142.039 60.984 142.038 60.984C142.036 60.984 142.034 60.984 142.033 60.984C142.031 60.984 142.029 60.984 142.028 60.984C142.026 60.984 142.024 60.984 142.023 60.984C142.021 60.984 142.019 60.984 142.018 60.984C142.016 60.984 142.014 60.984 142.013 60.984C142.011 60.984 142.009 60.984 142.008 60.984C142.006 60.984 142.004 60.984 142.003 60.984C142.001 60.984 141.999 60.984 141.998 60.984C141.996 60.984 141.994 60.984 141.993 60.984C141.991 60.984 141.989 60.984 141.988 60.984C141.986 60.984 141.984 60.984 141.983 60.984C141.981 60.984 141.979 60.984 141.978 60.984C141.976 60.984 141.974 60.984 141.973 60.984C141.971 60.984 141.969 60.984 141.968 60.984C141.966 60.984 141.964 60.984 141.963 60.984C141.961 60.984 141.959 60.984 141.958 60.984C141.956 60.984 141.954 60.984 141.953 60.984C141.951 60.984 141.949 60.984 141.948 60.984C141.946 60.984 141.944 60.984 141.942 60.984C141.941 60.984 141.939 60.984 141.937 60.984C141.936 60.984 141.934 60.984 141.932 60.984C141.931 60.984 141.929 60.984 141.927 60.984C141.926 60.984 141.924 60.984 141.922 60.984C141.921 60.984 141.919 60.984 141.917 60.984C141.916 60.984 141.914 60.984 141.912 60.984C141.911 60.984 141.909 60.984 141.907 60.984C141.906 60.984 141.904 60.984 141.902 60.984C141.901 60.984 141.899 60.984 141.897 60.984C141.896 60.984 141.894 60.984 141.892 60.984C141.891 60.984 141.889 60.984 141.887 60.984C141.886 60.984 141.884 60.984 141.882 60.984C141.88 60.984 141.879 60.984 141.877 60.984C141.875 60.984 141.874 60.984 141.872 60.984C141.87 60.984 141.869 60.984 141.867 60.984C141.865 60.984 141.864 60.984 141.862 60.984C141.86 60.984 141.859 60.984 141.857 60.984C141.855 60.984 141.854 60.984 141.852 60.984C141.85 60.984 141.849 60.984 141.847 60.984C141.845 60.984 141.844 60.984 141.842 60.984C141.84 60.984 141.839 60.984 141.837 60.984C141.835 60.984 141.834 60.984 141.832 60.984C141.83 60.984 141.828 60.984 141.827 60.984C141.825 60.984 141.823 60.984 141.822 60.984C141.82 60.984 141.818 60.984 141.817 60.984C141.815 60.984 141.813 60.984 141.812 60.984C141.81 60.984 141.808 60.984 141.807 60.984C141.805 60.984 141.803 60.984 141.802 60.984C141.8 60.984 141.798 60.984 141.797 60.984C141.795 60.984 141.793 60.984 141.791 60.984C141.79 60.984 141.788 60.984 141.786 60.984C141.785 60.984 141.783 60.984 141.781 60.984C141.78 60.984 141.778 60.984 141.776 60.984C141.775 60.984 141.773 60.984 141.771 60.984C141.77 60.984 141.768 60.984 141.766 60.984C141.765 60.984 141.763 60.984 141.761 60.984C141.76 60.984 141.758 60.984 141.756 60.984C141.754 60.984 141.753 60.984 141.751 60.984C141.749 60.984 141.748 60.984 141.746 60.984C141.744 60.984 141.743 60.984 141.741 60.984C141.739 60.984 141.738 60.984 141.736 60.984C141.734 60.984 141.733 60.984 141.731 60.984C141.729 60.984 141.728 60.984 141.726 60.984C141.724 60.984 141.722 60.984 141.721 60.984C141.719 60.984 141.717 60.984 141.716 60.984C141.714 60.984 141.712 60.984 141.711 60.984C141.709 60.984 141.707 60.984 141.706 60.984C141.704 60.984 141.702 60.984 141.701 60.984C141.699 60.984 141.697 60.984 141.696 60.984C141.694 60.984 141.692 60.984 141.69 60.984C141.689 60.984 141.687 60.984 141.685 60.984C141.684 60.984 141.682 60.984 141.68 60.984C141.679 60.984 141.677 60.984 141.675 60.984C141.674 60.984 141.672 60.984 141.67 60.984C141.669 60.984 141.667 60.984 141.665 60.984C141.663 60.984 141.662 60.984 141.66 60.984C141.658 60.984 141.657 60.984 141.655 60.984C141.653 60.984 141.652 60.984 141.65 60.984C141.648 60.984 141.647 60.984 141.645 60.984C141.643 60.984 141.642 60.984 141.64 60.984C141.638 60.984 141.636 60.984 141.635 60.984C141.633 60.984 141.631 60.984 141.63 60.984C141.628 60.984 141.626 60.984 141.625 60.984C141.623 60.984 141.621 60.984 141.62 60.984C141.618 60.984 141.616 60.984 141.614 60.984C141.613 60.984 141.611 60.984 141.609 60.984C141.608 60.984 141.606 60.984 141.604 60.984C141.603 60.984 141.601 60.984 141.599 60.984C141.598 60.984 141.596 60.984 141.594 60.984C141.593 60.984 141.591 60.984 141.589 60.984C141.587 60.984 141.586 60.984 141.584 60.984C141.582 60.984 141.581 60.984 141.579 60.984C141.577 60.984 141.576 60.984 141.574 60.984C141.572 60.984 141.571 60.984 141.569 60.984C141.567 60.984 141.565 60.984 141.564 60.984C141.562 60.984 141.56 60.984 141.559 60.984C141.557 60.984 141.555 60.984 141.554 60.984C141.552 60.984 141.55 60.984 141.549 60.984C141.547 60.984 141.545 60.984 141.543 60.984C141.542 60.984 141.54 60.984 141.538 60.984C141.537 60.984 141.535 60.984 141.533 60.984C141.532 60.984 141.53 60.984 141.528 60.984C141.527 60.984 141.525 60.984 141.523 60.984C141.521 60.984 141.52 60.984 141.518 60.984C141.516 60.984 141.515 60.984 141.513 60.984C141.511 60.984 141.51 60.984 141.508 60.984C141.506 60.984 141.504 60.984 141.503 60.984C141.501 60.984 141.499 60.984 141.498 60.984C141.496 60.984 141.494 60.984 141.493 60.984C141.491 60.984 141.489 60.984 141.488 60.984C141.486 60.984 141.484 60.984 141.482 60.984C141.481 60.984 141.479 60.984 141.477 60.984C141.476 60.984 141.474 60.984 141.472 60.984C141.471 60.984 141.469 60.984 141.467 60.984C141.465 60.984 141.464 60.984 141.462 60.984C141.46 60.984 141.459 60.984 141.457 60.984C141.455 60.984 141.454 60.984 141.452 60.984C141.45 60.984 141.448 60.984 141.447 60.984C141.445 60.984 141.443 60.984 141.442 60.984C141.44 60.984 141.438 60.984 141.437 60.984C141.435 60.984 141.433 60.984 141.432 60.984C141.43 60.984 141.428 60.984 141.426 60.984C141.425 60.984 141.423 60.984 141.421 60.984C141.42 60.984 141.418 60.984 141.416 60.984C141.415 60.984 141.413 60.984 141.411 60.984C141.409 60.984 141.408 60.984 141.406 60.984C141.404 60.984 141.403 60.984 141.401 60.984C141.399 60.984 141.398 60.984 141.396 60.984C141.394 60.984 141.392 60.984 141.391 60.984C141.389 60.984 141.387 60.984 141.386 60.984C141.384 60.984 141.382 60.984 141.381 60.984C141.379 60.984 141.377 60.984 141.375 60.984C141.374 60.984 141.372 60.984 141.37 60.984C141.369 60.984 141.367 60.984 141.365 60.984C141.363 60.984 141.362 60.984 141.36 60.984C141.358 60.984 141.357 60.984 141.355 60.984C141.353 60.984 141.352 60.984 141.35 60.984C141.348 60.984 141.346 60.984 141.345 60.984C141.343 60.984 141.341 60.984 141.34 60.984C141.338 60.984 141.336 60.984 141.335 60.984C141.333 60.984 141.331 60.984 141.329 60.984C141.328 60.984 141.326 60.984 141.324 60.984C141.323 60.984 141.321 60.984 141.319 60.984C141.318 60.984 141.316 60.984 141.314 60.984C141.312 60.984 141.311 60.984 141.309 60.984C141.307 60.984 141.306 60.984 141.304 60.984C141.302 60.984 141.3 60.984 141.299 60.984C141.297 60.984 141.295 60.984 141.294 60.984C141.292 60.984 141.29 60.984 141.289 60.984C141.287 60.984 141.285 60.984 141.283 60.984C141.282 60.984 141.28 60.984 141.278 60.984C141.277 60.984 141.275 60.984 141.273 60.984C141.271 60.984 141.27 60.984 141.268 60.984C141.266 60.984 141.265 60.984 141.263 60.984C141.261 60.984 141.26 60.984 141.258 60.984C141.256 60.984 141.254 60.984 141.253 60.984C141.251 60.984 141.249 60.984 141.248 60.984C141.246 60.984 141.244 60.984 141.242 60.984C141.241 60.984 141.239 60.984 141.237 60.984C141.236 60.984 141.234 60.984 141.232 60.984C141.23 60.984 141.229 60.984 141.227 60.984C141.225 60.984 141.224 60.984 141.222 60.984C141.22 60.984 141.219 60.984 141.217 60.984C141.215 60.984 141.213 60.984 141.212 60.984C141.21 60.984 141.208 60.984 141.207 60.984C141.205 60.984 141.203 60.984 141.201 60.984C141.2 60.984 141.198 60.984 141.196 60.984C141.195 60.984 141.193 60.984 141.191 60.984C141.189 60.984 141.188 60.984 141.186 60.984C141.184 60.984 141.183 60.984 141.181 60.984C141.179 60.984 141.177 60.984 141.176 60.984C141.174 60.984 141.172 60.984 141.171 60.984C141.169 60.984 141.167 60.984 141.166 60.984C141.164 60.984 141.162 60.984 141.16 60.984C141.159 60.984 141.157 60.984 141.155 60.984C141.154 60.984 141.152 60.984 141.15 60.984C141.148 60.984 141.147 60.984 141.145 60.984C141.143 60.984 141.142 60.984 141.14 60.984C141.138 60.984 141.136 60.984 141.135 60.984C141.133 60.984 141.131 60.984 141.13 60.984C141.128 60.984 141.126 60.984 141.124 60.984C141.123 60.984 141.121 60.984 141.119 60.984C141.118 60.984 141.116 60.984 141.114 60.984C141.112 60.984 141.111 60.984 141.109 60.984C141.107 60.984 141.106 60.984 141.104 60.984C141.102 60.984 141.1 60.984 141.099 60.984C141.097 60.984 141.095 60.984 141.094 60.984C141.092 60.984 141.09 60.984 141.088 60.984C141.087 60.984 141.085 60.984 141.083 60.984C141.082 60.984 141.08 60.984 141.078 60.984C141.076 60.984 141.075 60.984 141.073 60.984C141.071 60.984 141.07 60.984 141.068 60.984C141.066 60.984 141.064 60.984 141.063 60.984C141.061 60.984 141.059 60.984 141.058 60.984C141.056 60.984 141.054 60.984 141.052 60.984C141.051 60.984 141.049 60.984 141.047 60.984C141.046 60.984 141.044 60.984 141.042 60.984C141.04 60.984 141.039 60.984 141.037 60.984C141.035 60.984 141.033 60.984 141.032 60.984C141.03 60.984 141.028 60.984 141.027 60.984C141.025 60.984 141.023 60.984 141.021 60.984C141.02 60.984 141.018 60.984 141.016 60.984C141.015 60.984 141.013 60.984 141.011 60.984C141.009 60.984 141.008 60.984 141.006 60.984C141.004 60.984 141.003 60.984 141.001 60.984C140.999 60.984 140.997 60.984 140.996 60.984C140.994 60.984 140.992 60.984 140.991 60.984C140.989 60.984 140.987 60.984 140.985 60.984C140.984 60.984 140.982 60.984 140.98 60.984C140.978 60.984 140.977 60.984 140.975 60.984C140.973 60.984 140.972 60.984 140.97 60.984C140.968 60.984 140.966 60.984 140.965 60.984C140.963 60.984 140.961 60.984 140.96 60.984C140.958 60.984 140.956 60.984 140.954 60.984C140.953 60.984 140.951 60.984 140.949 60.984C140.948 60.984 140.946 60.984 140.944 60.984C140.942 60.984 140.941 60.984 140.939 60.984C140.937 60.984 140.935 60.984 140.934 60.984C140.932 60.984 140.93 60.984 140.929 60.984C140.927 60.984 140.925 60.984 140.923 60.984C140.922 60.984 140.92 60.984 140.918 60.984C140.917 60.984 140.915 60.984 140.913 60.984C140.911 60.984 140.91 60.984 140.908 60.984C140.906 60.984 140.904 60.984 140.903 60.984C140.901 60.984 140.899 60.984 140.898 60.984C140.896 60.984 140.894 60.984 140.892 60.984C140.891 60.984 140.889 60.984 140.887 60.984C140.885 60.984 140.884 60.984 140.882 60.984C140.88 60.984 140.879 60.984 140.877 60.984C140.875 60.984 140.873 60.984 140.872 60.984C140.87 60.984 140.868 60.984 140.866 60.984C140.865 60.984 140.863 60.984 140.861 60.984C140.86 60.984 140.858 60.984 140.856 60.984C140.854 60.984 140.853 60.984 140.851 60.984C140.849 60.984 140.848 60.984 140.846 60.984C140.844 60.984 140.842 60.984 140.841 60.984C140.839 60.984 140.837 60.984 140.835 60.984C140.834 60.984 140.832 60.984 140.83 60.984C140.829 60.984 140.827 60.984 140.825 60.984C140.823 60.984 140.822 60.984 140.82 60.984C140.818 60.984 140.816 60.984 140.815 60.984C140.813 60.984 140.811 60.984 140.81 60.984C140.808 60.984 140.806 60.984 140.804 60.984C140.803 60.984 140.801 60.984 140.799 60.984C140.797 60.984 140.796 60.984 140.794 60.984C140.792 60.984 140.79 60.984 140.789 60.984C140.787 60.984 140.785 60.984 140.784 60.984C140.782 60.984 140.78 60.984 140.778 60.984C140.777 60.984 140.775 60.984 140.773 60.984C140.771 60.984 140.77 60.984 140.768 60.984C140.766 60.984 140.765 60.984 140.763 60.984C140.761 60.984 140.759 60.984 140.758 60.984C140.756 60.984 140.754 60.984 140.752 60.984C140.751 60.984 140.749 60.984 140.747 60.984C140.746 60.984 140.744 60.984 140.742 60.984C140.74 60.984 140.739 60.984 140.737 60.984C140.735 60.984 140.733 60.984 140.732 60.984C140.73 60.984 140.728 60.984 140.726 60.984C140.725 60.984 140.723 60.984 140.721 60.984C140.72 60.984 140.718 60.984 140.716 60.984C140.714 60.984 140.713 60.984 140.711 60.984C140.709 60.984 140.707 60.984 140.706 60.984C140.704 60.984 140.702 60.984 140.7 60.984C140.699 60.984 140.697 60.984 140.695 60.984C140.694 60.984 140.692 60.984 140.69 60.984C140.688 60.984 140.687 60.984 140.685 60.984C140.683 60.984 140.681 60.984 140.68 60.984C140.678 60.984 140.676 60.984 140.674 60.984C140.673 60.984 140.671 60.984 140.669 60.984C140.668 60.984 140.666 60.984 140.664 60.984C140.662 60.984 140.661 60.984 140.659 60.984C140.657 60.984 140.655 60.984 140.654 60.984C140.652 60.984 140.65 60.984 140.648 60.984C140.647 60.984 140.645 60.984 140.643 60.984C140.641 60.984 140.64 60.984 140.638 60.984C140.636 60.984 140.635 60.984 140.633 60.984C140.631 60.984 140.629 60.984 140.628 60.984C140.626 60.984 140.624 60.984 140.622 60.984C140.621 60.984 140.619 60.984 140.617 60.984C140.615 60.984 140.614 60.984 140.612 60.984C140.61 60.984 140.608 60.984 140.607 60.984C140.605 60.984 140.603 60.984 140.602 60.984C140.6 60.984 140.598 60.984 140.596 60.984C140.595 60.984 140.593 60.984 140.591 60.984C140.589 60.984 140.588 60.984 140.586 60.984C140.584 60.984 140.582 60.984 140.581 60.984C140.579 60.984 140.577 60.984 140.575 60.984C140.574 60.984 140.572 60.984 140.57 60.984C140.568 60.984 140.567 60.984 140.565 60.984C140.563 60.984 140.562 60.984 140.56 60.984C140.558 60.984 140.556 60.984 140.555 60.984C140.553 60.984 140.551 60.984 140.549 60.984C140.548 60.984 140.546 60.984 140.544 60.984C140.542 60.984 140.541 60.984 140.539 60.984C140.537 60.984 140.535 60.984 140.534 60.984C140.532 60.984 140.53 60.984 140.528 60.984C140.527 60.984 140.525 60.984 140.523 60.984C140.521 60.984 140.52 60.984 140.518 60.984C140.516 60.984 140.515 60.984 140.513 60.984C140.511 60.984 140.509 60.984 140.508 60.984C140.506 60.984 140.504 60.984 140.502 60.984C140.501 60.984 140.499 60.984 140.497 60.984C140.495 60.984 140.494 60.984 140.492 60.984C140.49 60.984 140.488 60.984 140.487 60.984C140.485 60.984 140.483 60.984 140.481 60.984C140.48 60.984 140.478 60.984 140.476 60.984C140.474 60.984 140.473 60.984 140.471 60.984C140.469 60.984 140.467 60.984 140.466 60.984C140.464 60.984 140.462 60.984 140.46 60.984C140.459 60.984 140.457 60.984 140.455 60.984C140.453 60.984 140.452 60.984 140.45 60.984C140.448 60.984 140.447 60.984 140.445 60.984C140.443 60.984 140.441 60.984 140.44 60.984C140.438 60.984 140.436 60.984 140.434 60.984C140.433 60.984 140.431 60.984 140.429 60.984C140.427 60.984 140.426 60.984 140.424 60.984C140.422 60.984 140.42 60.984 140.419 60.984C140.417 60.984 140.415 60.984 140.413 60.984C140.412 60.984 140.41 60.984 140.408 60.984C140.406 60.984 140.405 60.984 140.403 60.984C140.401 60.984 140.399 60.984 140.398 60.984C140.396 60.984 140.394 60.984 140.392 60.984C140.391 60.984 140.389 60.984 140.387 60.984C140.385 60.984 140.384 60.984 140.382 60.984C140.38 60.984 140.378 60.984 140.377 60.984C140.375 60.984 140.373 60.984 140.371 60.984C140.37 60.984 140.368 60.984 140.366 60.984C140.364 60.984 140.363 60.984 140.361 60.984C140.359 60.984 140.357 60.984 140.356 60.984C140.354 60.984 140.352 60.984 140.35 60.984C140.349 60.984 140.347 60.984 140.345 60.984V68.984C140.347 68.984 140.349 68.984 140.35 68.984C140.352 68.984 140.354 68.984 140.356 68.984C140.357 68.984 140.359 68.984 140.361 68.984C140.363 68.984 140.364 68.984 140.366 68.984C140.368 68.984 140.37 68.984 140.371 68.984C140.373 68.984 140.375 68.984 140.377 68.984C140.378 68.984 140.38 68.984 140.382 68.984C140.384 68.984 140.385 68.984 140.387 68.984C140.389 68.984 140.391 68.984 140.392 68.984C140.394 68.984 140.396 68.984 140.398 68.984C140.399 68.984 140.401 68.984 140.403 68.984C140.405 68.984 140.406 68.984 140.408 68.984C140.41 68.984 140.412 68.984 140.413 68.984C140.415 68.984 140.417 68.984 140.419 68.984C140.42 68.984 140.422 68.984 140.424 68.984C140.426 68.984 140.427 68.984 140.429 68.984C140.431 68.984 140.433 68.984 140.434 68.984C140.436 68.984 140.438 68.984 140.44 68.984C140.441 68.984 140.443 68.984 140.445 68.984C140.447 68.984 140.448 68.984 140.45 68.984C140.452 68.984 140.453 68.984 140.455 68.984C140.457 68.984 140.459 68.984 140.46 68.984C140.462 68.984 140.464 68.984 140.466 68.984C140.467 68.984 140.469 68.984 140.471 68.984C140.473 68.984 140.474 68.984 140.476 68.984C140.478 68.984 140.48 68.984 140.481 68.984C140.483 68.984 140.485 68.984 140.487 68.984C140.488 68.984 140.49 68.984 140.492 68.984C140.494 68.984 140.495 68.984 140.497 68.984C140.499 68.984 140.501 68.984 140.502 68.984C140.504 68.984 140.506 68.984 140.508 68.984C140.509 68.984 140.511 68.984 140.513 68.984C140.515 68.984 140.516 68.984 140.518 68.984C140.52 68.984 140.521 68.984 140.523 68.984C140.525 68.984 140.527 68.984 140.528 68.984C140.53 68.984 140.532 68.984 140.534 68.984C140.535 68.984 140.537 68.984 140.539 68.984C140.541 68.984 140.542 68.984 140.544 68.984C140.546 68.984 140.548 68.984 140.549 68.984C140.551 68.984 140.553 68.984 140.555 68.984C140.556 68.984 140.558 68.984 140.56 68.984C140.562 68.984 140.563 68.984 140.565 68.984C140.567 68.984 140.568 68.984 140.57 68.984C140.572 68.984 140.574 68.984 140.575 68.984C140.577 68.984 140.579 68.984 140.581 68.984C140.582 68.984 140.584 68.984 140.586 68.984C140.588 68.984 140.589 68.984 140.591 68.984C140.593 68.984 140.595 68.984 140.596 68.984C140.598 68.984 140.6 68.984 140.602 68.984C140.603 68.984 140.605 68.984 140.607 68.984C140.608 68.984 140.61 68.984 140.612 68.984C140.614 68.984 140.615 68.984 140.617 68.984C140.619 68.984 140.621 68.984 140.622 68.984C140.624 68.984 140.626 68.984 140.628 68.984C140.629 68.984 140.631 68.984 140.633 68.984C140.635 68.984 140.636 68.984 140.638 68.984C140.64 68.984 140.641 68.984 140.643 68.984C140.645 68.984 140.647 68.984 140.648 68.984C140.65 68.984 140.652 68.984 140.654 68.984C140.655 68.984 140.657 68.984 140.659 68.984C140.661 68.984 140.662 68.984 140.664 68.984C140.666 68.984 140.668 68.984 140.669 68.984C140.671 68.984 140.673 68.984 140.674 68.984C140.676 68.984 140.678 68.984 140.68 68.984C140.681 68.984 140.683 68.984 140.685 68.984C140.687 68.984 140.688 68.984 140.69 68.984C140.692 68.984 140.694 68.984 140.695 68.984C140.697 68.984 140.699 68.984 140.7 68.984C140.702 68.984 140.704 68.984 140.706 68.984C140.707 68.984 140.709 68.984 140.711 68.984C140.713 68.984 140.714 68.984 140.716 68.984C140.718 68.984 140.72 68.984 140.721 68.984C140.723 68.984 140.725 68.984 140.726 68.984C140.728 68.984 140.73 68.984 140.732 68.984C140.733 68.984 140.735 68.984 140.737 68.984C140.739 68.984 140.74 68.984 140.742 68.984C140.744 68.984 140.746 68.984 140.747 68.984C140.749 68.984 140.751 68.984 140.752 68.984C140.754 68.984 140.756 68.984 140.758 68.984C140.759 68.984 140.761 68.984 140.763 68.984C140.765 68.984 140.766 68.984 140.768 68.984C140.77 68.984 140.771 68.984 140.773 68.984C140.775 68.984 140.777 68.984 140.778 68.984C140.78 68.984 140.782 68.984 140.784 68.984C140.785 68.984 140.787 68.984 140.789 68.984C140.79 68.984 140.792 68.984 140.794 68.984C140.796 68.984 140.797 68.984 140.799 68.984C140.801 68.984 140.803 68.984 140.804 68.984C140.806 68.984 140.808 68.984 140.81 68.984C140.811 68.984 140.813 68.984 140.815 68.984C140.816 68.984 140.818 68.984 140.82 68.984C140.822 68.984 140.823 68.984 140.825 68.984C140.827 68.984 140.829 68.984 140.83 68.984C140.832 68.984 140.834 68.984 140.835 68.984C140.837 68.984 140.839 68.984 140.841 68.984C140.842 68.984 140.844 68.984 140.846 68.984C140.848 68.984 140.849 68.984 140.851 68.984C140.853 68.984 140.854 68.984 140.856 68.984C140.858 68.984 140.86 68.984 140.861 68.984C140.863 68.984 140.865 68.984 140.866 68.984C140.868 68.984 140.87 68.984 140.872 68.984C140.873 68.984 140.875 68.984 140.877 68.984C140.879 68.984 140.88 68.984 140.882 68.984C140.884 68.984 140.885 68.984 140.887 68.984C140.889 68.984 140.891 68.984 140.892 68.984C140.894 68.984 140.896 68.984 140.898 68.984C140.899 68.984 140.901 68.984 140.903 68.984C140.904 68.984 140.906 68.984 140.908 68.984C140.91 68.984 140.911 68.984 140.913 68.984C140.915 68.984 140.917 68.984 140.918 68.984C140.92 68.984 140.922 68.984 140.923 68.984C140.925 68.984 140.927 68.984 140.929 68.984C140.93 68.984 140.932 68.984 140.934 68.984C140.935 68.984 140.937 68.984 140.939 68.984C140.941 68.984 140.942 68.984 140.944 68.984C140.946 68.984 140.948 68.984 140.949 68.984C140.951 68.984 140.953 68.984 140.954 68.984C140.956 68.984 140.958 68.984 140.96 68.984C140.961 68.984 140.963 68.984 140.965 68.984C140.966 68.984 140.968 68.984 140.97 68.984C140.972 68.984 140.973 68.984 140.975 68.984C140.977 68.984 140.978 68.984 140.98 68.984C140.982 68.984 140.984 68.984 140.985 68.984C140.987 68.984 140.989 68.984 140.991 68.984C140.992 68.984 140.994 68.984 140.996 68.984C140.997 68.984 140.999 68.984 141.001 68.984C141.003 68.984 141.004 68.984 141.006 68.984C141.008 68.984 141.009 68.984 141.011 68.984C141.013 68.984 141.015 68.984 141.016 68.984C141.018 68.984 141.02 68.984 141.021 68.984C141.023 68.984 141.025 68.984 141.027 68.984C141.028 68.984 141.03 68.984 141.032 68.984C141.033 68.984 141.035 68.984 141.037 68.984C141.039 68.984 141.04 68.984 141.042 68.984C141.044 68.984 141.046 68.984 141.047 68.984C141.049 68.984 141.051 68.984 141.052 68.984C141.054 68.984 141.056 68.984 141.058 68.984C141.059 68.984 141.061 68.984 141.063 68.984C141.064 68.984 141.066 68.984 141.068 68.984C141.07 68.984 141.071 68.984 141.073 68.984C141.075 68.984 141.076 68.984 141.078 68.984C141.08 68.984 141.082 68.984 141.083 68.984C141.085 68.984 141.087 68.984 141.088 68.984C141.09 68.984 141.092 68.984 141.094 68.984C141.095 68.984 141.097 68.984 141.099 68.984C141.1 68.984 141.102 68.984 141.104 68.984C141.106 68.984 141.107 68.984 141.109 68.984C141.111 68.984 141.112 68.984 141.114 68.984C141.116 68.984 141.118 68.984 141.119 68.984C141.121 68.984 141.123 68.984 141.124 68.984C141.126 68.984 141.128 68.984 141.13 68.984C141.131 68.984 141.133 68.984 141.135 68.984C141.136 68.984 141.138 68.984 141.14 68.984C141.142 68.984 141.143 68.984 141.145 68.984C141.147 68.984 141.148 68.984 141.15 68.984C141.152 68.984 141.154 68.984 141.155 68.984C141.157 68.984 141.159 68.984 141.16 68.984C141.162 68.984 141.164 68.984 141.166 68.984C141.167 68.984 141.169 68.984 141.171 68.984C141.172 68.984 141.174 68.984 141.176 68.984C141.177 68.984 141.179 68.984 141.181 68.984C141.183 68.984 141.184 68.984 141.186 68.984C141.188 68.984 141.189 68.984 141.191 68.984C141.193 68.984 141.195 68.984 141.196 68.984C141.198 68.984 141.2 68.984 141.201 68.984C141.203 68.984 141.205 68.984 141.207 68.984C141.208 68.984 141.21 68.984 141.212 68.984C141.213 68.984 141.215 68.984 141.217 68.984C141.219 68.984 141.22 68.984 141.222 68.984C141.224 68.984 141.225 68.984 141.227 68.984C141.229 68.984 141.23 68.984 141.232 68.984C141.234 68.984 141.236 68.984 141.237 68.984C141.239 68.984 141.241 68.984 141.242 68.984C141.244 68.984 141.246 68.984 141.248 68.984C141.249 68.984 141.251 68.984 141.253 68.984C141.254 68.984 141.256 68.984 141.258 68.984C141.26 68.984 141.261 68.984 141.263 68.984C141.265 68.984 141.266 68.984 141.268 68.984C141.27 68.984 141.271 68.984 141.273 68.984C141.275 68.984 141.277 68.984 141.278 68.984C141.28 68.984 141.282 68.984 141.283 68.984C141.285 68.984 141.287 68.984 141.289 68.984C141.29 68.984 141.292 68.984 141.294 68.984C141.295 68.984 141.297 68.984 141.299 68.984C141.3 68.984 141.302 68.984 141.304 68.984C141.306 68.984 141.307 68.984 141.309 68.984C141.311 68.984 141.312 68.984 141.314 68.984C141.316 68.984 141.318 68.984 141.319 68.984C141.321 68.984 141.323 68.984 141.324 68.984C141.326 68.984 141.328 68.984 141.329 68.984C141.331 68.984 141.333 68.984 141.335 68.984C141.336 68.984 141.338 68.984 141.34 68.984C141.341 68.984 141.343 68.984 141.345 68.984C141.346 68.984 141.348 68.984 141.35 68.984C141.352 68.984 141.353 68.984 141.355 68.984C141.357 68.984 141.358 68.984 141.36 68.984C141.362 68.984 141.363 68.984 141.365 68.984C141.367 68.984 141.369 68.984 141.37 68.984C141.372 68.984 141.374 68.984 141.375 68.984C141.377 68.984 141.379 68.984 141.381 68.984C141.382 68.984 141.384 68.984 141.386 68.984C141.387 68.984 141.389 68.984 141.391 68.984C141.392 68.984 141.394 68.984 141.396 68.984C141.398 68.984 141.399 68.984 141.401 68.984C141.403 68.984 141.404 68.984 141.406 68.984C141.408 68.984 141.409 68.984 141.411 68.984C141.413 68.984 141.415 68.984 141.416 68.984C141.418 68.984 141.42 68.984 141.421 68.984C141.423 68.984 141.425 68.984 141.426 68.984C141.428 68.984 141.43 68.984 141.432 68.984C141.433 68.984 141.435 68.984 141.437 68.984C141.438 68.984 141.44 68.984 141.442 68.984C141.443 68.984 141.445 68.984 141.447 68.984C141.448 68.984 141.45 68.984 141.452 68.984C141.454 68.984 141.455 68.984 141.457 68.984C141.459 68.984 141.46 68.984 141.462 68.984C141.464 68.984 141.465 68.984 141.467 68.984C141.469 68.984 141.471 68.984 141.472 68.984C141.474 68.984 141.476 68.984 141.477 68.984C141.479 68.984 141.481 68.984 141.482 68.984C141.484 68.984 141.486 68.984 141.488 68.984C141.489 68.984 141.491 68.984 141.493 68.984C141.494 68.984 141.496 68.984 141.498 68.984C141.499 68.984 141.501 68.984 141.503 68.984C141.504 68.984 141.506 68.984 141.508 68.984C141.51 68.984 141.511 68.984 141.513 68.984C141.515 68.984 141.516 68.984 141.518 68.984C141.52 68.984 141.521 68.984 141.523 68.984C141.525 68.984 141.527 68.984 141.528 68.984C141.53 68.984 141.532 68.984 141.533 68.984C141.535 68.984 141.537 68.984 141.538 68.984C141.54 68.984 141.542 68.984 141.543 68.984C141.545 68.984 141.547 68.984 141.549 68.984C141.55 68.984 141.552 68.984 141.554 68.984C141.555 68.984 141.557 68.984 141.559 68.984C141.56 68.984 141.562 68.984 141.564 68.984C141.565 68.984 141.567 68.984 141.569 68.984C141.571 68.984 141.572 68.984 141.574 68.984C141.576 68.984 141.577 68.984 141.579 68.984C141.581 68.984 141.582 68.984 141.584 68.984C141.586 68.984 141.587 68.984 141.589 68.984C141.591 68.984 141.593 68.984 141.594 68.984C141.596 68.984 141.598 68.984 141.599 68.984C141.601 68.984 141.603 68.984 141.604 68.984C141.606 68.984 141.608 68.984 141.609 68.984C141.611 68.984 141.613 68.984 141.614 68.984C141.616 68.984 141.618 68.984 141.62 68.984C141.621 68.984 141.623 68.984 141.625 68.984C141.626 68.984 141.628 68.984 141.63 68.984C141.631 68.984 141.633 68.984 141.635 68.984C141.636 68.984 141.638 68.984 141.64 68.984C141.642 68.984 141.643 68.984 141.645 68.984C141.647 68.984 141.648 68.984 141.65 68.984C141.652 68.984 141.653 68.984 141.655 68.984C141.657 68.984 141.658 68.984 141.66 68.984C141.662 68.984 141.663 68.984 141.665 68.984C141.667 68.984 141.669 68.984 141.67 68.984C141.672 68.984 141.674 68.984 141.675 68.984C141.677 68.984 141.679 68.984 141.68 68.984C141.682 68.984 141.684 68.984 141.685 68.984C141.687 68.984 141.689 68.984 141.69 68.984C141.692 68.984 141.694 68.984 141.696 68.984C141.697 68.984 141.699 68.984 141.701 68.984C141.702 68.984 141.704 68.984 141.706 68.984C141.707 68.984 141.709 68.984 141.711 68.984C141.712 68.984 141.714 68.984 141.716 68.984C141.717 68.984 141.719 68.984 141.721 68.984C141.722 68.984 141.724 68.984 141.726 68.984C141.728 68.984 141.729 68.984 141.731 68.984C141.733 68.984 141.734 68.984 141.736 68.984C141.738 68.984 141.739 68.984 141.741 68.984C141.743 68.984 141.744 68.984 141.746 68.984C141.748 68.984 141.749 68.984 141.751 68.984C141.753 68.984 141.754 68.984 141.756 68.984C141.758 68.984 141.76 68.984 141.761 68.984C141.763 68.984 141.765 68.984 141.766 68.984C141.768 68.984 141.77 68.984 141.771 68.984C141.773 68.984 141.775 68.984 141.776 68.984C141.778 68.984 141.78 68.984 141.781 68.984C141.783 68.984 141.785 68.984 141.786 68.984C141.788 68.984 141.79 68.984 141.791 68.984C141.793 68.984 141.795 68.984 141.797 68.984C141.798 68.984 141.8 68.984 141.802 68.984C141.803 68.984 141.805 68.984 141.807 68.984C141.808 68.984 141.81 68.984 141.812 68.984C141.813 68.984 141.815 68.984 141.817 68.984C141.818 68.984 141.82 68.984 141.822 68.984C141.823 68.984 141.825 68.984 141.827 68.984C141.828 68.984 141.83 68.984 141.832 68.984C141.834 68.984 141.835 68.984 141.837 68.984C141.839 68.984 141.84 68.984 141.842 68.984C141.844 68.984 141.845 68.984 141.847 68.984C141.849 68.984 141.85 68.984 141.852 68.984C141.854 68.984 141.855 68.984 141.857 68.984C141.859 68.984 141.86 68.984 141.862 68.984C141.864 68.984 141.865 68.984 141.867 68.984C141.869 68.984 141.87 68.984 141.872 68.984C141.874 68.984 141.875 68.984 141.877 68.984C141.879 68.984 141.88 68.984 141.882 68.984C141.884 68.984 141.886 68.984 141.887 68.984C141.889 68.984 141.891 68.984 141.892 68.984C141.894 68.984 141.896 68.984 141.897 68.984C141.899 68.984 141.901 68.984 141.902 68.984C141.904 68.984 141.906 68.984 141.907 68.984C141.909 68.984 141.911 68.984 141.912 68.984C141.914 68.984 141.916 68.984 141.917 68.984C141.919 68.984 141.921 68.984 141.922 68.984C141.924 68.984 141.926 68.984 141.927 68.984C141.929 68.984 141.931 68.984 141.932 68.984C141.934 68.984 141.936 68.984 141.937 68.984C141.939 68.984 141.941 68.984 141.942 68.984C141.944 68.984 141.946 68.984 141.948 68.984C141.949 68.984 141.951 68.984 141.953 68.984C141.954 68.984 141.956 68.984 141.958 68.984C141.959 68.984 141.961 68.984 141.963 68.984C141.964 68.984 141.966 68.984 141.968 68.984C141.969 68.984 141.971 68.984 141.973 68.984C141.974 68.984 141.976 68.984 141.978 68.984C141.979 68.984 141.981 68.984 141.983 68.984C141.984 68.984 141.986 68.984 141.988 68.984C141.989 68.984 141.991 68.984 141.993 68.984C141.994 68.984 141.996 68.984 141.998 68.984C141.999 68.984 142.001 68.984 142.003 68.984C142.004 68.984 142.006 68.984 142.008 68.984C142.009 68.984 142.011 68.984 142.013 68.984C142.014 68.984 142.016 68.984 142.018 68.984C142.019 68.984 142.021 68.984 142.023 68.984C142.024 68.984 142.026 68.984 142.028 68.984C142.029 68.984 142.031 68.984 142.033 68.984C142.034 68.984 142.036 68.984 142.038 68.984C142.039 68.984 142.041 68.984 142.043 68.984C142.044 68.984 142.046 68.984 142.048 68.984C142.049 68.984 142.051 68.984 142.053 68.984C142.054 68.984 142.056 68.984 142.058 68.984C142.059 68.984 142.061 68.984 142.063 68.984C142.064 68.984 142.066 68.984 142.068 68.984C142.069 68.984 142.071 68.984 142.073 68.984C142.074 68.984 142.076 68.984 142.078 68.984C142.079 68.984 142.081 68.984 142.083 68.984C142.084 68.984 142.086 68.984 142.088 68.984C142.089 68.984 142.091 68.984 142.093 68.984C142.094 68.984 142.096 68.984 142.098 68.984C142.099 68.984 142.101 68.984 142.103 68.984C142.104 68.984 142.106 68.984 142.108 68.984C142.109 68.984 142.111 68.984 142.113 68.984C142.114 68.984 142.116 68.984 142.118 68.984C142.119 68.984 142.121 68.984 142.123 68.984C142.124 68.984 142.126 68.984 142.128 68.984C142.129 68.984 142.131 68.984 142.133 68.984C142.134 68.984 142.136 68.984 142.138 68.984C142.139 68.984 142.141 68.984 142.143 68.984C142.144 68.984 142.146 68.984 142.148 68.984C142.149 68.984 142.151 68.984 142.153 68.984C142.154 68.984 142.156 68.984 142.158 68.984C142.159 68.984 142.161 68.984 142.163 68.984C142.164 68.984 142.166 68.984 142.168 68.984C142.169 68.984 142.171 68.984 142.173 68.984C142.174 68.984 142.176 68.984 142.178 68.984C142.179 68.984 142.181 68.984 142.183 68.984C142.184 68.984 142.186 68.984 142.188 68.984C142.189 68.984 142.191 68.984 142.193 68.984C142.194 68.984 142.196 68.984 142.198 68.984C142.199 68.984 142.201 68.984 142.203 68.984C142.204 68.984 142.206 68.984 142.208 68.984C142.209 68.984 142.211 68.984 142.213 68.984C142.214 68.984 142.216 68.984 142.218 68.984C142.219 68.984 142.221 68.984 142.223 68.984C142.224 68.984 142.226 68.984 142.228 68.984C142.229 68.984 142.231 68.984 142.233 68.984C142.234 68.984 142.236 68.984 142.238 68.984C142.239 68.984 142.241 68.984 142.243 68.984C142.244 68.984 142.246 68.984 142.247 68.984C142.249 68.984 142.251 68.984 142.252 68.984C142.254 68.984 142.256 68.984 142.257 68.984C142.259 68.984 142.261 68.984 142.262 68.984C142.264 68.984 142.266 68.984 142.267 68.984C142.269 68.984 142.271 68.984 142.272 68.984C142.274 68.984 142.276 68.984 142.277 68.984C142.279 68.984 142.281 68.984 142.282 68.984C142.284 68.984 142.286 68.984 142.287 68.984C142.289 68.984 142.291 68.984 142.292 68.984C142.294 68.984 142.296 68.984 142.297 68.984C142.299 68.984 142.301 68.984 142.302 68.984C142.304 68.984 142.306 68.984 142.307 68.984C142.309 68.984 142.31 68.984 142.312 68.984C142.314 68.984 142.315 68.984 142.317 68.984C142.319 68.984 142.32 68.984 142.322 68.984C142.324 68.984 142.325 68.984 142.327 68.984C142.329 68.984 142.33 68.984 142.332 68.984C142.334 68.984 142.335 68.984 142.337 68.984C142.339 68.984 142.34 68.984 142.342 68.984C142.344 68.984 142.345 68.984 142.347 68.984C142.349 68.984 142.35 68.984 142.352 68.984C142.354 68.984 142.355 68.984 142.357 68.984C142.358 68.984 142.36 68.984 142.362 68.984C142.363 68.984 142.365 68.984 142.367 68.984C142.368 68.984 142.37 68.984 142.372 68.984C142.373 68.984 142.375 68.984 142.377 68.984C142.378 68.984 142.38 68.984 142.382 68.984C142.383 68.984 142.385 68.984 142.387 68.984C142.388 68.984 142.39 68.984 142.392 68.984C142.393 68.984 142.395 68.984 142.396 68.984C142.398 68.984 142.4 68.984 142.401 68.984C142.403 68.984 142.405 68.984 142.406 68.984C142.408 68.984 142.41 68.984 142.411 68.984C142.413 68.984 142.415 68.984 142.416 68.984C142.418 68.984 142.42 68.984 142.421 68.984C142.423 68.984 142.425 68.984 142.426 68.984C142.428 68.984 142.429 68.984 142.431 68.984C142.433 68.984 142.434 68.984 142.436 68.984C142.438 68.984 142.439 68.984 142.441 68.984C142.443 68.984 142.444 68.984 142.446 68.984C142.448 68.984 142.449 68.984 142.451 68.984C142.453 68.984 142.454 68.984 142.456 68.984C142.458 68.984 142.459 68.984 142.461 68.984C142.462 68.984 142.464 68.984 142.466 68.984C142.467 68.984 142.469 68.984 142.471 68.984C142.472 68.984 142.474 68.984 142.476 68.984C142.477 68.984 142.479 68.984 142.481 68.984C142.482 68.984 142.484 68.984 142.486 68.984C142.487 68.984 142.489 68.984 142.491 68.984C142.492 68.984 142.494 68.984 142.495 68.984C142.497 68.984 142.499 68.984 142.5 68.984C142.502 68.984 142.504 68.984 142.505 68.984C142.507 68.984 142.509 68.984 142.51 68.984C142.512 68.984 142.514 68.984 142.515 68.984C142.517 68.984 142.518 68.984 142.52 68.984C142.522 68.984 142.523 68.984 142.525 68.984C142.527 68.984 142.528 68.984 142.53 68.984C142.532 68.984 142.533 68.984 142.535 68.984C142.537 68.984 142.538 68.984 142.54 68.984C142.542 68.984 142.543 68.984 142.545 68.984C142.546 68.984 142.548 68.984 142.55 68.984C142.551 68.984 142.553 68.984 142.555 68.984C142.556 68.984 142.558 68.984 142.56 68.984C142.561 68.984 142.563 68.984 142.565 68.984C142.566 68.984 142.568 68.984 142.569 68.984C142.571 68.984 142.573 68.984 142.574 68.984C142.576 68.984 142.578 68.984 142.579 68.984C142.581 68.984 142.583 68.984 142.584 68.984C142.586 68.984 142.588 68.984 142.589 68.984C142.591 68.984 142.592 68.984 142.594 68.984C142.596 68.984 142.597 68.984 142.599 68.984C142.601 68.984 142.602 68.984 142.604 68.984C142.606 68.984 142.607 68.984 142.609 68.984C142.611 68.984 142.612 68.984 142.614 68.984C142.615 68.984 142.617 68.984 142.619 68.984C142.62 68.984 142.622 68.984 142.624 68.984C142.625 68.984 142.627 68.984 142.629 68.984C142.63 68.984 142.632 68.984 142.633 68.984C142.635 68.984 142.637 68.984 142.638 68.984C142.64 68.984 142.642 68.984 142.643 68.984C142.645 68.984 142.647 68.984 142.648 68.984C142.65 68.984 142.652 68.984 142.653 68.984C142.655 68.984 142.656 68.984 142.658 68.984C142.66 68.984 142.661 68.984 142.663 68.984C142.665 68.984 142.666 68.984 142.668 68.984C142.67 68.984 142.671 68.984 142.673 68.984C142.674 68.984 142.676 68.984 142.678 68.984C142.679 68.984 142.681 68.984 142.683 68.984C142.684 68.984 142.686 68.984 142.688 68.984C142.689 68.984 142.691 68.984 142.692 68.984C142.694 68.984 142.696 68.984 142.697 68.984C142.699 68.984 142.701 68.984 142.702 68.984C142.704 68.984 142.706 68.984 142.707 68.984C142.709 68.984 142.71 68.984 142.712 68.984C142.714 68.984 142.715 68.984 142.717 68.984C142.719 68.984 142.72 68.984 142.722 68.984C142.724 68.984 142.725 68.984 142.727 68.984C142.728 68.984 142.73 68.984 142.732 68.984C142.733 68.984 142.735 68.984 142.737 68.984C142.738 68.984 142.74 68.984 142.742 68.984C142.743 68.984 142.745 68.984 142.746 68.984C142.748 68.984 142.75 68.984 142.751 68.984C142.753 68.984 142.755 68.984 142.756 68.984C142.758 68.984 142.76 68.984 142.761 68.984C142.763 68.984 142.764 68.984 142.766 68.984C142.768 68.984 142.769 68.984 142.771 68.984C142.773 68.984 142.774 68.984 142.776 68.984C142.778 68.984 142.779 68.984 142.781 68.984C142.782 68.984 142.784 68.984 142.786 68.984C142.787 68.984 142.789 68.984 142.791 68.984C142.792 68.984 142.794 68.984 142.795 68.984C142.797 68.984 142.799 68.984 142.8 68.984C142.802 68.984 142.804 68.984 142.805 68.984C142.807 68.984 142.809 68.984 142.81 68.984C142.812 68.984 142.813 68.984 142.815 68.984C142.817 68.984 142.818 68.984 142.82 68.984C142.822 68.984 142.823 68.984 142.825 68.984C142.826 68.984 142.828 68.984 142.83 68.984C142.831 68.984 142.833 68.984 142.835 68.984C142.836 68.984 142.838 68.984 142.84 68.984C142.841 68.984 142.843 68.984 142.844 68.984C142.846 68.984 142.848 68.984 142.849 68.984C142.851 68.984 142.853 68.984 142.854 68.984C142.856 68.984 142.857 68.984 142.859 68.984C142.861 68.984 142.862 68.984 142.864 68.984C142.866 68.984 142.867 68.984 142.869 68.984C142.87 68.984 142.872 68.984 142.874 68.984C142.875 68.984 142.877 68.984 142.879 68.984C142.88 68.984 142.882 68.984 142.883 68.984C142.885 68.984 142.887 68.984 142.888 68.984C142.89 68.984 142.892 68.984 142.893 68.984C142.895 68.984 142.897 68.984 142.898 68.984C142.9 68.984 142.901 68.984 142.903 68.984C142.905 68.984 142.906 68.984 142.908 68.984C142.91 68.984 142.911 68.984 142.913 68.984C142.914 68.984 142.916 68.984 142.918 68.984C142.919 68.984 142.921 68.984 142.923 68.984C142.924 68.984 142.926 68.984 142.927 68.984C142.929 68.984 142.931 68.984 142.932 68.984C142.934 68.984 142.936 68.984 142.937 68.984V60.984ZM140.345 60.984H131.993V68.984H140.345V60.984ZM127.993 64.984V91H135.993V64.984H127.993ZM131.993 87H122.681V95H131.993V87ZM126.681 91V25.432H118.681V91H126.681ZM123.629 29.3181C125.982 28.7441 128.653 28.3571 131.657 28.1768L131.178 20.1912C127.782 20.3949 124.628 20.8399 121.733 21.5459L123.629 29.3181ZM131.73 28.1717C134.911 27.9222 137.781 27.8 140.345 27.8V19.8C137.533 19.8 134.451 19.9338 131.104 20.1962L131.73 28.1717ZM140.345 27.8C149.284 27.8 155.415 29.5002 159.312 32.3205L164.002 25.8395C158.171 21.6198 150.094 19.8 140.345 19.8V27.8ZM159.332 32.3349C163.038 34.982 165.049 38.9144 165.049 44.824H173.049C173.049 36.7816 170.132 30.218 163.982 25.8251L159.332 32.3349ZM165.049 44.824C165.049 48.4831 164.084 51.3849 162.305 53.7416L168.689 58.5624C171.646 54.6471 173.049 49.9969 173.049 44.824H165.049ZM162.274 53.7837C160.559 56.1175 157.893 58.0358 153.944 59.3706L156.506 66.9494C161.645 65.2122 165.827 62.4585 168.721 58.5203L162.274 53.7837ZM141.113 27.96C137.109 27.96 133.925 28.0558 131.631 28.2644L132.355 36.2316C134.285 36.0562 137.181 35.96 141.113 35.96V27.96ZM127.993 32.248V57.304H135.993V32.248H127.993ZM131.993 61.304H138.617V53.304H131.993V61.304ZM138.617 61.304C141.945 61.304 144.995 61.1379 147.753 60.7931L146.761 52.8549C144.399 53.1501 141.689 53.304 138.617 53.304V61.304ZM147.753 60.7931C150.639 60.4324 153.27 59.7229 155.53 58.551L151.848 51.449C150.652 52.0691 148.995 52.5756 146.761 52.8549L147.753 60.7931ZM155.478 58.5777C157.898 57.3677 159.867 55.6148 161.247 53.314L154.387 49.198C153.848 50.0972 153.064 50.8403 151.9 51.4223L155.478 58.5777ZM161.282 53.2549C162.705 50.7879 163.257 47.8515 163.257 44.728H155.257C155.257 46.9805 154.849 48.3961 154.352 49.2571L161.282 53.2549ZM163.257 44.728C163.257 41.7351 162.682 38.9167 161.282 36.4891L154.352 40.4869C154.872 41.3873 155.257 42.7289 155.257 44.728H163.257ZM161.282 36.4891C159.971 34.2162 158.153 32.3986 155.88 31.0873L151.882 38.0167C152.937 38.6254 153.744 39.4318 154.352 40.4869L161.282 36.4891ZM155.939 31.122C153.833 29.8581 151.422 29.0435 148.797 28.5935L147.445 36.4785C149.3 36.7965 150.73 37.3259 151.823 37.982L155.939 31.122ZM148.816 28.5969C146.384 28.1676 143.813 27.96 141.113 27.96V35.96C143.406 35.96 145.507 36.1364 147.426 36.4751L148.816 28.5969ZM263.152 90.424L261.603 94.1119L263.152 90.424ZM255.28 84.952L252.255 87.5686L252.273 87.5891L252.291 87.6095L255.28 84.952ZM250.672 76.6L246.841 77.7494L246.852 77.7843L246.863 77.8191L250.672 76.6ZM249.232 24.472V20.472H245.232V24.472H249.232ZM258.544 24.472H262.544V20.472H258.544V24.472ZM262.96 79.672L265.819 76.8741L262.96 79.672ZM280.912 83.128L282.289 86.8835L282.323 86.8712L282.356 86.8583L280.912 83.128ZM286 79.672L283.052 76.9691L286 79.672ZM289.264 73.816L293.069 75.05L293.074 75.0353L293.079 75.0205L289.264 73.816ZM290.416 24.472V20.472H286.416V24.472H290.416ZM299.728 24.472H303.728V20.472H299.728V24.472ZM298.192 76.6L294.383 75.3809L294.372 75.4156L294.361 75.4506L298.192 76.6ZM293.584 84.952L290.599 82.2895L290.595 82.2945L293.584 84.952ZM285.712 90.424L284.163 86.7361L284.15 86.7417L284.137 86.7474L285.712 90.424ZM274.48 88.44C270.53 88.44 267.304 87.829 264.701 86.7361L261.603 94.1119C265.401 95.707 269.727 96.44 274.48 96.44V88.44ZM264.701 86.7361C261.983 85.5943 259.873 84.0984 258.27 82.2945L252.291 87.6095C254.783 90.4136 257.922 92.5657 261.603 94.1119L264.701 86.7361ZM258.306 82.3354C256.636 80.4047 255.354 78.105 254.482 75.3809L246.863 77.8191C248.039 81.495 249.829 84.7633 252.255 87.5686L258.306 82.3354ZM254.504 75.4506C253.667 72.6623 253.232 69.5974 253.232 66.232H245.232C245.232 70.2906 245.758 74.1377 246.841 77.7494L254.504 75.4506ZM253.232 66.232V24.472H245.232V66.232H253.232ZM249.232 28.472H258.544V20.472H249.232V28.472ZM254.544 24.472V65.176H262.544V24.472H254.544ZM254.544 65.176C254.544 72.2918 256.099 78.38 260.102 82.4698L265.819 76.8741C263.934 74.948 262.544 71.3722 262.544 65.176H254.544ZM260.102 82.4698C263.895 86.3461 268.816 88.184 274.48 88.184V80.184C270.673 80.184 267.913 79.0139 265.819 76.8741L260.102 82.4698ZM274.48 88.184C277.245 88.184 279.865 87.7726 282.289 86.8835L279.535 79.3725C278.12 79.8914 276.452 80.184 274.48 80.184V88.184ZM282.356 86.8583C284.902 85.8729 287.116 84.3743 288.949 82.3749L283.052 76.9691C282.069 78.0417 280.891 78.8471 279.468 79.3977L282.356 86.8583ZM288.949 82.3749C290.812 80.3421 292.158 77.8587 293.069 75.05L285.46 72.582C284.834 74.5093 284.004 75.9299 283.052 76.9691L288.949 82.3749ZM293.079 75.0205C294.001 72.1009 294.416 68.7953 294.416 65.176H286.416C286.416 68.2127 286.064 70.6671 285.45 72.6115L293.079 75.0205ZM294.416 65.176V24.472H286.416V65.176H294.416ZM290.416 28.472H299.728V20.472H290.416V28.472ZM295.728 24.472V66.232H303.728V24.472H295.728ZM295.728 66.232C295.728 69.5732 295.268 72.6139 294.383 75.3809L302.002 77.8191C303.165 74.1861 303.728 70.3148 303.728 66.232H295.728ZM294.361 75.4506C293.56 78.1208 292.301 80.381 290.599 82.2895L296.57 87.6145C299.091 84.787 300.905 81.4792 302.024 77.7494L294.361 75.4506ZM290.595 82.2945C288.991 84.0984 286.882 85.5943 284.163 86.7361L287.261 94.1119C290.943 92.5657 294.081 90.4136 296.574 87.6095L290.595 82.2945ZM284.137 86.7474C281.615 87.828 278.434 88.44 274.48 88.44V96.44C279.231 96.44 283.537 95.708 287.288 94.1006L284.137 86.7474ZM345.662 81.784L341.97 83.3225L342.996 85.784H345.662V81.784ZM343.07 75.928L339.399 77.5156L339.417 77.557L339.435 77.598L343.07 75.928ZM339.71 68.248L343.369 66.6313L339.71 68.248ZM335.774 59.8L332.135 61.4612L332.157 61.5093L332.181 61.5568L335.774 59.8ZM331.934 51.544L328.305 53.2258L328.313 53.2431L328.321 53.2602L331.934 51.544ZM328.478 44.536L324.9 46.3249L324.923 46.369L324.946 46.4126L328.478 44.536ZM325.982 39.832L329.43 37.8039L323.149 27.1267L321.999 39.4607L325.982 39.832ZM324.254 64.408L328.249 64.6121L328.249 64.6106L324.254 64.408ZM323.102 91V95H326.962L327.1 91.1428L323.102 91ZM313.982 91L309.986 90.8224L309.8 95H313.982V91ZM314.846 73.624L318.84 73.8434L318.84 73.8411L314.846 73.624ZM315.902 56.344L311.914 56.0304L311.913 56.0511L311.911 56.0719L315.902 56.344ZM317.246 39.736L313.264 39.3568L313.262 39.3803L313.26 39.4038L317.246 39.736ZM318.878 24.472V20.472H315.329L314.907 23.9954L318.878 24.472ZM327.038 24.472L330.447 22.3799L329.277 20.472H327.038V24.472ZM332.606 34.456L329.052 36.2921L332.606 34.456ZM338.558 46.552L334.938 48.2525L334.943 48.2632L334.948 48.2739L338.558 46.552ZM344.318 59.128L340.656 60.7371L340.661 60.7474L340.665 60.7578L344.318 59.128ZM349.406 70.552L345.751 72.1766L349.406 80.4009L353.061 72.1766L349.406 70.552ZM354.494 59.128L358.147 60.7578L358.152 60.7474L358.156 60.7371L354.494 59.128ZM360.254 46.552L363.865 48.2739L363.87 48.2632L363.875 48.2525L360.254 46.552ZM366.206 34.456L362.652 32.6199V32.6199L366.206 34.456ZM371.774 24.472V20.472H369.536L368.365 22.3799L371.774 24.472ZM379.934 24.472L383.914 24.0681L383.549 20.472H379.934V24.472ZM384.83 91V95H389.025L388.826 90.8103L384.83 91ZM375.71 91L371.713 91.1428L371.85 95H375.71V91ZM374.558 64.408L370.563 64.6106L370.563 64.6121L374.558 64.408ZM372.83 39.832L376.813 39.4607L375.663 27.1267L369.382 37.8039L372.83 39.832ZM370.238 44.536L366.706 42.6594L366.683 42.703L366.66 42.7471L370.238 44.536ZM366.878 51.544L370.491 53.2602L370.499 53.2431L370.507 53.2258L366.878 51.544ZM362.942 59.8L359.334 58.0742L359.325 58.0913L359.317 58.1085L362.942 59.8ZM359.102 68.248L355.443 66.6313L359.102 68.248ZM355.646 75.928L352.011 74.258L351.993 74.299L351.975 74.3404L355.646 75.928ZM353.15 81.784V85.784H355.817L356.842 83.3225L353.15 81.784ZM349.354 80.2455C348.689 78.648 347.803 76.6482 346.705 74.258L339.435 77.598C340.513 79.9438 341.355 81.848 341.97 83.3225L349.354 80.2455ZM346.742 74.3404C345.713 71.9612 344.589 69.3915 343.369 66.6313L336.051 69.8647C337.264 72.6085 338.38 75.1588 339.399 77.5156L346.742 74.3404ZM343.369 66.6313C342.131 63.8293 340.797 60.9665 339.368 58.0432L332.181 61.5568C333.567 64.3935 334.858 67.1627 336.051 69.8647L343.369 66.6313ZM339.413 58.1388C338.062 55.1789 336.773 52.4084 335.547 49.8278L328.321 53.2602C329.527 55.7996 330.799 58.5331 332.135 61.4612L339.413 58.1388ZM335.563 49.8622C334.324 47.1876 333.14 44.7847 332.011 42.6594L324.946 46.4126C325.993 48.3833 327.112 50.6524 328.305 53.2258L335.563 49.8622ZM332.056 42.7471C331.018 40.6718 330.139 39.0089 329.43 37.8039L322.534 41.8601C323.106 42.8311 323.89 44.3042 324.9 46.3249L332.056 42.7471ZM321.999 39.4607C321.289 47.0771 320.71 55.326 320.259 64.2054L328.249 64.6106C328.695 55.826 329.267 47.6909 329.965 40.2033L321.999 39.4607ZM320.259 64.2039C319.81 72.9928 319.425 81.8772 319.105 90.8572L327.1 91.1428C327.419 82.2028 327.802 73.3592 328.249 64.6121L320.259 64.2039ZM323.102 87H313.982V95H323.102V87ZM317.978 91.1776C318.234 85.4317 318.521 79.6537 318.84 73.8434L310.852 73.4045C310.531 79.2423 310.243 85.0483 309.986 90.8224L317.978 91.1776ZM318.84 73.8411C319.159 67.9706 319.51 62.229 319.893 56.6161L311.911 56.0719C311.526 61.723 311.173 67.5014 310.852 73.4069L318.84 73.8411ZM319.89 56.6576C320.337 50.9675 320.785 45.4376 321.232 40.0682L313.26 39.4038C312.811 44.7863 312.363 50.3285 311.914 56.0304L319.89 56.6576ZM321.228 40.1152C321.737 34.768 322.278 29.7127 322.85 24.9486L314.907 23.9954C314.326 28.8313 313.779 33.952 313.264 39.3568L321.228 40.1152ZM318.878 28.472H327.038V20.472H318.878V28.472ZM323.629 26.5641C325.293 29.2757 327.101 32.5143 329.052 36.2921L336.16 32.6199C334.144 28.7177 332.24 25.3003 330.447 22.3799L323.629 26.5641ZM329.052 36.2921C331.012 40.084 332.973 44.0706 334.938 48.2525L342.179 44.8515C340.175 40.5854 338.169 36.508 336.16 32.6199L329.052 36.2921ZM334.948 48.2739C336.914 52.3965 338.817 56.5509 340.656 60.7371L347.98 57.5189C346.108 53.2571 344.17 49.0275 342.169 44.8301L334.948 48.2739ZM340.665 60.7578C342.521 64.9164 344.216 68.7226 345.751 72.1766L353.061 68.9274C351.525 65.4694 349.828 61.6596 347.971 57.4982L340.665 60.7578ZM353.061 72.1766C354.596 68.7226 356.292 64.9164 358.147 60.7578L350.841 57.4982C348.985 61.6596 347.288 65.4694 345.751 68.9274L353.061 72.1766ZM358.156 60.7371C359.996 56.5509 361.898 52.3965 363.865 48.2739L356.644 44.8301C354.642 49.0275 352.705 53.2571 350.832 57.5189L358.156 60.7371ZM363.875 48.2525C365.839 44.0706 367.801 40.084 369.76 36.2921L362.652 32.6199C360.644 36.508 358.637 40.5854 356.634 44.8515L363.875 48.2525ZM369.76 36.2921C371.712 32.5143 373.52 29.2757 375.183 26.5641L368.365 22.3799C366.573 25.3003 364.669 28.7177 362.652 32.6199L369.76 36.2921ZM371.774 28.472H379.934V20.472H371.774V28.472ZM375.955 24.8759C378.123 46.2403 379.75 68.3447 380.835 91.1897L388.826 90.8103C387.734 67.8313 386.097 45.5837 383.914 24.0681L375.955 24.8759ZM384.83 87H375.71V95H384.83V87ZM379.708 90.8572C379.387 81.8772 379.002 72.9928 378.553 64.2039L370.563 64.6121C371.01 73.3592 371.393 82.2028 371.713 91.1428L379.708 90.8572ZM378.553 64.2054C378.103 55.326 377.523 47.0771 376.813 39.4607L368.847 40.2033C369.545 47.6909 370.118 55.826 370.563 64.6106L378.553 64.2054ZM369.382 37.8039C368.698 38.9669 367.802 40.5949 366.706 42.6594L373.771 46.4126C374.85 44.3811 375.682 42.8731 376.278 41.8601L369.382 37.8039ZM366.66 42.7471C365.615 44.8383 364.477 47.2111 363.249 49.8622L370.507 53.2258C371.711 50.6289 372.813 48.3297 373.816 46.3249L366.66 42.7471ZM363.265 49.8278C362.051 52.3841 360.74 55.1329 359.334 58.0742L366.551 61.5258C367.96 58.5791 369.274 55.8239 370.491 53.2602L363.265 49.8278ZM359.317 58.1085C357.962 61.0119 356.671 63.8529 355.443 66.6313L362.761 69.8647C363.965 67.1391 365.234 64.3481 366.567 61.4915L359.317 58.1085ZM355.443 66.6313C354.234 69.3682 353.09 71.9102 352.011 74.258L359.281 77.598C360.378 75.2098 361.538 72.6318 362.761 69.8647L355.443 66.6313ZM351.975 74.3404C350.947 76.7169 350.107 78.6868 349.458 80.2455L356.842 83.3225C357.473 81.8092 358.297 79.8751 359.318 77.5156L351.975 74.3404ZM353.15 77.784H345.662V85.784H353.15V77.784ZM443.879 91L440.137 92.4136L441.114 95H443.879V91ZM440.807 82.552L437.021 83.8427L437.026 83.8561L437.03 83.8695L440.807 82.552ZM437.831 74.008L441.6 72.668L440.654 70.008H437.831V74.008ZM407.687 74.008V70.008H404.865L403.919 72.6667L407.687 74.008ZM401.639 91V95H404.461L405.408 92.3413L401.639 91ZM391.943 91L388.184 89.633L386.232 95H391.943V91ZM399.143 71.512L402.887 72.9209L402.892 72.9077L399.143 71.512ZM405.671 54.424L401.963 52.9232L401.956 52.9423L401.948 52.9614L405.671 54.424ZM412.103 39.064L415.772 40.6571L415.776 40.6484L415.78 40.6397L412.103 39.064ZM418.727 24.472V20.472H416.21L415.121 22.7411L418.727 24.472ZM427.271 24.472L430.877 22.7411L429.788 20.472H427.271V24.472ZM433.895 39.064L430.219 40.6397L430.222 40.6484L430.226 40.6571L433.895 39.064ZM440.231 54.424L436.508 55.8866L436.516 55.9057L436.523 55.9248L440.231 54.424ZM446.855 71.512L443.107 72.9078L443.112 72.9209L446.855 71.512ZM454.055 91V95H459.766L457.814 89.633L454.055 91ZM435.143 66.328V70.328H440.876L438.897 64.9472L435.143 66.328ZM428.999 50.2L425.258 51.6145L425.268 51.6422L425.279 51.6697L428.999 50.2ZM422.759 35.128L426.402 33.4764L422.812 25.5563L419.134 33.4365L422.759 35.128ZM416.327 50.2L412.601 48.7458L412.596 48.758L412.591 48.7703L416.327 50.2ZM410.375 66.328L406.607 64.9854L404.704 70.328H410.375V66.328ZM447.621 89.5864C446.544 86.7365 445.532 83.9526 444.584 81.2345L437.03 83.8695C438.002 86.6554 439.038 89.5035 440.137 92.4136L447.621 89.5864ZM444.593 81.2613C443.627 78.4284 442.63 75.5639 441.6 72.668L434.062 75.348C435.081 78.2121 436.067 81.0436 437.021 83.8427L444.593 81.2613ZM437.831 70.008L407.687 70.008V78.008L437.831 78.008V70.008ZM403.919 72.6667L397.871 89.6587L405.408 92.3413L411.456 75.3493L403.919 72.6667ZM401.639 87H391.943V95H401.639V87ZM395.702 92.367C398.258 85.3386 400.653 78.8568 402.887 72.9209L395.4 70.1031C393.153 76.0712 390.748 82.5814 388.184 89.633L395.702 92.367ZM402.892 72.9077C405.124 66.9117 407.292 61.2381 409.394 55.8866L401.948 52.9614C399.827 58.3619 397.642 64.0803 395.395 70.1162L402.892 72.9077ZM409.379 55.9248C411.544 50.5769 413.675 45.4878 415.772 40.6571L408.434 37.4709C406.308 42.3682 404.151 47.5191 401.963 52.9232L409.379 55.9248ZM415.78 40.6397C417.87 35.7636 420.054 30.9513 422.333 26.2029L415.121 22.7411C412.792 27.5927 410.561 32.5084 408.427 37.4883L415.78 40.6397ZM418.727 28.472H427.271V20.472H418.727V28.472ZM423.665 26.2029C425.944 30.9513 428.129 35.7636 430.219 40.6397L437.572 37.4883C435.438 32.5084 433.206 27.5927 430.877 22.7411L423.665 26.2029ZM430.226 40.6571C432.318 45.4743 434.412 50.5506 436.508 55.8866L443.954 52.9614C441.826 47.5454 439.697 42.3817 437.564 37.4709L430.226 40.6571ZM436.523 55.9248C438.684 61.2625 440.878 66.9233 443.107 72.9078L450.604 70.1162C448.352 64.0687 446.13 58.3375 443.939 52.9232L436.523 55.9248ZM443.112 72.9209C445.345 78.8568 447.74 85.3386 450.296 92.367L457.814 89.633C455.25 82.5814 452.845 76.0712 450.599 70.1031L443.112 72.9209ZM454.055 87H443.879V95H454.055V87ZM438.897 64.9472C436.839 59.3513 434.78 53.9456 432.719 48.7303L425.279 51.6697C427.315 56.8224 429.351 62.1687 431.389 67.7088L438.897 64.9472ZM432.741 48.7855C430.728 43.4625 428.616 38.3592 426.402 33.4764L419.116 36.7795C421.255 41.4968 423.302 46.4415 425.258 51.6145L432.741 48.7855ZM419.134 33.4365C416.856 38.3192 414.678 43.4226 412.601 48.7458L420.053 51.6542C422.072 46.4813 424.183 41.5368 426.384 36.8195L419.134 33.4365ZM412.591 48.7703C410.596 53.985 408.601 59.3901 406.607 64.9854L414.143 67.6706C416.117 62.1299 418.091 56.783 420.063 51.6297L412.591 48.7703ZM410.375 70.328L435.143 70.328V62.328H410.375V70.328Z" fill="white" mask="url(#path-1-outside-1_12_63)"/>
</g>
<g filter="url(#filter1_f_12_63)">
<path d="M152.597 132.84C153.621 131.56 154.901 129.864 156.437 127.752C158.037 125.704 159.669 123.4 161.333 120.84C162.997 118.344 164.629 115.72 166.229 112.968C167.893 110.216 169.301 107.56 170.453 105H160.277C158.997 107.432 157.589 109.896 156.053 112.392C154.581 114.888 153.077 117.256 151.541 119.496C150.005 121.8 148.469 123.944 146.933 125.928C145.461 127.912 144.117 129.64 142.901 131.112C142.069 131.048 141.205 131.016 140.309 131.016C139.477 131.016 138.613 131.016 137.717 131.016H129.365V105H120.053L120.053 170.568C122.677 171.208 125.589 171.624 128.789 171.816C132.053 172.072 135.029 172.2 137.717 172.2C147.061 172.2 154.165 170.44 159.029 166.92C163.957 163.4 166.421 158.152 166.421 151.176C166.421 146.76 165.237 142.984 162.869 139.848C160.565 136.712 157.141 134.376 152.597 132.84ZM138.485 164.04C134.517 164.04 131.477 163.944 129.365 163.752V138.696H135.989C139.189 138.696 142.069 138.856 144.629 139.176C147.189 139.496 149.333 140.104 151.061 141C152.853 141.896 154.229 143.144 155.189 144.744C156.149 146.408 156.629 148.584 156.629 151.272C156.629 153.768 156.149 155.848 155.189 157.512C154.229 159.176 152.917 160.488 151.253 161.448C149.653 162.408 147.733 163.08 145.493 163.464C143.317 163.848 140.981 164.04 138.485 164.04ZM271.852 103.56C267.5 103.56 263.724 104.232 260.524 105.576C257.324 106.92 254.7 108.744 252.652 111.048C250.604 113.416 249.068 116.2 248.044 119.4C247.084 122.6 246.604 126.056 246.604 129.768V171.528H255.916V130.824C255.916 124.168 257.388 119.336 260.332 116.328C263.276 113.32 267.116 111.816 271.852 111.816C274.22 111.816 276.364 112.168 278.284 112.872C280.268 113.64 281.964 114.792 283.372 116.328C284.78 117.864 285.868 119.816 286.636 122.184C287.404 124.616 287.788 127.496 287.788 130.824V171.528H297.1V129.768C297.1 126.056 296.588 122.6 295.564 119.4C294.604 116.2 293.068 113.416 290.956 111.048C288.908 108.744 286.284 106.92 283.084 105.576C279.948 104.232 276.204 103.56 271.852 103.56ZM343.034 114.216C342.394 115.752 341.53 117.704 340.442 120.072C339.418 122.44 338.298 125 337.082 127.752C335.866 130.504 334.554 133.32 333.146 136.2C331.802 139.144 330.522 141.896 329.306 144.456C328.09 147.08 326.938 149.416 325.85 151.464C324.826 153.512 323.994 155.08 323.354 156.168C322.65 148.616 322.074 140.424 321.626 131.592C321.178 122.824 320.794 113.96 320.474 105H311.354C311.61 110.76 311.898 116.552 312.218 122.376C312.538 128.264 312.89 134.024 313.274 139.656C313.722 145.352 314.17 150.888 314.618 156.264C315.13 161.64 315.674 166.728 316.25 171.528H324.41C326.138 168.712 327.994 165.384 329.978 161.544C331.962 157.704 333.946 153.672 335.93 149.448C337.914 145.288 339.834 141.096 341.69 136.872C343.546 132.712 345.242 128.904 346.778 125.448C348.314 128.904 350.01 132.712 351.866 136.872C353.722 141.096 355.642 145.288 357.626 149.448C359.61 153.672 361.594 157.704 363.578 161.544C365.562 165.384 367.418 168.712 369.146 171.528H377.306C379.482 150.088 381.114 127.912 382.202 105H373.082C372.762 113.96 372.378 122.824 371.93 131.592C371.482 140.424 370.906 148.616 370.202 156.168C369.562 155.08 368.698 153.512 367.61 151.464C366.586 149.416 365.466 147.08 364.25 144.456C363.034 141.896 361.722 139.144 360.314 136.2C358.97 133.32 357.69 130.504 356.474 127.752C355.258 125 354.106 122.44 353.018 120.072C351.994 117.704 351.162 115.752 350.522 114.216H343.034ZM441.251 105C440.163 107.88 439.139 110.696 438.179 113.448C437.219 116.264 436.227 119.112 435.203 121.992H405.059L399.011 105H389.315C391.875 112.04 394.275 118.536 396.515 124.488C398.755 130.504 400.931 136.2 403.043 141.576C405.219 146.952 407.363 152.072 409.475 156.936C411.587 161.864 413.795 166.728 416.099 171.528H424.643C426.947 166.728 429.155 161.864 431.267 156.936C433.379 152.072 435.491 146.952 437.603 141.576C439.779 136.2 441.987 130.504 444.227 124.488C446.467 118.536 448.867 112.04 451.427 105H441.251ZM432.515 129.672C430.467 135.24 428.419 140.616 426.371 145.8C424.387 151.048 422.307 156.072 420.131 160.872C417.891 156.072 415.747 151.048 413.699 145.8C411.715 140.616 409.731 135.24 407.747 129.672H432.515Z" fill="white" fill-opacity="0.15"/>
</g>
<g filter="url(#filter2_d_12_63)">
<path d="M213.568 65.0903C211.408 68.6562 209.147 72.5028 206.972 76.668C204.756 72.1342 202.483 67.9249 200.34 64.0469C199.421 62.3841 198.542 60.8115 197.706 59.3138C194.895 54.2826 192.556 50.0961 190.736 46.17C188.34 41.0007 187.834 38.249 187.909 36.8463L187.926 36.5149V36.183C187.926 21.8888 198.384 12.5 207.89 12.5C217.085 12.5 227.194 21.5394 227.194 36.183C227.194 39.2259 226.202 42.8262 223.727 47.7955C221.777 51.711 219.37 55.6271 216.482 60.3247C215.56 61.825 214.589 63.4051 213.568 65.0903Z" stroke="#FDA901" stroke-width="25" shape-rendering="crispEdges"/>
</g>
<defs>
<filter id="filter0_d_12_63" x="118.681" y="23.8" width="339.374" height="76.64" filterUnits="userSpaceOnUse" color-interpolation-filters="sRGB">
<feFlood flood-opacity="0" result="BackgroundImageFix"/>
<feColorMatrix in="SourceAlpha" type="matrix" values="0 0 0 0 0 0 0 0 0 0 0 0 0 0 0 0 0 0 127 0" result="hardAlpha"/>
<feOffset dy="4"/>
<feGaussianBlur stdDeviation="2"/>
<feComposite in2="hardAlpha" operator="out"/>
<feColorMatrix type="matrix" values="0 0 0 0 0 0 0 0 0 0 0 0 0 0 0 0 0 0 0.25 0"/>
<feBlend mode="normal" in2="BackgroundImageFix" result="effect1_dropShadow_12_63"/>
<feBlend mode="normal" in="SourceGraphic" in2="effect1_dropShadow_12_63" result="shape"/>
</filter>
<filter id="filter1_f_12_63" x="116.053" y="99.56" width="339.374" height="76.64" filterUnits="userSpaceOnUse" color-interpolation-filters="sRGB">
<feFlood flood-opacity="0" result="BackgroundImageFix"/>
<feBlend mode="normal" in="SourceGraphic" in2="BackgroundImageFix" result="shape"/>
<feGaussianBlur stdDeviation="2" result="effect1_foregroundBlur_12_63"/>
</filter>
<filter id="filter2_d_12_63" x="171.402" y="0" width="72.292" height="127.429" filterUnits="userSpaceOnUse" color-interpolation-filters="sRGB">
<feFlood flood-opacity="0" result="BackgroundImageFix"/>
<feColorMatrix in="SourceAlpha" type="matrix" values="0 0 0 0 0 0 0 0 0 0 0 0 0 0 0 0 0 0 127 0" result="hardAlpha"/>
<feOffset dy="4"/>
<feGaussianBlur stdDeviation="2"/>
<feComposite in2="hardAlpha" operator="out"/>
<feColorMatrix type="matrix" values="0 0 0 0 0 0 0 0 0 0 0 0 0 0 0 0 0 0 0.25 0"/>
<feBlend mode="normal" in2="BackgroundImageFix" result="effect1_dropShadow_12_63"/>
<feBlend mode="normal" in="SourceGraphic" in2="effect1_dropShadow_12_63" result="shape"/>
</filter>
</defs>
</svg>
